<mxfile host="app.diagrams.net" modified="2023-07-10T21:26:19.177Z" agent="Mozilla/5.0 (Macintosh; Intel Mac OS X 10_15_7) AppleWebKit/537.36 (KHTML, like Gecko) Chrome/114.0.0.0 Safari/537.36" etag="3afvP9VCmzZMYf-ywtd-" version="21.6.1" type="device">
  <diagram id="3NDS-CnkSlTQrb9KDiKX" name="header">
    <mxGraphModel dx="4666" dy="3040" grid="1" gridSize="10" guides="1" tooltips="1" connect="1" arrows="1" fold="1" page="1" pageScale="1" pageWidth="850" pageHeight="1100" math="0" shadow="0">
      <root>
        <mxCell id="0" />
        <mxCell id="1" parent="0" />
        <mxCell id="5uubR5LTRDBumDfYtwaW-1" value="" style="group" vertex="1" connectable="0" parent="1">
          <mxGeometry x="-170" y="-320" width="1200" height="630" as="geometry" />
        </mxCell>
        <mxCell id="X_UxY6NXmu8JpGVTqFK_-1" value="" style="rounded=0;whiteSpace=wrap;html=1;strokeColor=none;" parent="5uubR5LTRDBumDfYtwaW-1" vertex="1">
          <mxGeometry width="1200" height="630" as="geometry" />
        </mxCell>
        <mxCell id="eSph2J_hhcmliUvjJDdz-1" value="" style="shape=image;aspect=fixed;image=data:image/jpeg,/9j/4AAQSkZJRgABAQAAAQABAAD/2wBDAAUDBAQEAwUEBAQFBQUGBwwIBwcHBw8LCwkMEQ8SEhEPERETFhwXExQaFRERGCEYGh0dHx8fExciJCIeJBweHx7/2wBDAQUFBQcGBw4ICA4eFBEUHh4eHh4eHh4eHh4eHh4eHh4eHh4eHh4eHh4eHh4eHh4eHh4eHh4eHh4eHh4eHh4eHh7/wgARCASwA1IDASIAAhEBAxEB/8QAHAABAAEFAQEAAAAAAAAAAAAAAAcBBAUGCAMC/8QAGwEBAAMBAQEBAAAAAAAAAAAAAAEDBAIFBgf/2gAMAwEAAhADEAAAAZlAAAAAAAAAAAAAAAAAAAAAAAAPk+ljjDYWnWpvbQvY3dq2SMu8fYAAAAAAAAAAAAAAAAAAAAAAAAAAAAAAAAAAAAAAAAAAAAAAAYDFQDDfNQxOQ56sfnaspns0FJdzV1FaV/Ei6si47vnU9hs8Lprm2R+R97756AefpIAAAAAAAAAAAAAAAAAAAAAAAAAAAAAAAAAAAAAAAAAAeJ7fMbRbCb9AjKibu3+XMzBumlbf8j6vvS3pht96eDmfavgLitsld4/2+buIY1zL4j7PyNskKElvPVd/yZv8xOjAZ+QAAAAAAAAAAAAAAAAAAAAAAAAAAAAAAAAAAAAAAD5xUHkiw9h/XmfL13zf/K1Rntm2fHz+7TYpnaJPTz+c5c7TbEZ6h87vAAAabuUM+rm1nZdblv28t/r273fzPoQRi+idS93DE8h6hh/cx9U5LlGaO+ZGUrIAAAAAAAAAAAAAAAAAAAAAAAAAAAAAAAAAAABpGJhSF5Y+kpZbdTlTI+fzPpV+TytAQx2k71g9cQ9I0c7L9X5MzUPivXCAAFvAMxwv9V517NEaSb5mq+9vn68i8JfGj720V8+eE7xL9V5uzTdydtHp5ukmPyEgAAAAAAAAAAAAAAAAAAAAAAAAAAAAAAAAAEXX8EQXf1NuDRb5758vk/TrQyWAAWlpd20WQh63mI+/8Hoitpd/B+yHMgAaDGW76R9v5Eh7pr+w/Ievkvr5rnAAV8vSsol03oqLvp/OxPRHKm1+9h6QeHvIAAAAAAAAAAAAAAAAAAAAAAAAAAAAAAABrud5thg628yY78rl6+HyHqBksAAHkm08que4x1bddL+68Sbc7qe2fH+oGfsACGtZyuN++8WZMh4+3wPvX/rY3zgEAK0FfmqUS6f0JCn1nmbhOPIs/wDs497EgAAAAAAAAAAAAAAAAAAAAAAAAAAAAABZkbQzffHHW3S3Z+nx/rKHmXhAUKra2jq5tKVjqlSJ0jQJHjj7XxpU3aPpB+a3hitAUr8dRAXz5Xn3njTNWlfz/wCgp7eRGR+8X7TxfPP0nkABhsyt553ym0x/9z43WVzFEr6awAAAAAAAAAAAAAAAAAAAAAAAAAAAAAEUSrzFDCSZHU/+RruPOr5H1KPm3ibrxs/mOvfxojopgbec/SNsB6+SW8ZFLfRuGoHrY83f6rTmdn+darDZK6yhtHtqNRe2S/mS8nENPI1zl6wZmcN8tNL2rydd19+dc1l1cY1POUWNxPPspVFrA3QcY+7i1XqHkue/qfNkASAAAAAAAAAAAAAAAAAAAAAAAAAAAAA1bm6Wolid0lfT9g+K9i7tPF5mqrzxVsZlpmL3USPjY6w++jKYOud93BgvSVto8rTDeblKnnX6Ffbey24D3zCnrGe164mwpkBivHNumr2W6reI4w8v11VwHYdE4bfTB/tu2kexl33c4Jy3ka5hRfkvN079TWc3huv7i0U95PEe1zbVz9vWs2n3/h9YvD3s5AAAAAAAAAAAAAAAAAAAAAAAAAAAAHmc66rc+1Pct3GoaV8r6siapqtfcw3Nt75zVXrjf8tgvir7mO+yWaRJf08XUGawAAAAAABWgqoGGzKzmA7LofB+9khOkv4vTXGtdwwO+j02mP3EzVeQZtHibvXTt50b28PR+2RhJ/oZwAAAAAAAAAAAAAAAAAAAAAAAAB4HujmPIdB2HMdsdQ/HMH2n5oQBL28qctsz8aPP0TVewTkvN0zIjXNefpkD01jYcXXsK5AAAAAAAAAKWPcXNjr+C18775xXh/QzypgNDejny+Iq9PNRWncBCT5a5Z+eo6gveUvpHW9eYN4JnYHPSAAAAAAAAAAAAAAAAAAAAAGCMfBNlb8z812/cMemMsnJbJfHGOlgmENkkK465xF9dMejw8rxE4LBb0t4ijEzb8aaIRTVYbc0R+27a/Zx85fU/KnuRspErLZNd9AzN30H788fdPfQiAa8TPyARPvxAPl1E92UHUu5mLGxg0V73iNbaa72zvM9p41OslZLjqI72XfbHpjjO7WzXYy7uFFvh4Xw1WPpr8NeeIMzJX3KOLOU3Mwr4TbrmmmN5M0PG7svW3pC0098gAAAAAAAAAAAAAAAAAAAICnLleHhIceelFszoVpk0ThWFcnx1K7TNryaLgVdgAK++y3V4vN+ldmUtdY7bgjHHddSviY6zRkcRIt3NUOYydnXPPlp0cmOZvLpvE8d89J3+q7IJup8yVlcC5GbHXMTZWRPmJ1bM65qsWy79Q5ec9Su0PZ3GUtLxzGuYreLTPfqK7tMl4RIAwPfOepG+E155g84Y+beJmiqwroqdN8wy/qolsTAAAAAAAAAAAAAAAAAAAGo85T7AUPr1zGXo36pTZvLmzWvLavHqvW7i7xveWSNng+TPN17KMGpeNq0U/Pqxu3NeaDrGL6v9/H5xfc5Wuv+vVebePtxfmZjgOW+atjEUAAAAANE3iD1tmrTrQY2zsozv1gslHW3SLC/rXM8tR26M/xruy/NXWkMljcGxaXUQaKshrq69fBa/ebu+dGv/Wf+uLtc8tw+0aTuul7Hp87pYTAAAAAAAAAAAAAAAAAAAGic/wDTHM8M/nda2XH7D4+3Gix+MjZdceePyNj3Tgd70Te4wbv6+WzeVvvPej0MVrDWe1LrSPDrvEWRr8rJS3HvQ8xzJkPfE1aclIMfbzm1yOIygAAAAYuFJhh6dDEZbV7q/n28cjowyvH3Q8Omq3WDzeX0/uU4quq5nRbXMZfPUtxxtFuqQpNkKWc/exa/sWq2pd1a/i4Oe6/NbaeNO2fVpB2+HPQ6gAAAAAAAAAAAAAAAAAADx5X6ugqGgbpou0Z9+TFHoqVGPsMviLKMFveib286Rtpsb/Ncs7zXreIk+DratrhPOqvby2eTT38Ay2K2GrRcb3okmZte6CMwAAAAGEhudINnR56vtWAvps60X4/bxC+zthf5fSKV4ukvdIzkznIpVHGmwT0Rzt299hwGxWafe5op2glhc1ptuO2mqGeoNXlZYSAAAAAAAAAAAAAAAAAAAa3sg5H95AjbjvefrW9lyexRWnNrB53Ed1azv2gyZb5Mu/VK5rGKytJmAabdqfWz5DrxwuwO6dW9Nkr3TY35Vp+5u0yQOaamCU5XWIVx99Uv2UWO+ZQuInE2bNzbXmeqKxDLtFtYgl/Cc2w38XHl1pwNntVLc+sZPKViQr0UrS+N0320vOcgOcfzP09zDfVcbVqu4c+h9UrSnWLTqLLW/u41+Lu884fMWVAAAAAAAAAAAAAAAAAAAAAWnN3TmHhy5nfLD82761bZMnq+uOyWPjrUZQi+TdPjS7Wlct4HnHsjHUCec46z1dGjc7eO9Urt+YRHe97jfKn16XNmbwjSU9f0V8zPTz65AAAynT0KTlzNp53/AJ02anGM4eNGmBkp4KbdJbV9z1qTf9kjmOpNyaKQjgJWPMfTfMmiq/23U9sr9FRiuL7vU/n41eVWdcbK1mcJAAAAAAAAAAAAAAAAAAAAAAYqA+kfKHJPrLUUx1mbrU/qrT8yPHEg9Z5qGO8JAAAAPTzu++PQbKFaCKIe63i0hl6+QAzd9Ph639aAJ8rW/ss9vyKLAgEgAAMXzR0jzdoqyWe1H56tyOObZ3Rrc17PsPXASAAAAAAAAAAAAAAAAAAAAAAAAYrKiF466txsOVt40jcuO54GK8JAAAAVvbK+0VBfWABgoX6BipESzjCnUx6elACQFvcW9XXgMl4SAAAA1nnroLn3TT9bZss0XV6Nu/0kAAAAAAAAAAAAAAAAAAAAAAAAAAA8/QcoZT1wXHXUbw98V4JAAAAXdp9983jy+tlH2pQ+vn5+YItk2DzTepuU+izZPTxqer4rL6fND7svXwzWhTYAAAABocIShF+qibJP03creAkAAAAAAAAAAAAAAAAAAAAAAAAAAABCUY9B8+RPQO1RDL2K8OegAAAALCAOiYlvqudlhWwvqnDXowSyuKB9/A3bbYdE72cKfRtW26bLlNmz0MtwSAAAAUrjCDdd+dq25ugr07gAAAAAAAAAAAAAAAAAAAAAAAAAAAAC35X6w59hgej+Vuks92YFFgAAAAAHxzh0lDl1ccFdNJvW9V7IMpPuvx1EVMjjrcScYU6Wo7vhmuCQAAAACMJO50s4wE1w11LrpyAmAAAAAAAAAAAAAAAAAAAAAAAAAAAAAEXyhrhzRNELSBT3NYy3gAAAAAMTlqHMGaleENVU+VhPYefSktHOMTuUPe+69+dkpa+PTN0HMgAAAAAYPnGWol007v0HHEj3VhIAAAAAAAAAAAAAAAAAAAAAAAAAAAAB5eo5QyN/rHE9S1t7jFpAAAAAAApjskIm1boJZxztmZvS0zc1a+qVIkAAAAAAW5A+sfee25+hMkd8gAAAAAAAAAAAAAAAAAAAAAAAAAAAAAAQhGczwzE9FbBo284dARIAAAAAAAAAAAAAAAADVNrjDrmI5Si2fNlG/jqAAAAAAAAAAAAAAAAAAAAAAAAAAAAAAANF5/6T5shLsmxBL+PQHHQAAAAAAAAAAAAAAAAFIQnDnK2vBdQc1dV6qfQSAAAAAAAAAAAAAAAAAAAAAAAAAAAAAAAw3L3VvKsTvU2wRO2S6or7AAAAAAAAAAAAAAAAA8+YOjuab6tl6WgGftFQSAAAAAAAAAAAAAAAAAAAAAAAAAAAAAAAt+UesOT4bRPsAdAZLwr7AAAAAAAAAAAAAAAAHjDS4OlOLLIlKaYmlnbmAAAAAAAAAAAAAAAAAAAAAAAAAAAAAAAA8eT+ruUYbNP/AD90DkvqK+wAAAAAAAAAAAAAAAGDzenZrtQjaRY5255vkyOpF2ZwAAAAAAAAAAAAAAAAAAAAAAAAAAAAAAAMbyx0fzfE7H0Lz/PGDTdAAAAAAAAAAAAAAAAFCx1XK4rztmoR7IMe+thnqQY9kLXnAAAAAAAAAAAAAAAAAAAAAAAAAAAAAAAAiyGN60WJ3OY493jx9+dqaaQAAAAAAAAAAAAAAHz9Y/jrWfilfM3ahHkkRv7XmzxIcbyRszgAAAAAAAAAAAAAAAAAAAAAAAAAAAHlgjYkca7CafnnbBnTWG5t+E3v1YbdTZIeUxl14fp7dU9PCAAAAAAAAAAAAAAA13YdPzXW4xatbjGVYr9jzpklTkjJbc3U7nPYSa0bbNLY3l6gAAAAAAAAAAAAAAAAAAAAABiY3Jc1+AsHCZNP0tE3lpSpRUUVFFRST42mbz9ft9/DzNu8V8vX1MITAAAAAAAAAAAAAAFrqGwa/g1hRbiojmSG/WwUK7stFRRUXez6YlMW7czjrn65fkBEwMPmJAAAAAAAAAAAAAAAAADBl9D2l4eJ9fJWFFUwAAKFVBWhE7LJuqbX4nplWe7bLzF5T0cIWcgAAAAAAAAAAAACkNZxvr5eZvDmfKFJuhb08XhWj0cdVEqqVQABRWkPWRY1J6ryHLXQ0xnxIAAAAAAAAAAAAAACnOPQ3J8PkrE0qTAACgkvMzVfr9docXalTZ8T3Sk2IrmpNNMbkvG9HYMxgNg3ZAurAAAAAAAAAAAAAWt1ia+9cHm7VKx/fX66TT19jzvL7zl7F2teW10jvU65nEW5vkd1AAKVDZdZ+onritjfdQAAAAAAAAAAAAAABa8n9YcnwpWiJqpWYACJX9vslWl9UrRtBIIw2L2nA3Y7qWYR3/NMjbLp231d/QtqCQoVAAAAAAAAAAA13YtRz3Wh8YtWuxnfWPueX67F53XOsOLgSs7z5njVaZjD6fPDuoBStIK0qnqy+sb7qAAAAAAAAAAAAAAALXk/rDk+GRuqyd3zCtJR1OJ1qvp5cdD1Tmr+lcnqBEgkD4tbrzV61S5tdfnfd5Yp4zmQ1NE75dxwhK1zECJmy4gtEz7cc9Inon05yI6V9OZ0T005lHTTmUdN/PMw6T8ecUuivPnkT9bQURNtnDyUsazpo2eww6VMjj9ii27Gf0AAFK0R44DP4/vNiBpxK/WWmMPkdmyVnOh2WXxFfXVl9Y30gAAAAAAAAAAAAAALXk/rDk+Gck6MZOt4UV748NV3DBc9RlkLDKZdWZGb0gAAPjz+vhxjcXmcNow1UW01UIqpUAAAAAAAAAAAACBSqa7XrOz0bQq1AAKV+UeXj7fM1a1kLDIbPN3X1NFKgnTcRl8RRb1ZfWN8AAAAAAAAAAAAAAAWvJ/WHJ8M5J0YydbxStK2cMDnsbzMTZbE3+TXny1z+hdNdznXHsOLRg+q8rTG5KObPC5PGaMfr8yDsd+eGaTDbkT0lDxI1rIflE6C3nzTpTcfk1BtnxDVW0jVm0jVm01NVbZ9y1BuPoaU3n1RoKRPYjVKNxMRPWXveUQ+E0RNzNrs+p7Vl3/T4wXFuwMdkY7COnlaYzvPnPl5c9YC/wAfmNnm7mpXRTQROm4jL4ii3qy+sb6QAAAAAAAAAAAAAAFryf1hyfDOSdGMnW8FK2cPn6oQ/wCG36bmv2vF/FaNuK2DAbBNd6fNG2uqbLrV2T1z2Bv3Nh5fOfuz7/eVac4SApUAAKKilQAAoqKKiioAUqAGgb/iOeoszuC9smrPa1sOvR3kc7hM3XpKedduFsL6y1eZsFjc4aq/42vWJA14vcW10BpuIy+Iz3dWX1jfSAAAAAAAAAAAAAAAteT+sOT4ZyToxk63ilTvgJW8US/iuOop9fS3otbBr+Rrvy/zaVp03WtZbEW5qqfdlNZSsNj0VUVd8AAAAAAAAAAAAAAAKVEd6xL0aUW2Xicd5TLa/kM+u9WvxxZZ2Xt46sP38M5PN3sdK6KQmKCJ03EZfEUW9WX1jfSAAAAAAAAAAAAAAAteT+sOT4ZyToxk63gLOAFKiy0GS6c9QvSWsHX3oLb6czqLes11Gg77lllap1AAAAAAAAAAAAAAAAoVtfHHwfP0NY16R/OvuOa7jY89a42D1TrXtt2TnnB55WzgJgCgidNxGXxFFvVl9Y30gAAAAAAAAAAAAAALXk/rDk+Gck6MZOt4KVs4AAAAAAAAAAAAAAAAAAAAAAPiwL3F+KFAAAAAAAAAUETpuIy+Iot6svrG+kAAAAAAAAAAAAAABa8n9YcnwzknRfJdvHpWlbOAAAAAAAAAAAAAAAAAACgq+fI96WNqZSysUPr5EggAAAAAAAACgidNxGXxFFvVl9Y30gAAAAAAAAAAAAAAPDlLrSCYaNvsbZPqN59cbeW13PpZUmMn6YkZn7wYz1cB9GdYT7lmK4f6hlmLqZNjqmQWFS+WNS9WVZXiyF6saF+x3yZNivky9ML8QzfxhRlvPGVLzztx9fIAAAAAAAAAAAAChX5ttU468LXz3+q2cromAAAAAAAAAAAAAAAFtcjn/ReudAhA2Y99fN2yUb+3fMiU1LKd85pbXExVSswAAAAAAAApUAAAAAAAAAAAAAAAAFBVb46JzNNTxPHW4YLCOOvqmdlqOo+nm5+kBIAAAAAAAAAAAAAAAAD51LbxBukdU+cOSHSenph2523WC5vtapMbneR+6iSPuOLmed+aVcy2xrlxMZti/eYvXj9n2pWYAKCqlQAAApUAKVBQqApRP08fCF6xfjE5prlvDa2l2kTvtvoPxE7rY6w56zWPtr6FjTddsTD2R6A2Yg+Q9xI+fokAAAAAAAAAAAAAAAAAAAAAA+PsYfXN7ESYCekOasP1b8HJXx1Zijmh0DjUwglzGEb/AFvFkjV/TK2ybf08PFGR+8T8mb+sCNgrryWx010bHTXRsVNeGwfOBGc+MNWGV+Mf9lz5rtNh8Zu/iNSpvV+mNkt5OUIugMsc13fT94jmvOT2Ij2DfEsLl/sAAAAAAAAAAAAAAAAAAAAAAAAAAAAAAAAAAKVHx8ews/HJDD+ecGv+eyDWGzjWGzjWPvZBr/pnBh/XJiz9fcfH1UAAAAAAAAAAAAAAAAAAAAAAAAAAHxaF8sfUuQAAAAAAAAAAAAAAAAAAAAAAAGP08kBF92SKwuaAAAAAB4Hu1HCkkIyuiQ2u7AfQAAAB4nssRfPH2AAAAAAAAANR5i6c5jEmRlJpP4AAAAAAAAAAAAAAAAAAAAAB4nxCes6eeviqUqH1I0bDr+95c6aLkAAoVwGgwsSRHdqK0qKK0K5nCibZW48zZ1i1DbwABFkpxYQOoJylqJZaAAAAAAAAANQ5j6c5jKSbGUmk/gAAAAAAAAAAAAAAAAAAAAARBL/LRrNAupa2rfjQsZKA5RwXXHMZg5i9pcPcAFIHzEKii4PDPyxKRDWySGNEx0mCA477Ax5yJSR45PbofnG4OxGrbSAIslOLCBgTlLUSy0AAAAAAAAAahzH05zGUk2MpNJ/AAAAAAAAAAAAAAAAAAAAAA5H645aNY9fIdj+sfSCAPj7AADXdi5+I68VT76O06awAAACkEzv5nHFNp1Y2TqXjfoUkYCLJTiwgYE5S1EstAAAAAAAAAGocx9OcxlJNjKTSfwMbkohN3ctjsC70beQDx1725VOpMhyXKxOoKazsHHZ1Jd8obsdKYGJ4tJwx8O0J73rkr2OxkMTKfVneWhg3NuNOp9k406cNvAAs7yBiUnLY6r2CFZqERy55HHNN30k9Zch2p1vlOOJBOhmpbaAAePIfS3MBS5tt7OhL0AAAAANA5z7G5BLbf9AyJ12pURZKcWEDAnKWolloAAAAAAAAA1DmPpzmMpJsZSaT+BEMvRCQiDpPedG3kA17lTqvlQStFMrE7A8OO+xOOylaVDLTyc407E8TkGk3wofEvRB9HZTVtpIpgrsflc1/ctNqdlV0PfADD8oydFhS+sppJUvgA8YZmwcc+XWkWEOsljhIMe1Ousjyj04ZIEdc8T/AAluJJmJmAAAAAA5Y6n5cNWrSp2DdYvKCLJTiwgYE5S1EstAAAAAAAAAGocx9OcxlJNjKTSfwIhl6ISEQdJ7zo28gGvcqdV8qCVoplYnYHhx32Jx2U9PPdicdlABDkx2RyA9PMlCfOVOqxH8gUONabnphsvUvG3QRJOIy8EkYeAZLq+LpcAAAAPCLZZHHtr07zMeckxt7HYy2uSP+c+reUykqxVtB1IAARaSk5ZHUzl6ejZwOTul+Tz5+vnNnVNwCLJTiwgYE5S1EstAAAAAAAAAGocx9Ic3lJPjCVCeAIhl6ISEQdJ7zom9gGvcqdV8qCVoplcnUHhx32Jx2UlOLJIOhAAD5OSsVe2RedgcjdcgGp8w9lc9EcZ3BjrDlbKYMZbFToSfcAAQ7GB09e8d9LG6AAcy9Nc3mh1pU6o2PWtlKcndZQ8Qp9UodRbVy902ewFKiDol7KhYh3IWA6k2fkKYzDRN6eZWVIt6nNiAiyU4sIGBOUtRLLQAAAAAAAaxmy8LIjCD9h14TTC3S5uoEUSvohzcrQnyUOZ+lT7Bp3MknxgJbiWeiUQeHHfYnHZTJY2p2Hcc/z6fYGlZ/mgwNFTdOl4rlQAYTNjjrwluJShUy/V0aSiAAQrDvVHLJ8y9ENwdiI/kAFmffJu4R8PTz346DuwWt0OT8H1HzOWu9aIOwLzk2aSSXh7gENwx1XzkYCtAq2w2yc/D3AEWSnFhAwJylqG5RMmxgybGfRkQAAAPD3hwjHH2g2vC44KsmZHqTAbEAPH2HJuG6g5vMdtWqiVdf0oVouD06t1KQADw477E47KGwmv57ywpKPhGovrEGxeHSZmPYAANT5gkOPCmewPQhInoAACAZ+tzjym9aMM3gxtev2gVZA8eoMbuYAA1LbRyPjOuINI4fXyXGf1gbXjsKPr5VKVvt6I2ymNodT7JyL0mbOBFkpxYQMCqgqoK5DHZA68AAAAwOeEGad1IOSL/qgQZL+UAAADFZUQfpfUg5JvuqBAktbCAAPDjvsTjspvuhb6dARHNY5ZxvXA5c3yZxZXoAANU2vmo0r5VNj6l0CQgAAAD5jmSBzfr3WI5Iy/UAheVskAAAAANfjeaBzRh+rxyLkOqhzrvEpCzvAiCI+uxyHfdXDX9gBp+4CC06CC06CC06CC7maxSoAAAAAAAAAAAAAAAAeHHfYnHZTfdC306PAAAAAPk0rmvadVG06v0eb3UAAAAAAAAAAAAAAAAAAAAAAAAAAAAAAAAAAAAAAAAAAAPDjvsTjspvuhb6dHgAAAAR1IHKxglKm29O6VuwAAAAAAAAAAAAAAAAAAAAAAAAAAAAAAAAAAAAAAAAAAAB4ckdfDkDeOhwAAAABGcG9fDkDbukQAAAAAAAAAAAAAAAAAAAAAAAAAAAAAAAAAAAAAAAAAAAAAAAAAAAAAAAAAAAAAAAAAAAAAAAAAAAAAAAAAAAAAAAAAAAAAAAAAAAAAAAAAAAAAAAAAAAAAAAAAAAAAAAAAAAAAAAAAAAAAAAAAAAAAAAAAAAAAAAAAAAAAAAAAAAAAAAAAAAAAAAAAAAAAAAAAAAAAAAAAAAAAAAAAAAAAAAAAAAAAAAAAAAAAAAAAAAAAAAAAAAAAAAAAAAAAAAAAAAAAAAAAAAAAAAAAAAAAAAAAAAAAAAAAAAAAAAAAAAAAAAAAAABrK1qbeAAAAADE6/mtYJDAAAAAB50jbyJTAAAwOe1o1faImzpMINMwuRh86LyOp7YAAAI9kKLSS/e3uAAAAAAAAAAAADQ8d7w4dRe+LygAAAAAAAABzPj5lj41rIdMRwblho9nE5W32QIzJ4jqRRyde+PR5zhK0mcvnVC1ugBjckOXsh0dzAdRUqOacZJnsRXJstcwHUcTyxAJqjP5ozcgYDdDk7zmTzIvnDdRrfPvSUPGn75g9cOqAR5gc9gSYQIHniByTNs1PbAABpu5Dlry6q0w0yS4nnM5T6BjWRiJbma4FNsjXqblEva9OWxrWl6N0kc2dNcz9NnMO+6H0sY3n6a4TPPNbBfkvxJJPOB4evUGvnOU5w51AV5v6Q5vJ8ymLygAAAAAAAABHsMTPHRJMd5TYiyki/i4vY/Cac7z/PRyxJcdyYZGH5Ak8y3oAC1utHMpz3sdCZc7z/ADGRtldVvSZ+YZxjMn6FpOjU3TSNa9i+n/VNrIwxcoQUTlrUT7+apndvhwkmH9pE82us6wXOGxYmzMwVN5iYX9fEkDdYK3MlMAADTNz0s0Cc4MnMgvdctCZKMV5ryJ65E6q5uJdtLT7NN6Tsb4hLVegeViVJrsL8jStxHhIMGZ+QSS+YeqcEaxrnxkSN+oOYujCygbLfBKmywNIRIgAAAAAAAAIAws0W5ebbicsAANS23EHLst7LcG4VAAAAAAAAAAAAAAAAAAAAABrWy44ibUZfyhr0jAABHcG9K4cxsl6xs4juRNcIcwU1fZuPrSoAABSHZj0w596Mx+yGVAAAAAAAAAAAAAAAAAAAAAAAAAAAAAAAAAAAAAAAAAAAAAAAAAAAAAAAAAAAAB//xAA3EAAABgEBBQYGAgMBAAIDAAAAAQIDBAUGEAcREhMgFDA0NUBQFRYhMTM2MmAiIyQlQXAmgKD/2gAIAQEAAQUC/wDpwzIg7MitBd1WIC8lqEGeU1YLKqwFlFSG7+qWGrOA4Eutq/sFrbRK5Fhlc1437Kc+DMz7hp95o4t/aRzqMqYfNCkrT/W8muk1rMl52Q6GIUp4NUFisN4xJMk4sCxdkHjEfceLNhWLuBzG5yQ9UWDQWhSDGN3rkF1taXEf1dSiSVhkNdEE7LpKxKkPSn0kalU9EwwhJEkhvIcRDjHGOIcRDeWkuFGlJvK0694Vl/PgtwMujOCJMjSk/wBTedbaRa5XHZFhbz5p9GMWHaIvEfdLc5aLaYubM1YedYVWZXKYFbbQp6f6eoyIrnJo0UWNlMnLDaFuKhY/KdJqlhR020FD8P7CnknFnke8u5yqVyYYoYnaJS4UaQczHEmJkCVFMIWpCqfKZEcQJ0aa1/TLKwjQGbrIJU8w22t1ddjjixFixoiQf2MXcfkTxRv9ore5ySRz7MUkfs8BktFJJRWFFGfE6ukwzEOU/EdoslZlAvqX9JyC/Zr0zZb8x4VNLImiBAiwWzPf0L+isoZ4mBhz307iQ4TTDqzW5Ba50si3E0X+Oq0pWVpQocD7LjDgx/I3Yhx3mpDX9HyfISjhalLW02t1dNQJaH0SXS//ACtm+bXjGneXa9xkjvLqhjTfFNCft0z4LExu1rH4KxQ3D9Y9AlszY/8ARcqv+SRmZnDjOy3qeqZgNqV1vgy3k+ngehL5csvt15i5uZGLI3RyBdbraHEXdMqLpR2r1ZIgS2Zsb+h5ZddiaUZqVBiuzH6qvagMKV3D+lyjl2QhK44nXl6980UCOCtIF3CiIyv6g2TGO2zlbKYdQ+1/Qb6yRWwpLzkh+My5Iep69uvjqV3Lp71jJUcM8UKuKp68mVxWwr0cEINn/j3BkRlkFX2VwYdcdme/oDziWm8gslWM4i3njdZ2RhR9y4rhLTKU/wC4YqrfV9duriskFvUyW5kNq3H3LzaXWreEqFKI9x4ja9uh+/5zZ8DYxWu7Q+Z7u5U4D+p6ZV+IYgrfC6j+0xXHLi+J1QsyCVEfc28JM2I4hTa6iauBOjPIfY99myERYs+QqXLiMLkyIjCIsU+ozIgboMzPpygt8QYaf+vqX/Bw97lcXFO6UuGQSsj7jK4PCsYJYcTfvuezuFsYfC/xUfSpwiBuH0me4OS4zYcuISRbWjUuMK2yegJO/nj47Yj47ZD45ZD47ZAr2xCcgm7j+pwXijy27yIYbs4SwlxCuklGQS6CMj6ZbKZEeS0piRVylQ5zDiXWfe1mSU3co5lmw2bz0ZpMaLoaiIKdBmZ9BmRFLtojAkXkhYdlSHfQpWtBx7WayI182oMSGX09BOGQS4R9GWxuF4YRM59Z73lMrstOMSj8yfvClkQU4Z9U6Y1Ean2UiUejbbjhsVE90msbkGaMaaIyx6CQRT1ySKrryHYIYKLGIkw4qQcKIZqroSgdVXmHaKvWHMciGTuNHueoJ7YfhymdWXXGlVdyTh9JKMglwEe8XMftNcf0PCpXIt/e9oMj6jGWyYrFOGeqlJST1nCaDt+0QcvpBhy3nLD7zr6xX1cqYIVBFZDLLTRegUW8pVXCkCfjziA62tpYasJjaUXcwg3kBhm6hrDMlh7UjMgTgtmeRYRHVMSY6ydY96yx/n3SS4lRkcuOZkRSreIyJN3JcDr7zp9HCoxQ0/MCSJJels69mc1KiPxnugjMhHspjAi3yTEeSxIIZQ3ukjE3+fSe8uHwtzl8yZWEk5027abEqZIkno0066bNNMcDVAgN08FITDipDSUIP1B7ty47Cg5WwnA7RRVB+heSH4EtnVClIVCun2hcyo82vGz93fC92W62gLsYSAi0rlifLY+H9LS+BTF042Ue8jLDMuO6WqD3l6d09ydFrSgP2sNoPX4lzTk9WAOpRJXPhoCbWuUG5UZwEZH7g862yiyyuIwJuSWcg3pD72pKUXcl9AzOltBm9kJDN8woRrSGo23EOel3h2ZFbEm7hkb1+Hrea4HHXHO5IzLUjMjjW1jHEDLnkiutoM5Ptl/dMVjdjZS57gL6hmBLdCaWWYOjkkHqyY0RkZHV1apIarYaATDJDlNBUaOoPVUJwP0Jh+rmNBaFoPVDjiA1aT2w1kM1IayUN5DCUEXNcoJnw1BL7KhvLp3kDWggqVGSF2kBIcvq9IcyRgg5kj5h27sHA5LkuA/r0NRJLoYpJCwxSRkBuDEQCZaIcpsLiRViZTMLQ80tlxiM++aKWYofA5IdqZiA6y60YQpSFY/kzjSm1pcb9pu56K6DLkOSpCUmpUKkWsR4cdjpUwypRFu7jkpdB49HeD2JNCRi9ggP1NgyFIWnq4lAnXCBSpBDtckdrkjtckG+8Y419X3DMSU6I+P2joaxKQZIxhpsJrmo4+3cOMtOBKUpLVaErKXTR3ROhPxFDDLc23fac1ndpsRRw0MNG60QJ1owRkfdkRqNiFvCG0oLocZZcD1PWuh7GK1YdxFsOYnJILxmzSFUNokKqLJIXBmIHZZA7LIHZZAKFKMN1c9wN47arDeLTzDeIqDOKQ0hnH6tsNQYbQIiLpdjNLD0NaQZbj7rjQOe0HiZebsIxxZLajQuimFOrfZ5rpMRX3DdfBuLPVLzqAxZzGhFvUKDLzTyephlTqmGENFo++ywmRfxkB6/kqC7eeYK1nkIl86k40hqS10qSSidgpMdidCYLhhqE2kJSlPQZ7isb1DSnLieoytp5Bq8mpNjIUiLYRJHQ+wh0pDC2T6plpGYEi7kLDkyS4DUo9CUZBS1K02fyfp7PlznLowX1BNOGOQ6OQ6DbWWsd91hdZaokdMZhTykIShIedQyiwvjMOuuOq6aiYqJKSZKLvclnGnqL6HAt5McQJ7ExOikkopcbl9EqQ3HbsLR6TqSVGCZdMdndHJcBoUWmFu8u79nzryUVZEaTbIGgy1U2hQdigyMjFBKXIj6RmTeWhJISLCY1DasJz0x0KMkk5L+vaXQiUoNOJcLTHn+dXd4s+FMx03pOjsoiM5LoTKcIMvJc0acW0umtkyNT+pTWOWYM9xWMpyTIDTK3AiOhIIiLQiMwTYNCeFf88Y889nzhJqpBVfbRSSMKSZazUlyxi32DSDcWygm0CXIbjR58tyW/pKdNahWw3J0z5QicmfFdrZ7auNAxJX07y0Xy4Gkx3RpCnXImIR+RfVblTKjr5iAkzSdFY9qa0WklpfbNpxz+C/5sERukW7VLeq/ohX8sVTxXns+Stc6lFYrc9qZbwpO7Sb+EYt/EQWeWjTJJnPk6SD4WtMVltw7fnNcGWTGpltBP/EYj4nvL/ykH9lHvMVz5Rp0eSw+znc5l9+Cf+zSI+qPIjOpfY0ntcxpz+C/5xvzaITu6JSuGOMEa47f2d5HManNGxMZXwOke8tVFvI/vN/CMW/jCa5jukx3kxVqNa9JP1Z15zvAIGmJF/t7y8TxVYV/HVDrqCEIv92uKv8AFG1sG+Wpf8435g0nptF/4jAI3DE9ozmFybAV7nGz0OkJv4Ri38YLfAzpkJ7qrU/qTqOWvUvqcdHA2MUa4YneS0cyMouExKRwOdENvhRriZn2vW6Rviq/lF/Okt59B/QpTnNebQbjlRGKHX+0ZHB7fWKI0qjO8p1JkpOp/Uppf6hiCON8vtpatc+vP76utpcJxlaDCG1qDEckaISa1wGezxNHnmmUyMirGQ5lscKy4x83OBOWpDOUwFnEs4Mrovo3Z54WklpdjqSNxhKVKDEbd04mye7WwTxQl/yifnZLpsXuFAwqu7TP9qzSq7PIECRwH0WJf6xgid8jov682HuncXRjlcfFpdz018GbMkS3eojMjxa6d5+lxCKZFdQppzTcQ3dMKM5KfhsIjR9ZfhV/zifnSW4tZLxMoWo1KiMOSZFPBRXwfapcduVHvK12tmCFL3dFiX/MMDP/AG9DiEuIs6NaTWhSFdKEKWqppTIyIiIi3gkDPkGUTuKpKl2PADSelrWNzUy4j8VXVX1UiUqBCZhtdE/wJ/eB9ZOsh9LKXXDcURbzxGm7G17ZbV7NjFta+RXSBFlqbDa0uJE/wowLxPVJix5BP4+woLx+SQ+AzgiglGGcfaIRokeOQQneCLTIIXb6xxJoX14PXqenaKTv0cQlxMqjiOm7jzxD4DOCaCZvZx4hFq4cfrsfAH967xWkmWlsLWpai+p4rj/L9vsoEefHvKWTWuBtakGxOIxLUlUQYH4/vUlvPoy+kNfXT1z1lKgRGoUXVxPfW3lgrfFPSWmw/Lcc0YacfcxzHERfcXW0Oou8V3iQw6w4N57hgx/+l3rZbi6D+oyLGidN1tbS9aWklWS6yBHgR+lRbld5eHuqQRmWtPRTLA6ipiVzfudhXxJzdpiTqBKiSYqxhe/4x3pfbqtKuHPTklMmrDKOY9V4xCjqQlKE9Tve5QZlSAiMzrsfsJgqsahQwkiIvdrJpDsM/vhyt116RY2geHheML79bve5Urhoxs/aQt73l0uJuangmY65y7nvWz+nSZ6bQfDwvGAutR7z7zNnOGpGz9vdC96yZrk3cdZtPsKJbPeJPce8byG8hvG/R1xtpGXWrM9xlfLeqraJYN6bxvG8hxBau+zx7/YMOZ5VJ71n8fhmDFpHaKfvbGSqLAO2sDfgZaoiLKKw0u5ZASJeXPKE6xmTVaIWpCoOS2Eco+XsGE5RWmJOWw0FZZBPmKwuzlPPd9k0jtFw0k1uQWuTD96zSL2ioGCyeF7vXEJcbtMXdSciJJjn3SUKUINFYSlUlQzWI72zkFFgLUal4pF7Tc+9yWiejy2jYlUkjs1p36kpMXTXJtejcfThzBIqe/zqXwtDAofBF98zWNyLgvodM/2ms7/OInBKBfU6miN1LECIySo7ChOo4j5T4j0N4MtqddgslHh9/fyu12jLZuvV0dMWF75n8fiiDB3+Ov7+1hpnQpTDkaRjzbC7D/41yJDDkAYdVma+/vJPZKsYZE7Rb++5Ixz6YYO/wWXoMgpkWLcqO/EeiWs2MG8kd3Hkp7pGQTHCeedeVj1E5KW2hLaO/wA7kbmhgkXl13vrqSW3NbNqZQPci39DOgxprc7FFb3aG0bMqWzM4uMWDh1mPQ4h+hyqR2i4Qk1LrGCjQPfssZ5N42fC5GXzI/s0hwmmH1m49jUftNz7/tAa4Z4x5zm0/s2VPcmlGz+PxSvf9oSP+YYU5x1Hs2ePf6RgzHKqPf8AN0cVKMDV/wA/s2bO8dsKRnkVXv8AlCOZRjA1f9Ps1+5zbeGjmS2k8Lfv94XFUDB1brb2Vw9yJCuZIxlvm3f9AnlxQ1/zw09117LbO8mu/wDnBkcV1/QJJb2Hfy4kf/uey5U9/wAI2fN75X9Af/C9+XE/PPZHl8tvI1f+eNniP9f9Af8AwvflxTzz2SycGSH/AMIwAv8Az/6BJPcw7+XFvpdexn9A+vmO5Of/ACDAS/8AI/oFovl16j3qxz6Wifqn2KcvgYGUeGGBeTf0DK3uTSDGi/74quKP7FZL4nRlHhhgXkv9A2gP7o4xdP8Atrj3sewqPcTiuJYyjwowI/8Axv6Bm0nnXAqoxR0VZ+xT18MfTJi/4hgB/wDl++mZEHZcZoP3tW2mc92iZAa50whXHuf9hs1b3NMiLfXDAHkFGIyP3hbiECTdVjAk5dBQH8wkGH8ktXQ7YTnRxKPXGWuKQIh8Mj2GQrje0vS31oIzINWE1oMZHatBjMJJCNl0JYjXdY+EOIX7eZkRTLquiiZmDZCXktm+HpUh7ucfZ5cANnuWX29fKVwMa2xcVf1sypDIiZLZsCHmCDOHd1soJUSi9onWMOEmxy8TLafLV3bSDcdZRy2tGj3tevs1f4azi4ofdw7WfEOvy8xAsoc1Psk2WxDauMqfeDrrjq+9x5nmTtYZ743r7FW9/V4t7Sv5d424ttVPlMhgQZkeaz7DcWLNbFtLCRYP9/jTRJia1p/6PXunxOaq/i+W57vqyfIr36Szas4vrzGUT1TbPvCbWYNtwtYUx6KuvmtS29Ks/wDD10pXCxqf0K1twf1MElRjlOAyMu8xueqDZke8vXS/CqM1K7phhTgbZQjVbSFh+MaNIzzkd2vlIlsCrP8Az9dZK3M63lkazDaFLU1FQkEW7RSSUTsUgojSfcl/KAZqheul+E7qKzxn1SmdKuWcSSkyUms/P66zV/s0vZvZ2A0g3FNtkhPTJaJwjLcfcF94HgvXS/Cdyw3zFkW4upYkt8ChQTkciveaOSRkfrpiuKQFqJCZ8g5MkvvHb5bfUYlN8Se4L7wPBeul+EFawmTLm1r8c+qG3wN9ag8jjRoRmETJSA1bWLYTkVqQRlNgQTlkoJy4Iy1gzTlMAwWTVYTkVWYK8qzHxqrBW9YZ/EYITOiKLtcYdrjDtcYdrjDtcYHNiEXxGCFW1akzuasHeVZBWQ1ZA8nqwrKa8gvLY5BWWpDl+8pSruWYkWct5AhN8S+5fRwOdMaI68JrRMvF94HgvXS/CCi8yEutjviTUSGw4hbZ6NJ4nO4V9hJTwueh3mN5jeY3mN5jeffRU8LPczU/4aJSpRsV7ywxCZa0t/Fl94HgvXS/CCi8y1cabcKzrozccQS3u9wrSaXshFvMvt3Lxb2xXoQ5JQ2hBa23iy+8DwXrpfhBReZdF95aK/79wrSZ+L2Nn8vcK+wV/EV3jOi28WX3geC9dL8IKLzLovi31wr/AL9wekz8QShai4VeuJJmEx31AyMjZ/L3CtFfxP713i+i28WX3geC9dL8IKLzLos0ccEQlbnhId5SSku72l8xGr8lXFHfM1CaemPN7oRpSYOOwoKgxTCqyGoHTwwqmjA6NgHRoB0YOjWDo3B8EeHwV8fBZA+CSB8EkD4JIHwSQPgkgfBHgVG4Co1AqMFRoBUbAKljAqeGE1cIgmFEIFHYIEhJDcLNHLnJPcaT3ko9yVyXDOI9zOiU8bYTIcI0nvS+e5oVCd8rotvFl94HgvXS/CCi8y6FFvKW0bMlB8KkK4k2GkL8GhhX8mPyh9XE4RbzhN8qL7BkbXDIEJfE3I/CIH5dZv5Qz+OavSmb3N9Ft4svvA8F66X4QUXmXTkUbcoQ3twsP5CH+AGe4GFfdj8sp3cQpI3Pl+w2sftEQMuG2t9RKjCB+TQzEz8oSskMKPiUhJrWwgm2ui28WX3geC9dL8IKLzLpfaS81MYXGfC1mrSMe5nfqr+ST3GZ7zbQpxdbFKLH9iu4RtOAlmSBA/lxazPyhSjPSqjbuq28WX3geC9dL8IKLzLqsYaJbUhlxhzRqQSUk+0Oe2FSUg/qYQlS1VFeUZPsco0G1NiqYXow7yzKQ2Oe0Dkth5fMVpXwzcPqtvFl94HgvXS/CCi8y65cZqS3Oq3mB9uqHAfknAgMxS9jedJIMzMzIlFKrgpKkH0ttrcOJAJBl123iy+8DwXrpfhBReZdy/Djvh2kZMKo1gqNwN0bZCPXxWfZXXulbaFk5XsKB1Zj4YsJrA1AYQEpJJdxbeLL7wPBeul+EFF5l7itZJDjpr9LbeLL7wPBeul+EFF5l7epRJJx8ff01t4svvA8F66X4QUXmXtqlpSFvmDMz9RbeLL7wPBeul+EFIZJsScQftRuIIKkBTq1ertvFl94HgvXSC4mH0cp6G5ypCVEpO8wTiyBPrIFIMdoIc9AJ1scaRvL1W8hzEDnoByCByFA3VmDMz9aoySU50npDSTW5ETwRvX5nVqjzBElrYEeQ08XccShxqHNcHOWOesdoUO0GO0DtA7QQ7QQ7QkdoSO0JHaEDtCR2hI7QQ7QQ7QO0KHPWOcsG4sbz9jffbZKZMW/ph1Wcub7BJZbkM5Bj78FYIzI2LF1AZnMOAjI/fj+genMNh+xdWFGajFDQPz1xY7UZj2EyIyuMYiyzsqidBPRt11s2rJ1IbsWFBt5pfvDjzSA5YsJDtm4Ycedc1rqmdOOnxiNFCUkkvZFJJRWGPV0sT8TltnKgy4ytUPvICLGQQRZkEWEcwiQysby9s3kFSGUhU+MQXaEF2L5hch5fRGhSpJwcTmOnXY7XRAlKUl7StCFlMoa2SJeHtmJOMWjQehS2T6CUogiS+kJsJBArNwJtEgrJgFOjGEyo6gTjZjiT6reQNxsgcpggc6MQVYsBVoQVaOBVhIMKlSFBS1n0sw5TxxsZtHhEw5Ih0FZGCEIQXuCkpUJFXAfD+LVjhv4cQexOxQHqK0aDkSU2OE+viMcxwFIeIdrkApskfEJAKykD4m+Pibo+JuArRY+KGPiih8UUPiih8UUPiax8TcHxN0HZPD4lIHxCQDnSR2uSDkPmDdcHErr3GG4klwMUdo8TOJ2SwxhxCPitY2cerr2AlCU+9mlJhyHFcDlHVrDmLVSg5h8Mw7hphWHziDmK2qQvHLVIXTWaDVWz0hcaQgctwcCgZGXfERmOFQ5awiM+sJrpygins1mjHbVQbxa1UE4hOMNYce5vD4hBvFapIboqtAbhRGwSEl/S9xDhSDaaMHFjmFQISgdZXmDqa4y+DVoVR1ih8Bqx8Bqx8Bqx8Bqx8BqwmjrEj4NWgqmuIiq68gmBCSCixiBNNEOFI3F/wDoUtSUJ7ZEHbIgafYdP3CXNiREv5dUNmea1+9rMalaoNpAnF3jrzTJSMkpmTVmVUR/OlaGswqFnEu6qUCMjLuXXG2i7ZEHbIgbdbdL0WZfremzrzn26S+1GZvMufeN1xx1eqTMjo8qlxFQZTEyN3FtbwqxFpmE18SJD8hzpgWk+CqozJKjjPsyGuvaR5Xps18H6LMv1rTZ15x7a84hprJbt21k9ePXD9TKivtSY/VkmVk2bzi3XO5qrOZWvY/exbVvq2keVabNfB+izL9a02dece27Q7E0N6R2HZD1ZhZmksSpiKbhkFxNxUy6t7TZ3KlcXQZ7iy7IzlK1rKawsRDwk9zWH1CS+U6UP4ZXLE/DZzRSo0iK7ow64y7it+izR07SPKtNmvg/RZl+tabOvOPbcpkdpvtMNqUQa/WzhMT4curls2dJh5EGGmmGujOrvh1Zacedx7E2WEpIiLpnQ401jJMZegax3nGHsbtkWsDo2keVabNfB+izL9a02dece223moa3cxrh5fRwJ4+nIbEqysdWp1wISpa8VokVbHcH9RmWP9l1x2yXV2SFJWjXaR5Vps18H6LMv1rTZ15x7blEfs19phtw3Ohd1n87n2emAVXEfdOIS4jJqw6uy0wKf2mp12keVabNfB+izL9a02decazp8SCXzBTD5gphEksS2dXnW2WvmCmHzBTCDZwZq9DMiL5gph8wUwiW9bLeFlc11eJGbRiMs4VvjZpBWdfZQZ6dZcliIz8wUw+YKYN3tS451S5LERn5gph8wUwYuqt97TaFWm41o06405TZipJQbCHOR1vuE0zLeVIkiM0p+RBjIiQ+7zmAUun0wSTyL3XaR5Vps18H6LMv1rTZ15xrtK8Ppgv63rknkOmzfzHSR+DTCnEM3uQ5W8+ajM1atOLacxzLD4knvITI7cqLZxHIM7TE7L4lVdO0Cy50zTZ7W716OoQ43k9E5Vv6tuLaXV5bYRhU5BXWPVlz3Jx7TBY/Pv8AvHkJdaktmzIFa6bFhrtI8q02a+D9FmX61ps68412leH0wX9b1yTyHTZv5jpI/B0kRmfRhF6aV6Z/V86NpiVn8NtS6LmciurXnFuuiDGclzIEZuHD1ebQ81fYitJutuNOakKPKJkEV82NOja7QXOCi02ap/6+9ydJIv8ASIe+LptI8q02a+D9FmX61ps68412leH0wX9b1yTyHTZv5jpI/BrVV8mylVOL10NCWWkk/EjPov8AEW1IWlSFhJmk8XsfiVSHUJcbv69VZZ6YVZ9uq9doNjzpmmz2t3J6rGthWCLTC1kJ0GXCc1pbORVy6yazYQ9No3k2mzU099lf7DpU7/hem0jyrTZr4P0WZfrWmzrzjXaV4fTBf1vXJPIdNm/mOkj8GiEmteO1bdXX9Gf1KeDTZ5L5Vlpm1X26t0xuxOstUmSki4mor659xbzorYjk6dEYbixu4eaaebu8QZcKVHejPaYHYnGstM+bJeP6bOHCTY97evdotwkt5xk8MfTaR5Vps18H6LMv1rTZ15xrtK8Ppgv63rknkOmzfzHSR+DTCo3aL/pnx0yoa0mhYxx3k3mhjLqz4baaYHZ9qrhtBsebK02e1vAz3eTU7VrDWk0qDS1NuxXSfjDIWDk0umLSih3nTljNxGHx64Hx64DWQ3CHMfuGLaLpeSyg1R6UUftVvrtI8q02a+D9FmX61ps58412leH0wX9b1yTyHTZv5jpI/Bps4806rct1qIfi9cprCs6syMjFHPVW2VjYMxKp91bzwqYa59hGZRHY6ZNhBjEw62+z05kwljIdMYXx0AP6i7iHBtAQxixKxqeg/qWXY5yNYEt+FJx64Ytoo2gWZOv6bO4fMn67SPKtNmvg/RZ05wY9ps4L/wBTXaV4fTBDI8c1yXyHTZt5jpI/Bps+eJu76VGRFOcJ6YKps3rLozms7HYaP2cl6r02fVvKi9GWX9lAspVtZSQZ7zwt7nY9052ZHkWmLo4Mf02h1xqRpjNsqqnMOtvtdOXY3wawZb8KTIy9k6dalLWEJNSsdryrarXaR5Vps18H6LaRI4YumzVr/HXaQn/z9NnTpKqdcyf5GPabNkn2vSR+DSslKhT4zyH2OjMbAoNPphUftGQ9F3ARZVrza2XdaaCuxsWW0Ms9G0iMfHps6nkh3okvtx49lJVMnBtJrXDa5ETSUw3Jj3de7WWGmMX7tU5DksS2OnLsb6sDpzde6NpHlWmzXwffXF3DqnIkliU0JkliJHv7FVpZaYXE7LQ65zHN+g0xG0Kss0KJSdM6tkTJOmzqPwVmkj8GuH5AUA21pWjS0nxq6NeWbtrO02ewDZhdO0Cs5b+uAVvIhdOSQfiFOotxhh1bLuO5LGnt6S5LEVrKsgVZnphEDtlx0ZHUNW0OXHeiyNKqzmVr1Vl0GQTLrTyNbC4roJX0qLNsdcZqFW05hptlno2keVabPJEdiJ8Qgj4hBHxCCPiEEJnQlK7iQ82wzdT12VjHkPx1/MNyJk2VMXpjtauzs0pJKdX20PM3MByusNKm+sa1PztN4bLJrOajSIw7Kk1cREGBpI/B0VlvYVwRms8ikZlZuIlypEt7SgrHbSew2hlnpy1+OzQ6UVeqys2kJbb6s5pziy9YltYxE/MNyJEh+QvSKw7JkUFY3V1/TkVGxbM2UGTXydWXnmVIv7hCfmK6Ei1sZB9NbOkQJVDbx7aL0bSPKuut8x7jaDZ7i6a6DJnyaCqZqoXTkdM1bRZ8OTBkdLDLj7uJ0BVjesj8GmP16bOxtq2VWyemorZVnJpKyPVw+rObPtllpgdb2Wu65DLb7OS49IrHOqBDkzpGNUTNS112MCLYMXeKTIgMjI+uHEkzHZWIzmK3SvmSIMrH7mPbRtdpHlXXW+Ydxa1MGyTYYXIQb9BcMmqunpUzRWzx1mGSFqrYESvY67KviWDFlhbyVP0Fwyo62wJbVFbuKr8NmuKqKiDWI6JH4NMD/YpsSPMYtMMWSn6G3ZMq+cZx8fuHzq8LPfDix4bHVlFl8NqjPeYxyuOytUpJKe4MiUVtiUGUczFLdg3aqzbCK6es4+O3D51uFnvr4UWCz3VnTV9gJ2EnvkYvctBdRaIBQJpm3SWzhxcRtnTr8NhNCLGjxWhl+OcwdimDsUwQUWkKTR2J2MTTKap23ifJEsfJEsfJEsfJEsfJEsfJEsfJEsRcNksyvYZH4NMD/Yu9zGy+IWumD1vYqz+rSPwaYH+xd5mVl8PqtMYrjsrUi3F/VpH4NMD/AGLuzPcWT2Z2drphNb2Gq/q8j8GmB/sXd5zZ9jrtMVrfiVsX9Ykfg0wP9i7p1aW276eqys9MOrfh9V/WJH4OySh2SUMHYfbyDus7mPJh9klDskoYrTuzLb/+OS8uo1QKO6jW/e209qth1OSwrKZ3jriGkNONuo67m2iVLPzrWCjuY1uWlvklfWyfnSsFbLbnQu4l5bXxpTDhPM+pscqrYUv50rBGdJ+P6jI6RNyMcpE03e3leVnX0eMIrJ/ebRlKKm2cKUdZ131PGt2skxtirrtmn49LnGYdlLyipbqJmIfrncTsPblTIzfJj+pssThTJmQwEVlnUeVeiuJV83LYvLVlpMG4lJrL60rH6mezYw8tVYoqnJF2hOz+XKkWQzddoiN8StG3HptxbvKRb1asUyVU13ptO0lXOv5Bx4xPnOXwMXky8anlb2zjDkO3hpwzIH5L4zHIXob6I9xYkUq4rF4BPlSkWxySrbFyzWUJdilHNvhhy7FdVk0qTDpjl3VgtUC6hoxDIpLkzTaB5Bs0/HrtH80xD9c6svXYoqubfByTdtp2fypUibenMTUvzrhpeJOOO49kD9+mywqbMevs3duUTo1zZsP77i3WiRb1D2L3ybZvOZNsxPgz7pyQfP7FMn3Lb+DSbZ+fkNmmqrnp1xbPri3FeVJdWS7sZVk647yGLizDFjb1TybG0WvCl2S68Z3+x1HlXos/8gwStamzhnNYzIrdm76imjLv1zZx5rpfJNWQU1czWwX2m3mryJ8LuobvPidK/wCGKfsWm0rw2zyHH7A4klIxr6ZGM8rZDdnAyyzisvZTDsY2KRaxiCNo/lGzfy7SznRq+LKzOUa0ZhajHT35BptA8g2afj12j+aYh+udxmn63s38cNpHmGG/rVx5Tgn7E/8AhqInbrOLHZisWcJiwiVKlwMhtIaJ8CrkvUt2bzRRp7791d1sRuFCzSvesKmot59QqPmzwx9vH59vZvKj1uNQk2Vy2hLaMhrmbGtxT9i0zv8AY6jyr0Wf+QUFq7UzGctp1tZRknxJrZ7XuMsy50OIMnta1+iwSXGiWLdxVuLGQ+fUWXNJj2GX1zTUdqXe3DaSQ30SZDEZtd3U8GNutMXvxuoCFpWjaFLiyG9n8uMislSGIzVA621fMuIdbcyyU3dtsY3ZIyaqx+ND2eOuJuBtH8o2eS4zcaTZQIyGMqq3p+0J51Vxi1RSOwLZzFYqKR1pq7iyWJTcqxgxV5rZQJVLgE6HDQxa1r7oXcVaF53LjS7HGLWtYook6HL7jNf1vZv44bSPH4XMjHj+RZDXNQsNfZjXrpkqNHdWw/WZhBdaucwjkziEB6fcjaFW8Dp3rp43s9reJwZndy6xdZZU11HnUmNct40RbF5spMP/ALKK4hZfWOt5Blrb0bFP2IzIiO6qSGYyGZN7WXNUiuiS40tHoc/8gxGmi28dzCXuOrxCFGcItxZVjkqynfJ1sPk62DWGWZrZRy2blJKyWfhbC1R8JVxVNZDrGenLaZ63j/J1sPk62BYba76WvOBUP4bZE5WYjYNzcsp3beOWHWu/Hq9VZWTsOlPT3sVumziYnbuqx6lj1DItITNhCm4jaMrYxW6cOkxFuLIyaibt23sXum1wsQtHTPDrUYlSvVDeRYvNmWfydbD5OthAw+wTKeRzGncNsyX8nWw+TrYYrjkqtndean/+N7N/HDI6du3iO4tdIcjYbYrSnDbU1QovYqfHYzMy5l4SXFDwlBKhRY8OOLhph+shR3JcqvitwoYy2hetlysPtWg3jF2pdBiZRnxb1MK0bfwlfHCwyM2MXLdktnG7ZXrw21JXydbD5OthiVE/Ur9DlWRJsGMbvFU5Y5couGerJLpFO3KlG/ZQ8zS7I9tyG2RURPndYvr+XbIwWsdhQOnJsiTWP1Mw4FjR5Umwn6ZBkyaubeZS9ZQMbsmquey4l1rrP7S80InKyZ2Kyx24RcR/SyMZp33vlSlFbXQ65rqs62HZN/KlKI2NU7D3tthCjT2PlSlEGhqobnVZ01dZOfKdKK+hq4D+llSVti78p0obxalQoiIi7h/GKZ135UpRW18SuZ/+4//EAC4RAAEDAwIFBQEAAgIDAAAAAAEAAgMEERIQMSAhMkBQExQwQVEiQmEjM1JgoP/aAAgBAwEBPwH/ANOAuhE8/S9u9e3ejC8fSLSPH20iaMf5WKxWIWKc0W5p9suSt4yOmc7dRwMYqyK1nBUb/wDHhqn4sVLFm/mpImO+lJSEdKc22/hwo4y/ZRQBmszc4yFTuxeOGrd/VlRNtHfWSNrxYqWnczw0UWZ5pjA0cAR/l6HBUG7yoW2jHDUU+P8ATfCRRl5TG24qgWkKjN2jgdzcmjkjw1MOJyG3ggFFHiOANVkVVj/lUH/WNTsmc3jSyLeBzQ4WKezA28DTMu66sgEGqyc9rN06uaNka5/0nyGQ3KEjh9r1H/q9R/6vVf8AqBsboVsibXD/ACCZKx+x0xVtKtnLLwAVNHZiATntbuU6siH2n1wt/K/uQ/qZRk7oUka9CP8AF6bfxYhYhYN/EYWH6RpY0aP/AMSnMdGVFW2FnoVkZTZWO2Oj2XbZOFu/YLlPq2R8gn1Uj01j3oUchXsT9lRxhgsPjc0O5FeyvsU6hkGydDIzcJlRIzYqOuaepVAGZt4HmE2qkam136E2qjd9rNp2Pxkgbr3EbRunV4/xCdWSFEl3egJlM53Mr2rUaZhTaYA81iArBGJjt06lH0U6OysQhI8faFVIhWOQrf8AS96Pxe9H4ve/6RrT+I1b0Znn7XMpsZKbTD9TYGBYhYhSU4dshSt+0aZidSkbIgjt43YG693/AKQqgmPa7bgfIGpzskGkr0SjCVisAsE2Np3Xos/UWNWAWIQiK9IosKBITZvooG+rnBu6NU36Xu/9KWX1Ee2ipcm5L2jU6k/E5jmHmoJsjY6SSW5BcyU2O26dI1m6FSxA32Uo++OMc9HVDAmzNcnRgoi3JMeWoG6mlwC/qQptJ+r2jUaMW5dvSm8ehU3QVT9akdiFuo2W5pxsLpzsjfSmf/VlL08cWyqXkC2sLs23T23GkT7Gyq9wqW2KAVlIbNJ7eifY46zdBVP1hSOuU3fRwuERblpTN/q6l6eOHZVTeQOsDcWaPFjpOb2VL061clm49u12PNRSiRt9J+gqM2dpsg6+kkLXr2o/U1oaLBSOuUTZGRZlZlB5QddRusVunUwOyZTtbpeycbnR6pOjRzg0XKlk9R1+4jkLDcKKZsim6Cm6hxCEo+1m39RkaE6S+yc+yJJ4QUH/AKmyEISBZt/UZAnPLtXqk6E+RrBcqaYyd0DY3QqXY2KbvxvNh8MZ437plQWMxCc4uPPvW78cnws345N+/HG8XCt8DBxu8A3bje3ja34D4CP4HjSOje7meSfQuA/koi3IqMfA8o+AaefwtODrptbGd0a2JTSes64QFvgfv4EfDZYBemEBb4T4Ibdm7bwbduzf4IJm3ZyeDZ2c4sfBBM27KFtzdVHX4No/jsoxZqqOvwQWFo7di0XOk/X4KJt3WT+Y7GEc9Knr8FSjmSrdjCLDSq6vBQCzNHb9g0WGlVuO/ZAXL2zf1PgcFHKWFA3UnV87Bc6SyBgTnOkKbT/qNN+J8ZZv3VlDHlzPBPHbmqaS3IqXq+eEc1spHl7lFHgNXDIJ7MT2zjZB2gF+Sa3EW4HJwsrrIrIrMr1CvUK9Qr1F6q9VeovUK9Qr1CsyhI4bFZuP2oGXdfhmbcaXRcht2T9G7qHr4SpursqbbhdsjqNuyfoN1D1hOdbmmSh+2kkgYmvy5qY3cs1mswsgsgsgsgsgsgsgsgsgsgslks0HXVMeSfKGbprshfR04BsnHknajbsn6tKe/KK6purSp+lG7Ft049i0qF+JVT1Kn6FdP6lK/lZOOo27J+rTZXULg0r1GqZwO2jj2TTpFIA2y9RqcblE8A27J/AHLNZBZontMlkFkFmjz4Bt2T/CDbsn7+EG3ZEX8GB2uKxVu8sVgse5sFiFgsFiVYq3zWVisSsFgsB4aysFZWCsFZWVlZcv/ld//8QAMxEAAQMCBAUDAwQCAgMAAAAAAQACAwQRBRASMRMgIUBBMDJQM1FSFCJCYRUjQ3FTYKD/2gAIAQIBAT8B/wDTbpzg3dOrIR/JHEYB5X+Rg+6bXQn+SbI12x+PuvHRVkz2ykSHqjN/S4zlxnLjlR1B1dFFq0DXur/Fk2VTisUPt6qpxOebzYLBKkm8RWOQbS8uEQcWe58LF6ngw2G5UFbPD7XKmxtrukosmSNeLtNx8RUVLIB1VZiL5eiJvlQS8Koa5YnHxKZw5cCjtEX/AHWNy6p9P2zp6qSnN2FUeJMqOh6H4asrBALDdT1DnuueS9jdD/ZD/wBhOFjbkw1mimaq1+ud55AbG4WHYpxP9cu/wlXU8Bl/KnmLievNQO1UzCqpumZw/vkiGiED+k83cTzYXX8duh24+Cc6yr6syvvyXzwg3pWrERapfmz3BS/thP8A1zxSuieHtVNOJ4w8fA4rUcOPSPKJvyRQSTGzBdQ4HM73myZgUI9xJVPTsgZoYnUkLjqc3qv0lP8AiF+kp/xC/RU/4p7A9padk/A6c+02UuAvH03XU9JNB728uCVOl5iPn4HE6jizmyuo4ZJPaLpmEVTvCp8CdqvKeiJhpmfYKbHIx9MXUmNVDtuidiFS7+SNRKf5LjSfdcV/3X6iX8im11Q3Z6ZjFS3c3UWOA/UaoqiGpb+03VXggedUPRPwapbsLqWlmj9zcoZeG8PCa7ULjv5XaWEqDCJpzqf0UGF08Pi6fPBAOpAT8apm7dU7Hm/xaqmqfUu1O9OKR0TtTUzHvyamY5Tu93RR1sE3QOU2H0824VTgcjesRusOLv04Dtx3t+QgHopsKppPClwD/wAblJhNUzxdPiez3D02xudsFHhlTJs1RYC//kcosHpo9xdMY1gsM790SpKxjegRrn+EK2TypK0ubYIvcdytRTKiRuxTK4+QmTh24V2FPpIJN2hPwimd4RwOLw4o4D9nr/Au/Jf4F35oYD93puBR+XJuDUzd+qZRU7NmoaG7J07Wp9cfATquV3lF7j5WoqKsczo7qnVz/CFbImVzT7k1wd1HbFTRmQWBX6AfdOoD4KfC9m/IyIuTYw3bKy6rW5cVy4pT53+Av1Mn4oTSHdcVy4jirnMtB3T6f8UQRvmyNz9k2hcdyv0H9qGnMXntinSWNlxChIrh3RVVMGDU3KKK/Uqysg0lcM5H0eGU5hGckYcE4aTZU0HFKDWsFgjIuIVxe2Kk92V03dVn01EzUUBbIIC2Uo6XR9CIZvFjnNHqF1QbFSbq+Q37eYec2bqr+momaW5hDKQ9EfQiPjN5ueSlbpLgpN84h1Q7Yi6c3Sco91OLstyteQuKib5AXQhC4TVw2owhObpzEpRkvywqXfIC/RMbYdw5t05hCZupPbyX5GR36lBgHKWg7p0X25b5wqb3IC6YzT3VkY/sn7c8bdR9GZtuvPDsnR3N0G271+3PB6Mvt54du/dzxu0n0ZnX6c8Y6fAPFjzxPA3V78z5BbnAuh8BMPQhPXIvXEymPj0IhcofASDp6LX6hZGMrhlewJztRv6EQ6fAn0hK5cVyJv6Lfgnb9mwXKHwUnu7OLf4IqX3dnD8HL7uyJsqQ3Zf4OX3dlUOsLKk+n8EVIf8AaR2UztTiqT6Q+CK4mqa/YvNm5Uf0vgp36GEph/d2NS6wtlRfTV/ga93QNQ3Q7CoN3ZUB/Z8FVP1SHKM3aOwcbuyoNj35kAXFQfdT04kHTdFpb0Kh9nrymzTlDCZSmRtjFgjKhKmuv3b3eOSN3hVkN/3BQdG29eoP7bIdeihjEbbJ7r5g2TXX7ZrbhFpyKPKNstIWgLhNXCC4IXBC4K4C4C4C4IXBC4LVwmowsO4QiYNgpD05Yz1ysUGI79lHtk7ZP25o/b2Uu/KEM3b9lHtkU8dEBdOYRk1t05tlHshGuGuGVoK0FaCtJWkrSVpK0FaCtBXDK4a4ac2yl3QaSiLZBhITR1Td8zv2Ue2bgmizlJtlEpG3cmt7FwuE9two9lJ7shso29bpgzO/ZR7ZubdeVICQtJUbSMmst2T2fbJ7TdaChsg37IC2Z37KPbkLQVwytBWgoNA7QsRYVoK0IC3Id+yj2+EO/ZR7fCHfsmusgfgnOt2myD1qCv3hIXERcT3NytZWtawtQVwr+tdagtYXEWtairnK3wVyrlXKuVcq5VyrlXKuV1/+V3//xABNEAABAgMDBggLBgUEAQQDAQABAgMABBEQEiEgIjFBUXETIzAyYXKBkQUUMzRAQlBSc7HBYGKCkpOhNWOy0eEkQ1ODFXCiwvElgKDw/9oACAEBAAY/Av8A0cxNI4x9tPbHnbZ3GKeME7kxgtZ/DGlfdGLyh+GMJkDfGZNtH8UZq0nt+0FXl52pI0wRLJDKe8xxk04e2MSeQq26tJ6DApMFY2KgNzaeBXt1QFJIIOv7OcG3i+rR0QXXllSjrs4thauyMWwjrGM95sbozpvuTGMys9kYTC+6MJo/ljNmR2iM1Tau2M6WV2RRaSk9NgZfUVS5/wDbAWg1SdB+zFVGggjheEVsRFJVpLY2mC8+srWdcBI1wHJgBx39hFAKDkrrzST064FFVQrm2BpCgtsalQEzTamjt1ReYeQvcfsoVurCU7TBRJp4ZXvaoPCvm77qcBk8C4auN/uOTUs6AIU6rRoSOjIvNOKQegwEzSeGRt1wOBdF73Tp+yFSaQWpbjnf2EXn3SR7uqy62kqPRAU+Qyn94rc4RW1UEISEqRimKQ25qrRUV5IMpOc58rL6xmIxijjKTFZV2nQqONaNNuqy8hRSdogNzg4ZHvaxHCS7gV9jS4+umwazBQglpn3RrsuNpKlbBAXNquJ90aYusNBPTkLpzVYixpVakYHklgc1GaLEV5ysTbRQqIvNcUvo0RxiKp94aLA6w4UKEBmb4p3bqMVH2KLbVHH9myC6+4VKNl9XFtbTFGkY+8dOU29TmmhselyfvDkVuE0uiFLOkmsNt7TFBqybqgCOmC5K5ivd1QW3UlKhYGJolxnbrEB1pYUk7PsQqVkzV31lbIK1klR0kwENpKlHVAenM5epGyKDLdT0VsQPfF3kXPvZthX7qeQuuox1K1iMc5vUuzSVMnnJgPMKqD+32GVJyiuM9ZWyKk1MBplNT8o953WrkBBELRsNIaXsUORZbrpNbHHNppyJQtIUk6oL0vnNbNll5Jq2ecmEvsqqk/YTxZg8ev8A9sFSjUmAyympMXE4r9ZW3kRY6OmtjShrSOQbT7qLEfex5KhgzMuOL1jZYKmrKucIS62q8lX2CLh555ghTzqrylHGEtNCqlRdGLh5yopyd73k2MdXkHOgCxlP3eTodEF9kcUf2sEk+ril80nUfsCpxZolIqYUv/bTggRQRw7qeOX+w5VpXRZuURyD/XgDaYQNieULaxVJgo9Q4pMVEcC6rjm/3H2AEg0rFXPs8adHFt6Ok8lhGNrO82OI2L5B1W1ZhvrDli2eeMUmChQoRCJhGrnboQ8g1SoV9vOPr0IFYcmF6VmEMo0qMIZQMEjLxjCMclB2KsmB0jLO6FHphkfe5cTjYwOCrFSLhxTij28iSQednKsVOrHQjLwycYz3kDtjnk7hHAobOmtbFhoJN/bHOSOyPKj8seWH5Y8sn8seWT+WMXE/liiriuyKw28U3gk6IzwtMYPAb4zVg9uVjlLZVoUIW0rSkw1MJ9U4whxOhQr7cKjoEPPVwvUEIaTpUaQ2wj1RkZsacjGKXr6tiYo0kNiOMeUe30GqFFO6PKXxsVFH2ynpEXmnAockiZSMFYKs4FRzmjTs9uOqBzlZosL55rQ/e3DDKvOHHUNsc64j3RbRtClHoioYIHTHGOoSOjGM+YUrcI0uHtjzZJ3x5qiPN2+6KcA3TqxhLt/lipl2+6MZZEeaojBBR1TGY44kxxczU9KYzQlzcY41haey282spMBqZwV72XjY63rpUWBsnNdFPbjEqD942XzpcNciqiAOmMXgd0cWyo744ttCP3jyl3cIvOrKj02VQm6j3lQFPVdV06I4ttKdw9BocRGeyK7RBVKrvj3TFxxBSrYbAlL6qDVGNw9kcYx3GMSpG8RxbqVduRjDrequENupNClVYQ4NChX227sRmiABrhtv3RSKk0iiVcIrYmKNgNiKuOKVvOTzT3R4xNpon1UHXFBgPRilQovUqC242qoycDSM10kbFRSYbu9IirTgVYh33hYyTpTgfbSlbBDznvLJhq8aAGsXZZN87dUcY4abNVtG0KVuEZyQ2OmOMfJ6sYtlW8xhLt90CiEgbvScQIzmkHsjFhI3RmKWiOKcSrfGeyqm0W3kKKT0QEvDhE/vAW0rOSrRY817qq+189aU7zGdNNjtjNm2j2w8pDqDmHXlXroVvini7VPu4RxgU2Y4t1J7fT85QG+PKXj92OKZ/MYzmGgdoGVMJUoCqdcZ0y2O2M2caPbGY+2e2MPaF91YQnaYKZZJeVt1Rmu8EnYmONeWvebcCeRwjMeVHGISuOMbUkxmvJ7YqhaVbj6NnvoHbGCivdHFM98eUudWM9aj28jgaVtqCRHFzTnbjATNshY95MDgXhe906fZt3nvHQmCp90ke7qswjNZV2xjdEc9BipaqOiKEUMcI7VLfzjyIO+MGkd0eTR3RnMo7o8ld6sVZe/NHkrw6IotJG/IzFqTuMZswunTGeEL7I4yX/KYzgtMeXpvEYTLffGDqD2xpydMYqA7Yzn2x+KMZhHZGCyrcIzGFnfGYwhMeUu9URnvuHtycxlR7I4xSURxilLMZrCIwaR3R5NHdGcwjugljMX+0FDiSCI4ppSoxupjnojyd7cYo42pPZZeQopI1iEsT5vI1L2QFoNUnQfZS3jzvVG0wp51VVKi6kVJi9MKu/dEcW0N+TeU0kndGHIU4MK7IqpsN7o4qaUOgiOLKHe2kZ8q5vAjOQodmVzjGDiu+MHl98eXX3x5dffHl198Yur7456u/KwEcXLuK3CK8BdH3jFXZlA6AIzqudsZssE9NORz20q3iKJAAyKLSFDpirXFq/aOMGbqIsEg+rMVzCdXsrgEnMZw7bA+7ThFaK6oxcR3xg4jvjAg8nQCpirh7IokUyc9tCt4jOlUdmEZvCI3GOKmlfiEZkw2rsjBLavxR5sTujGTd7oouXcHZHkV90eRX3R5FfdGDC4zZZceRCd6oz1Np7axxk2OxMcY+4qPIXj0mMyWbT+GMMnFNIqjOih5Pnp748qjvgtrKVA9MFvSPVMBaTQg1ENP66UO/wBkOOn1Ukwt06VGtmK1d9ua4odseVvDYYo+3d6RF5pYUMuiYw07bauuJTFGkqcjMbQmPL07I84PdFJhAWNogONGoyqKFYqg0jVGNBGdnRgKZFTBRLJvn3tUeWpuEecHujG6veIo8yR0iOLeFdhyMRjtjHRtyyK31bBFGwGxGc8vvjEk2YExnKJselSfvD2Q997CzCOaY5sc2OabbzSykxwb1EOfPJ2DbF1IsvuKCUwUSgoPfMXnFlR6coGvFnBQgEaDy3ijZ087KqDF1R4RGwxxas7Wm2hi8jFORwjhoIKUG43stwBjmRzY5hjFJsR95JHsj8YsXUZOKRFUHsihsKXOcjXb0a4up0WX3DuG2Lyzm6k2VMZgjTGdjGFqa6UZvKlR1Q44dZtojGNMY4xsNgW2q6oQGn8Hdu22kXk802VhSlnCuAs0YRorGFuMHCDEt1vZB6Fg2LGXe12PWBIi6LFPOHAQXFncNltNQsRLNaVftFOHc4SmmFMLOKde2Aqx5vt5V5X3bbg7bEtoFVKNBA8YeWXSMaaBATevNqxSqOmyoNCI4Jw8an97SkwUmDuhW+ADkY2mDEv0GvsiYSBjdsKdo5F6y8ecbeAQcxv52qNqHHTRBF2uyL/CJu7awpbJqhIu12wRY91OVf3W1sZfVoQqphLrTiVJPTDUs0oK4PFREUtS6jSDCXU6FC28OcmFboVvhNuOQs9FhcpghHshTZ9YUh1kil1REJVsMVyu2x6MdAtcd91MFR0m1WRc4RV3ZWxVjyuinKvjosORRDikjoOUtk+oajIWNVIVvhNlclLe3Gx2ZI55oN3skTKRmujHfZd1pya2vR0nG13pyKQRkUimuxbnvK5VxG1JgjZZXUcm8dJyHRtRkKXsEHfAimTWCruhKE6VGghlgeqnH2S42BnjFG+ClQoRpgK1a4qMk2LTtyHWxppGORjGitmCYvHE2BCRUmG2tgxtvOuJQOkxThSs/dEZks4d8ZsmPzR5kn88Z0oewxRaHG98UZmEE7MhXurzhZQxhiLMBF5fdkuvnqjIeH3TB3wIrk8GnSbPGVji2vn7L8dZTxbnO6DZwa9GW8dgyS+2OLVp6MrRkeNvDqC1T2lWhIgrfcUroy6g0MJkplRWlXMUdVt3/cHNMFCxRQt0ZQaQN/RCGUaBkO9Uwd8Jya69UXjCGWk1UowhhGn1jtPstbDqapUKQW1DMPMVtsDbnYcg2TA6MkpWKgwXJTOT7sXVpKT05V1CSo9EB2b7ERQaLMYYI0XseRYSnTfGReGY7qMXXkEdOWDdKEbTF1tOOs7cl/qGDCcjHTsiqjFBHjcwnj16Puj2apl0bjsgtPJw9VW2y6rFMVSa2KsmOrl0dbCo4p1SIzXEKj/b/NGctAirrql9AjimwnJdZ9bSnfBQoUINDyHjixxbWjfk3VpCh0xVFWz0RxbyVb4/2vzRnKbHbHGv/lEZrYKtpy3/AIZsFt1GKovKNYoITOzic/1EHV7PLL6K7DsitCtnUsWVSaRRwU6YWQa2Pj+X9fQzPyqcf9xI+eWGmxm+srZCJdkUSnIry0z8I2DdGJqYoM1NgbaQVKOoQJicAW7qTqT7RKHEhSTqMKe8Hn/rMFt5BQoajZSuFjvw/RFTMgKL0lvbBQ4kpUNIOQCElDOtZgMsIptOs+hzPUNmBpaFXeDa94xRpFV61nT7UuTDQV064K5Fy+PdVF19lSD0iwbLpr6Lx7Qve8NMNrbdK0uHQdUIb0XlARfeJfX06ICUgADUPRJimyygBJgHg+CbPrKgLcHDubToigFB7XdC0JVmnSLEDak+jSvWMM/EHz9Gf7LJhakJN0ClR7aUnaIeRsWYlztVT0aV6xhn4g+fowT767HnNq6e25hNML1YQ4PVVWELGsV9EK3FhKRrMNssYpaPO2whylbqgYq2sBzWg6fRWGK6BU2NVFCrH22y+NC00sa2ozTyzryRUpTURw/jTl7fF2bYvfeRFarHZGY26qCJeXSjpUYrMPKV0arbyFFJGsQErIeT97THHyy09UxiXB2RxLS3FRgvgke6mHJV5ZcATUE6uXdNahOaISgazSGmvdSB7bUsc5o3rHZUnnC8nlihYqlQoYK5I30+4dMUeYWjeOTzUk7hA4oto95UEpN9xXOVyzzx9VMFR0k1hqvNRnH24to6FCkOMn1VUhh2uF6h9AxAMTCPv5OOSlwpFVmvoDcmk87OVY5NqGKzQe3SsDB0VisMO7U4+gIm0jNWKHfZSA7NZo92KIYR3Riyg9kVbHBL6I4N0bjtsS2nEqNIaYHqpp6A65XNBuphLadKjSGmE+qn261MAYoVSxbP/Gr0BbCtejfCmXBRSYHDqAu4gHXkq4VSUqGKLPH3k4DyfoDzuulBYFqFUtC97emEfdrYtnU4n5eg30Zr6dB2wW3kFChFEu3k7FRny6TuMYSw74IQEtxedWpZ6YS/MpKGNnvQEIFEjQPQGZYa842KfIxcV7eUg6CIdbPqqMS69V6h9CuTDQV064KpR+o91UebFW6KeKLjjbrI6YC18c597R6E7sRmiAkYkmkMsj1U+33vvZ0JVsNYbX7ya+x1uHQkVhbh9Y1hhGoG99gGXffTZLr+7T2O79/NsemPdF37AS7n36WXfcXT2OwwNZqbL5GLiq/YBSvdNkwjYqvscIr5NFLJdrYj7ATA6K2Po2p9jzCvvUhpHvLAhKdg+wE0P5ZsUna2fYxPRDi9qjEunpr9gXh90wd8J6Un2M+5sQbK+6iv2BWPuwveYZ9jOoGilj7mxNPsCvdC+sYZ9ilUOHaRZMr6R9gV7oX1jDPsUNxTaqx1X3/sCs/dhe8wyfYqlQjrWL+IfsC+v3UEwTthB2QD7DO02Ndew/FP2BfOsilhP3IQej2Hd2WNdew/FP2BYlwecamxxXRG4+wiYKttjfXsUP5h+wPBjQ2KWdZAhSfYR6cLU9axwfzD7exMcY+hO8wf9Wg7odf99VYab2mzePYQTstJ2Gx9tSwDe0RgfbGetKd5jPmkV2COJbW7+0cTLITvMeXCR0CM+adP4oxUe+1bvuixHsJSrXLMCRHFzTqfxR5e8OkRx0uhQ6DHHNONfvGZNIrsMZi0q3H2fUmkcZMJJ2JxikrLlXSqM1wNDYmONeWveeRCtazWxJ6fYKjkPdXkOKeWjcYxcDo2Kik1LFPSmOLmEg7FYRVJqPZNZh5KeiCmSZ/EqKuzC6bByiWxpJhKBqFqT0ewAnIdH3TynEzKwNhMXZ1n8SYqw8k9HsUuvuBCYLckODR72uL7i1LVtPLX9SBXIT7ApsyFDog8rfbUUq2iA3ODhUe9rjhZdwLHsIuuafVTtguPKw1J1D0Aua1nIp0+wFHpyDCx08uHWFnpTqMcIjBQ5ydnsFePFtm6kcrgkxzDbVs4axFU4K1ptUPT1HIxgsyx3qipswEcwxiOUbVXMWbqhFfT3eoYJOk8nsEaLcRFU4iwONmhEX06dYsUPT6bTkGXZOb6x22UAjOxMYWYisVRFDyQhknTcHp7vUPJ3lc3LvJFgV6h50BQNQYO708J2C3gkHjF/tZdEUGV0xQ8kz1B6e71DyVIoOQqNBs4B1YBTzawmjie+NI9OVYVHQIU4eyzp5C8NI5JnqD093qGwNK0EGK0vp2jLrrPIkW6TGbMOj8UYTbnaax5cfljOS2rsjOl2ozpTuVGdKuD8UZyXE9kc5z8seXI7I86THnjcUE613x5y33xhMN98eXb/NHl2/zR5dv80eXb/NHl2/zRUzDffHnTffFFTjQ7Y89a7487RHl67hHOd/JGaHD2Rmyziu2M2TV2qgkMoxjAIEFC3M09Fl46uSplVpRO2Lg2WM9Qenu9Q2I3Gyt26raIq3RwRRaSnfaB6bpjTGmNMaY08sOnkgdluaCYzswRWl47TZ2WM9Qenu9Q2I3HIo4gKELeQCkiyuzk0n2IByarAlwVEZqAMg7rGeoPT3eobEbjkr7LFcn2+xE7+TNiMk7rGeoPT3eobEbjkrsVyfbZVKSRGg+naDGDSj2RQwnfyZsRkndYz1B6e71DYjccl1PRZvs6YrWL2QUowEXVWJTZeI0qjFIjFpB7I8gjujFqMEqHbGlYjB1cYPGMH/2jB9PdHl090eVTHPTHPTHPTHPTHPTHPTHPTHlUxi8nujF8d0YvftGLxjF1cc5ZjmqPbHkv3jyCYwZR3RgkCx1PTAMVgmMMIuq05F1OmMcYrBsrsGSd1jPUHp7vUNiNxyaQts6jAMAiE5RhO+wmKCG29g9gpd94WXdkK3cgIud9inNuGSd1jPUHp7vUNiNxyhMDcbLijuhNgyU74uDTYFHmox9hKSOcMRZWCoWHKBMVMBI1wlA1ZJ3WM9Qenu9Q2I3HKLa9BgtqG6wV1WDIMVipgITiTAR62v2HwyBmK09BsKNRsVlDos4ZYx1ZR3WM9Qenu9Q2I3HLpoWNBgocTQ20IjTGmMBW0JSKkxwjmLh/b2IULFa6oqMUWnCtbOdGGMVpbwjoonUNuWd1jPUHp7vUNiNx5C44ntgqRnoy8E3U7TGGcv3j7EoNMVMUUKiLzPdFFAjKohJMXnTU7OQO6xnqD093qGxG48lxjQjMcUmMHx3R5Yd0Z7xO4RmtgnafYtE5OckGMKpjByPKCM539oqQVb4okU5E7rGeoPT3eobEbj7Sxjo9FO6xnqD093qGxG4+0MTFE+jndYz1B6e71DYjcfZ2JjNjH0g7rGeoPT3eobEE9Mc72VpjNEafSzusZ6g9PcSNaSIW2dKTSEriqTZzrMRHNjXHOjnRp9K0xps5sYCNMaT6bUmggqGiEpGkmkNpOpI9gGbaTxTmnoNlNKdkZqsdnI6TGmOdGmNVmiObHNjmxojQY0GNBjXGgxoMaI5sc2NEao0xzo0n2Hnq7IujNRYJlxPEtfufYKmnUhSVQXWAXGPlZUYRReeI5109MYe3sY5147BFEZgipNbA46C2xt2wlllISlPsKhFRBcl+Jd/aONZJT7w0W5iyIz0hUZ1UxmrB9sZy0iM2qozEhMZ61G3iWTd946IDkzxzn7RRIoPYtCARBVwfBr2pisstLqdmuKPMLT2ZGa4qMbqozm+6NJEZriY0+zNMZziRHOJjMb74womM5w5FGWFr7IrMrSyn94CuD4Ve1UUSAB7KotIUOmKqlwlW1OEVlpgjoVGahLnVMHhJdxNPu5OCiIwcMaQYxQIxaPfGN4dkc+MHRHPT3xpHpWkRz098Yupjn1jCpjBo98ZqExgQIxcMYqJyRwcu4qv3YxbS2PvGKzMyT0JgFMuFKGtUUQkJHR7Rzkg7442VbPZFUpWjcY4maP4hGaptzcYzpVR6uMcZLup3pjQcvSY56u+PKKjypjnxpEer3RzURzEx5NMYtiPJDvjyQ748kO+PJDvjyQ748mI8mmOYmOaiPV7o0iOfHlTHlFRz1d8aTl6DHFy7qtyYzZVQ62EZ5bb3mOOmj+ERVQWs9Jji5VsdkZqQN3tvFIMZ8u2rsjzRA3CMELT+KMyYdTHFTX5hGD7RjNS2r8UeQruMYyTp3CMZR38sZzLg7I5iu6OarujRy2Ec090cxXdGays9kYSjp/DGEk72iPIU3mMUoT+KMX2hHGzQ/CIz5h1UYoWr8UeaIO+MyXbT2RgkDs+xeiOaO6PJp7oxZb7ozpVo/hjzNn8seaNd0eat90YyqY82EebCPNhHmwjzYRhKpjzVvujzRrujzNn8sZsq0Pwxgw33Rg2nujmiNH/6FFSiEgazHnTH6gjzpj9QRRt5tZ+6qvtGszMNtdZUUSp53qI/vGEtM07IosTDfSUf2j/TTTaz7taHu5W864hA+8aRRU4lR+4CqKBuZPTcH948hM9w/vFFcO30qR/aBwU61U6lG6f3ioNRyVXFpQPvGkedMfqCPOmP1BFWnELH3TX0Ob3D+oWufBPzHs9Tz7gbbTpJgteDeJb/AOQ84/2grcWpajpKjU5FQaGEtTpMwxt9ZMJmJdwLbVr5Gsy7nakDFRgpk0iWRt0qi++6txW1RrlAy004ge7Wo7oDfhJq5/Mb0dogOsOpcQdCknkJf4/0Ns38QfL0Ob3J/qFrvwT8/ZynXFBKECpJigJTLJOYj6nkLyaqYV5Rvb/mEPsqvNrFQctUr4MIUvQp7UN0Fx1alrOkk8lwkq7T3knmqi6OLmAM5s/TLl/j/Q2zfxB8vQ5vcn+oWu/BPz9nN+Dmzz893dqFqWWG1OOK0JEBfhCYun3G/wC8eScP/YYPizzrKunOEXJlGaeatPNVa5KFtapbnBepByamFSUiujAwWsev/jI/00uoo99WCYrNztPutp+pjP4ZzeuPIL/UMHgnn2jvrBVKvNzA2c0xwUwytpexQtS60soWk1BGqPF36Jm0jsX05Uv8f6G2b+IPl6HN7k/1C134J+fs6bXjQLuDswtRMLT/AKh4Xidg2ZC5Z9NUq17Dthfg8NKcdBwujSNsB7wmqv8AJSfmYS0y2ltCdCUjJPguWVifLKH9NqWmkFa1GiQNcJf8IgOvaQ36qf7xQAADKLM0ylxHTqhUzKXnpbX7yLUPNLKFoNUkRwmAeRg6np25Mv8AH+htm/iD5ehze5P9Qtd+Cfn7Om6/86/nYm9orjCbuimGTfui9orTKcmcL+hsbVQpxarylGpNgQgFSlGgAgPPAKm1jOPu9A5Iz8mjiD5RA9Tp3WofqeDOa6NqYC0mqSKg5Ev8f6G2b+IPl6HN7k/1C134J+fs6bRQgFd8V6cbUSrqqTLKaUPrDbyYlEnMYGPWtPhN9OCcGfqeTUhaQpKhQg64U0K8CrOaPRaZdaqrlzd/DqyJf4/0Ns38QfL0Ob3J/qFrvwT88hJm30tBWiuuP4g1H8QagPS7gcbOhQyFOuqCEJFVE6o/iDUfxBqCiVmUOqSKkC2p0R/EGo/iDUBmXm23HD6ospMzKQv3Birug8BJur6VKpGPg8U+JFH5d9rpFFRWUmUOdGvuyC9MuBtsesY/iDUfxBqEoRPtFSjQZZemXUttjWY/iDUfxBqEsszra3FGiQNdrfhFsYt5jm7UbUuNLKFp0KBxEBrwm3e/mo09oi9KzCHdxxHZyC3VaEJKjDj6+c4oqNjbKOctQSIalm+a2mnKF4DjJfPG7XalsnNeSUfXIl/j/Q2zfxB8vQ5vcn+oWu/BPzyJPrKtY6yvnkTvwVWzPwvra51Tahx1YQgIVUndCpfwcS01oLvrK/tFSanIC21qQoaCDQwmW8KK6Evf3ioNRY5LuiqHE0MOyrvObVTf02oUs1eazHP75SZBtWYzivrWr8JuDAZjX1Nqm3EhSVChB1wXGwVyijmq93oOQFtrUhQ0EGkBMzSaR97BXfASh3gnf+NzA5U0cc5NwdtraiMGklfKrbUKpUKGHGTpQop7rJd4GlxxJ/fIl/j/AENs38QfL0Ob3J/qFrvwT88iT6yrWOsr55E78FVsz8L62udU5VAK5KfBk0vNPkVHV921PhFpOe1g50ptSVniXcxz++S7NK9QZo2nVCnXDVajUmxqWaFVuKoIblmuY2mgyFNOoC0KFCDrgv8AgvOTrZJxG6C26hSFjSFDJS1MVmWOnnDcYD8s4FoP7ZAR/wAjyR9bZxexCR+/LTiUig4W1o7UD5Wy/wAf6G2b+IPl6HN7k/1C134J+eRJ9ZVrHWV88id+Cq2Z+F9bXOqcgS8sip1nUkbTALyBNO+84MO6KJbQmmxMXHpdpxOxSYU/4LzFj/ZOg7oKVgpUMCDZUGhENuqPGpzHN9im1i8lQoRthyWPM0tnam0NOHjpfNV0jUchHg9tWYzivrWr8JODTmNfU5d2aYSvYdY7YK/B794f8bn94uTTC2j0jTkB9k1Hro1KENzTBzV/t0Ws/HHyNs6n1s368tOfE+lsrX/hT8rZf4/0Ns38QfL0Ob3J/qFrvwT88iT6yrWOsr55E78FVsz8L62udU2hCRUk0AhLIxdVi6racn/yjIoea8Nuw2uShOa8mo3i3h208fL5w6U6xa2//tnNcH3YCkmoOix6aX6gwG06oU64arWak2NSrXOcVTdDcu0KIbTQciW3m0uIOkKFYLvg1XBL/wCJRzT/AGhTL7am3E6Um3xNauJmP2VqtUr3HEn6fW2Ya99qo7Dy009tdNgAhtOxIFsv8f6G2b+IPl6HN7k/1C134J+eRJ9ZVrHWV88id+Cq2Z+F9bXOqbWSRVLVXDlPS6xg4gpgpOkGhsk3K040A7jhkKuDiHc9v6i3xNxXGy+jpTYjwe2rNazl9a1fhJwZzma3u1nlDRIEygcWr6QUqFCMCLEuJ0pNRDbydC0hVk20nSWzS2WdUc0quK7cMpU7IT0wWfXbB5n+I/iD/fH8Qf74Svx51VDoVoMX0ZryfKN7P8WzEzrSjN36rZVj3nBXdkS/x/obZv4g+Xoc3uT/AFC174P1GRJ9ZVrHWV88id+Cq2Z+F9bXOqbZj4P1y5sfzlfOxnrj55C20jjm89vfsihFLGppOgGixtTC5+8FICKo+9XRC3nFXlrNSbGpVv1zidghDDQohAoMrj5tlveqEutKCkKFUka8qYCdCqL77ZJX8oC2YljoSvN3arW3CrjUZjm/KVPyCOK0uNj1ekdFqZiWXcWmLycx5PlG9n+LE+DmlZrRvOdbZa7OqGDKbqd5yJf4/wBDbN/EHy9DdHvqSm2YVsZ+uRJ9ZVrXQtXzyJ34JtmfhfW1zqm0tn/daI+uUSdAh54aFuFX72SzQ0qdSP3yfGmk8TMY7la7WfBy1cU0okWq8IuJz3c1vq5K5SXLSEXQQbtTjB4edeUDqvUEVMS+1uqD35TtDWiUj9rZJP8ALra34SbHNzHPobQs4srwdT0bYS60sLQoVBGvKVP+D0ZulxoaukWpmJZZQ4mL7KaTqs25qT96CtRqpRqSbAlIqTgBDUv6/Oc62RL/AB/obZv4g+XoctKg4qUVkbrZx7USlORKr2O0/a15nWh2veP8ZEztWLg7bZtergwP3tc6ptZmkaW1VhDzSryFioOS4Eq417i0fU2sYVS1Vw9n+cl2VVpIqg7FaoU04m6tJoRkNSqPWOcdg1whptN1CBdAyZWcAwILZ+dr3g9aqcJnt79eSt91V1CE3iYemlChcWVUsShOlRoIaYHqICbXGHk3kLFCIXLOaBihXvC3gXauSijinWnpEJfl3EuNq0EZS5/wcjpcaHzGV/5N9PFo8kNqtuTL/H+htm/iD5cuyiZvVd931RtjhZd5DqNqTYp+YcDbadZhcycE81CdibWbwop3jD26P2yHFAVLSgu3jTRh3NX0dMBSSCDoItTJS6gppnFRGtVr0wf91yg3C1zqnI8Smz/plHNV/wAZ/tAWhQUk6CDaX5ly6NQ1q3QqYdwGhCPdFrk8tNC8aI6oyk+Emk5rma7v25Cp9xPGP4I6E5TzAFV0vI3iKHCxLrSyhaTUEaoQzMrSzNa64Be60uzDqWkDWox4vLgolUntXal5Q4qXzzv1ZNzBLyMW17IWw+2UOINCDbwkq7drzknQqAibBlXNulMX2nEOJ2pNcg+MTSAoeoMVQuYlJcsIVpG07ci4TdZbxcP0hLTSQlCBRIGrJl/j/Q2zQefabJWKXlgao89lv1RHnst+qI89lv1RHnst+qICUzcuSdADg5FbzqrqECqjDk0v1jmjYNUX2HltK2pVSP4g7+0X5mYcdP3jahj/AGxnOHYICUigGjIW04KoWm6odEOSrnqnNO0ajbcZdvNe4vER5nL3tuMFsuBls6UtYfvaiXZTeWs0AhmVRobTSu02udU5NJWYUlPuHEQL0tLK74utty7R2hNY4aZeW6vao2pYTUNjFxXuiENNpuoQKAZUz4wLwWm6lO1Wq1qVHNOKzsTrhKEAJSkUAyzPsI4h059PVVkXJedeQnZXCPP3f2i++846rapVbUMMoK3FmgEJl04r0uK2nKx4uYTzHPoeiCxNN3Ffsd2ReZdW2dqVUi6PCD1OnGPP3O4Rx06+rov4ZSZiWXdWO49BjhG81xPlG9acmX+P9DyEt8VPz5FPgtpWnPe+gyhLyzd9R7hvjgW85asXF+8cq7gh9Hk1/TdBYmWi2sfvlJaZQpa1YBIEeMTFFTSx+QbMhzqm0SinC3VJNRHAzKKe6rUrK4GWRX3lHQnfAYZxOlazpUcvxZs8TL4b1a7TNuJ42Y0dCeQUy8gLbWKKB1wp5oF2UOhXu78sMSrRcWdmqL6qOTKhnL2dA5AszTQWnVtG6C7KVmWdgGeOyKHkOClmVur2JEeMBaXHhippOzfrtTMSy7i0/v0ReRmPJ8o3s/xkS/x/oeQlvip+fI0mWQValjBQ7YrJTCHR7q80xRUg6ernfKLpkpivwzFESD/4hSAqffS0n3EYqjgZVoITr2nfyHBTTQWNR1jdF6QmErT7rmB74uqkHj0pF6Lhkpi98MxRPg9/tTSAZx1DCNYTnKiks3nnnOKxUclzqm1rqK+UFiZaS4g6jBX4OfCh/wAbmnvii5B49KReigkpivwzFEyLqelebAX4RfFP+Nr+8BiWaS2gahlrcB41eY3vipsaYpxfOc3QEpFAMByNCKgwXJVRlXNgFU90ZjSX07W1RnyEyP8ArMUTJTB/6zFBJLT0rzYC/CEzh7jX944GVZS2no18n/qJdN/304KislOfhdH1Eea8INqFAxnSEyPwRTxOY/TMZvg+Y7U0jjA0wPvKr8oCpt5cwr3RmpjgpdlDSNiRYufkEZ+l1oa+kR5o/wDpmPNH/wBMwmYl2JhDif5ZjhFsLYdTgtCk07rWmG3UN3HL1Vbo89Z/KY89Z/KY89Z/KY89Z/KY89Z/KY89Z/KY89Z/KYadM4yQhYVSh9hOdU2tdRXy5ZQbVVhnMR07Tb4w4mj0xnbk6vsu51Ta11FfLlVJQqjz+Yjo2m1tojik57m6KD7LudU2tdRXy5SphboPFIzW91odcTR6Yzj0DUPsw51Ta11FfLlPFW1cdMYbk67UIUOJbz3N2z7MudU2tdRXy5NTizdSkVJh2ZPNOCBsTqtSVp457PX9B9mV9Ux5s9+Qx5s9+Qw0pxlxIuqxKTs5NMhLNuKU9i4Up0JjzZ78hjzZ78hhHjDK0stZ67yaV6P/AOOVrxhDquFrS4Nn/wBw74uh1PBUrfA1/wD1yqpp5K1ISQKJ04wJVlp9KyCarAp8+VK3FpQkaSTSAtpaVpOtJryCXJoqzzRKUjEx5Cb/ACj+8OmXQ6ngqVvjbb4s6HXHBpCBojyE3+Uf3hubaCghwVAVp5F2XWzMlTaik0SP7wh1OhaQoelLllJecWg0VcSKVjyE3+Uf3ht5NQlxIUK9PpLF58tcFe0JrWtP7Q/dmC7wtNKaUpX+/KqlC4W7xBvUrohM2mbU5QEXblNPKsgE0L4r3GJhJJoHsO7kEIfKkKb5qk6o8abmHHDfCaKAie3o+tpmi6404rnXdcNMtOqcC0XqqHTEn1T8zyL0wZ5SeEWVU4PRDbNa3EhNfSlzIedaLhvKAoRWFyja1LSkA1PSIlPgI+Xobqpl6cazqYEpT2Q42mdez9JUqp7K6I8ZEvOO/fIMXVOOOJBzmnf/APYQiaYOB0jWk7Ir4Nv8Jez7nOu9EFS3/CKUjWVLh9L8y86AzWi1k6xYz/4/hgip4QtaeiMZ6bCknQXVQU8JMPk+o3o7hAUoTcr04gQJKepwx5jnvdG/Kf8AE/L3Dwe+FFbnhIHXisRKIcnJhaSvFKnSRotd8ZmJtrPN2iilPZSBKJm5hQKtSiVHt0x40tibZHv4iB4PnVFxRHFua9xs8QkjdcAq45s6BHCBubmR7xqYul6blzsVX6xMtTDy3blCkrNdMTBk/OLhub4/1ypspvf7taV7YPiSpoJrjwRVT9o8r4S71xXwjwl6/mcJzrsPzEoOMTTGladMYPTj/Qiv0gvcBOMjWoVhEhPL4ULwbWdINv8A2pie3o+uRLfB+piT6p+Zy6+Dr9+/nlHOux5Xwl3ri84/4QQnaVrETIfmXnQGxS+snXD5kK+MXc2mmOOm55tR95xQiVcdWpayDVSjU84xMX1ziEJUbtyoTd1aIbQ9NvuJuKzVOEjRCRLGZTLXMCzXTrrSEupnn1FOpayod0E/6qa7yB9IAvzMuoeqqtD2QWnQETSBiBoUNoji3ZhqVui6UGgrvhIlZqcdc2BZVGgcPwejVepBEzNzrbmsFZTHGOTDspdN4uEkV3mDMFN5ZN1CdpgjhJh4n1G607hHCFqclxpvCoiV4WcecSpYQpJOBFipLwcRfTg47s6BHChE3M/exIi5wr7RH+25o7jF1M7OFR0AOqhf/kOFwVxZd00se6iflEp8BHy9D/7Uw4++kLQxSiTrJsXPBID7GN73hsiZlam6pu/3H/Nk51B8xEx8D/5C2cSNJmFD94RLspFaZ6tajCmnkBaFChSdcOssqNG1BTZ1jWIZe99AV3jKO6JP4n0tk+ur5Q5O8GC/whReOoYQpKhUEUIiU+NYqfSgqYdAqoeqemEMkMvIQKC8nGnZCpTwn4PUG1es2upHTCnPBrynkuHOUrTusY+P/wDExM/F+lpmJpd1P7nogiTlGm0ar+JjORLLGy5Emf54t/7UxPb0fXIlvg/UxJ9U/M8jNfh/qETXwh87JX4X1iT3K/qMTnwF/KGuor5QvqmGJSt0OKoT0QlhhAQ2kUAEKlphN5KtB1pO2GccW37iqa8aGHZVzQsUrsOowFOJILS7jqejXHjF8cFdv3uiCpAJU8u62nYNUNSrXNbTTf0xSXTecaVfu7YWli7QnPQtOuAJiRbVtuKpHjjHCtTNb4l16K7REy+jnNtKUN9IaZeOZitfTSAhCQlIwAGqHG3EjhEpJbVrSYk+v9LXuon5RKfAR8vQ/wDtTHDNpvpUKLRtEXluONq90ojxSVQpEvXOJ0rh2fdTd4UXW+kbYHjMy0zXReVSsTTTM6w44pOCUq04w+uZfQ0ktUBUaaxAQjwhLFR0Z9k98dfzhLHhJKgpIpwqRWu+D4qFzDmrC6I9515VVq1JEJQnQkUGTwkw8hpG1ZpB/wDyMto9+JV11YQ2leKjqj+Iy354C0KCknEEa4lm2JhtxaFqvBKq0jxVUw2l5TyilBVicBHCTDqGkaKqNIlnXVhCEu1KjoEJcbWlaFaFJNQYWh5KPEg4UKQE40rpgOobk17s0wtxiZDUxpQ2ld690UhxkE8GtolQ3WMfH/8AiYmJdx5CHCu8Ao0qKRefnGEDrwiVQXc9V0Lu4VhDJPFoaBSN8ImZhxuYeUM5Kl4I6KRRxiVdWNCGhU/tEq6tQbbS8CSdQjhJd5t1O1BrHBzM2y0vYpWMcFLzbLq+FSaJVWJwTUy2zeKaXzSumA0zPS61nQkL02FCvCEsCNOfDC5V9DyQ1QlJrriVaenWG1pTilSsRjB8VmWnrum6qtOQmvw/1CJr4Q+dkr8I/OGGuGbC2qhYKtGMPSzbomHXEFFG8QKjbDbr7qGkXVZyjQaIUQagohDzSrq0G8kwBOpUw7roKphTfg1KnHDhwihQJ6YbeIJaZVwjijYjwk0nBea7v1GB4KxvXqXvubIc8JOJwTmNb9ZsYZlLiVLF4qIrCRPtyomqZ6XE0ruMFTnBS4pzkvUgmQfUtLblWnKUrC2nMA63dV2iPdeZV2KH9jA8Yvy69YKaiFS3g5K88UU6rCm6JPr/AEipNAI/iMt+eHXZd1LqClOck9ESyFz8ulSWkggr6IK5Z9t5I03FV9C/7UxNh8rStBTcUk6NMcXPNlP3kGsByacVNKHqkUTFBhHjcs63zQkpWaRplv1P8Rplv1P8RRx2XQnbeJhDdSbqQKmJpKtBmiP/AHQVSc0pr7ixeHfH+onhd+4iOClW6V5yjzlZTQYdShbRJorQaxplv1P8Rplv1P8AEYqlh+P/ABCJFTt8gGqh0wQ07LrTqJURDTr7zKEoWFZiqmGgw6lC2iTRWgxiqW/P/iESq3OEUCSSNEPOtTLIbWoqTerWMJZLvShY+scY0hgbVr/tBuEuPL57hsXKv81esaumDwARMI1UVQ/vGdLpa6VrH0hEzOP8KtBqlCRhWEqC+CmEc1VNPQYuiVDnSlYpA4fg5dOuqqn9o50t+p/iHi+6la3aYJ0CkOzcs60Q6a0WaERzpb9T/EaZb9T/ABDa33mUISoHNNTC26kXgRWCG3ZdadRvERplv1P8Rplv1P8AEeNzLzfMKbqMeQmfw/1CJr4Y+dgbKrjqDVtcXRKhY95LgpCi86y0aYJrWpjOXLAbb5/tCJUrvltql7bEvLPirayQcaaorKztBscT/aAZucKh7raafvAYlmg22NQsmG5k3Wig3js6YblmhVbiqCGpVrmtppvsZdYdQhTYIIXHE8C+OhVPnFPE7vSVphEzPrS4tOKW082vTYETTeI5q04KEcRPJu/fRF+cmVPUHNSLoiUH8yH5ULucIi7XZBurliNt/wDxGmW/U/xGmW/U/wAQ67MOoUpxIF1Gj0Jci3LFKEuc8q006IeAlw9wtPWpSkOKDJaU2QFCtctolkuqcJoK0hyduUK3eEu9sIbekSkKIFUrrT2cl9TSnSpV1KQaR/Dx+pCWVIS00MbidZhb76Slx+hunUnKMmmWLqyipJVQCsMzgRf4M82umESa5QtKc5qgqtviqZUurABJKqCDKJlwwFHON6tRsjxlyX4bNoM6l2EOI5qxUcitDUjVOIBUuGpy5f4NVbtYW4lpTSmzRQJr6Mp1UtRSjU3VkR5uv9QwW5NkNhRqddcsNzbPCBOIxoRHm6/1DCXUytVJNReWT7O4CaaDiNO6PN1/qGA4zKJvjQpWdTvyw5NMXlgUvA0Mebr/AFDAfl5ejo0KKiaWh2aYvOUpeBIjzdf6hgK8VJptWYoBQcipwypBUam6siPN1/qGC1KNcGkmpx0/+sn/xAAuEAEAAgAEBAUEAwEBAQEAAAABABEhMUFREGFxgSAwkaHwQFCxwWDR8eFwgKD/2gAIAQEAAT8h/wDHMnupgF9UMz7vCOEitRhz3RFuJd8e+5YaNsXgqJ0ltBd9FH8gSjedKaJTsGmrdMszZdXximTXSc+wLKwa44ty3eYVzwQ7WDJ/jllA+H8orh7VwyPtzDD7nmJB6mXaUDOEcpVgLDMvBs/2YMvQ4srIa4pyv6K4PsSsWD+lsNf4wlKGqy7CfOir1pWZ601M0BURF+BpxhQFsGEsnM4VJ0Su3CH1l7Mb9EsHeGw4+2fDL06V0RJEacYCCO5/FBwbNKitK9mUNVyDiiAo48HaqwgyVfIthqc8xxvaOBEzE68BpnrVGhtphL0N5tQ/iCoAM1j9QsLGCu3MA0OB5P0FzbQJxghcEAr1gntEUrMwZaxHS5MIBiPlYIi41sjDxhjr1dCY8hqFMtmPTGJga6DiuBchySmMOZPwYwMH1LxO38NNHgwYd/Mzq4EE7ILh1vYwCa1txeBtkONQCCtG4XjRd48qyF8EAArT4WLCNgJmJLf8+do9v0MTg2OcOcwzZBKgEEdf4UnSci4dcasmuRwSBdcsXpKF9+Yj5/AbSCDisOTw5oAPz5NRorcRu1KJX3XfSGWECiUdfgUreYLgzzMXm6TOosMMMSWahQomafBX8HZTvlDl/wBx0K2i1iFAoGsLIZ+h1xRmAFAaS1z8Iq3KCmWlXUmU2OTySV9vq4G4Ye9CDD08Sc2wIIE3uAfngJLN/wBSHdNia8n8GMiVgftjNyNqx7zuLpzMBuDmOfiaBHHxZ1NZLKjvZv7owjWa7xCEbHE8ihs0jguBVW7TNMoeMGQYqJCbMdXCVc7lsIEH0/ghudClHJHwKtXWLYzToG8LiIdRNI8h4jhinn7kGkYKa/0vIA13OvC0805pk8hEAjmMvVps+C9B1X5c4dIVifwJ5hOt1iiLZMvayiHTMTvM0nk3Btw6CHhcbtKPr5AU2wHtw5WmEsPksxFYIxkFfE38FxDPxKCOX8AChYDLu43QbxAC1yIZCQvH0pXgZ+SPMnN4Nt1nCqPIyx7InI0IzOge3DCnJhl5J6w0jFRb2VEBKTESaROm/U/gCa9bNDbgWaDCyIVrHxqGLDyxsTYreJx+F10vGqTtMZ7se8Fj8r8GCuJD8Ht5ISB0Exjy6RjGNKhvqhIgg/fkDpsPYtnoQC7rdIfIodWK8YeHNE2lx3F40yzaeAvj71+Iyma5njiMpr4cCcSavXkcgFd9+GO7mTpt9+fH3I7bcKsUP/Zlzhl4FDOYFnH7Ja5vgAWqN4/TvOF0H9WOAWofC4WBXRUbddpn+en+Pn+Zn+Bg812TAzMG4Vu5jpLJENtXarhPZsMq8TyrwsvYOQgGDfhHm6EEOqURn8o1jp2cP3xWaC2PSyXJCHTZxDqoE452zFod5n68CBQBLPDoX2ji4sfcTzMkbc2/J7+O+G3UpDC8yVDDqk6QEfBiZNTOsZyJg3lxyxWznwXH/wDWPvlDAPfeFcbsd0bKwvHOLaEtW3Hw52rLzhWW0V/PHkGo3BydrhgTnyWFq6EaFpbzTLO6Zk3ApWfbJYVb5JjoJzK9pjz7kVuMdyEbnoGUQiNWtMZuT14836kolbA0vWGJZl4ciYORgZGBQYO6IGhKSYcnqun3xeeB/HAhmXt0mFmBG85URnWaspmnbY5nR89E95SMQp2U5gv4HzlewmBBQHBJl9CBUmwyxTvlsN1UyWLBbMK4aKBLGDmV75YAa1YK1JqC+caMXFXBhpRldb/Qyg8Vpkikfe3x9yGBWqoBGQxWkN1hr8AZy+yXwxZeD+EMALDoaGQ9TBJgZBl9MdI8sxIW4mCFjETMTr4GbZcmphHVYRsb3c6ZdePDDrCl7cFZ2T2vvXPgZRjZ7hEA78uWEvKnryR83GlqDgJaMGh5g4wRjXJUNLA1TGDGQk65Qgy+oNijDUjt9Vla/TMaXYAbhV8nwQ2+UFkcGkp2eAwAyVUGA3osEAV5nDG3H3f3cL2QllgU+yfKKe5Bji34QNVsjLDVTaIID1wSzejpfGvfqDp1eIVl81TC07WKY6X84XDyknxC2ScVZRKkpRRIzn2QTALQnL7g8DM1qJCPRhDoDa4vetY7LeFjSvBx8PaPFqtUzJWbLcwcL0Zh27jEmplpgg1A6n0qAtcCArRaStwTQxMSnZcbcAdBUxLqvkj2/Upzlu7wPLDKmIWbkqe8dyIOZ1ihZcj7acBBZ+XWIGjgHBwCqCrtKZrOuCGYn2WFYdNcaILV3L9g0ZXjo9GAynGuJmWyf8rMPXAuFu6qEwTyEsmwa45YDmzwUjTZWEqbQ0xSlBuyDWXCs7uSpo9hPaqz7BBg2Qe8s3JZuSzclm5OQ9Z7z0e7OJnK6rnuPs9+sTDueLcvMPaR/wBZlKtVd2HAFcMZ610UVDrjbMc9JEyZdoPQO2X/ANWZoYLh0sY3IjSuAbhhCMPVYmZ/rMSAYWAHPgP5QkpixXw1eqHvLYa/aqy2lTEnOtX8QsnLBCit7jD8K7i3w8/CsAKAHkOM2dMU9dZqMta6KWKUbQbcMZ2COoib+ESjIe8bsPfAqH4K1rz9d8XcU7oq5q9fCCqR6EV9bZS4tyJ64CJUYnfBNMLmQMhh5FA1GUOU+g8HK4AgDZyozQrknhfTzJm2+1KuvhvwYYMsLLMkHbM0XbPb4fLMKTIj1rGyVZ+EJRmwzJve2Mk91/MxNPbFn5/RMoTlP54LmTKHbLz8HGMZm+0eq3zJ+g1w9zC9WSpFPbAJSt9x2Y81uC5g4DoeCpqa3JapT3iUCPlKBbhEsw7J/iYHmtkTW7uEp8MnOARx9i+0KdX4iXK28XDP11i3eW7z2r4UMW03EBnfnpOkznx0Yw1Zhte5xUETdjKtNciLUT6s1cHQEWs9FD/QkZdH/U6+KrEcyMIuVjs+uJYimpFzglEOXgBEoM2BEPBWSW4p2g1h3RwVh9c0NwExLkPgyIbGcwQva8dO143WjmrErdywRm3ObLYlYnkyrwvK2+G3xxPtFf1PCHAFmQSG28JnfpR24AiDZlRsB08LXA5waABwSnGasb9VjtECNu8TqxPQbxSrCx84+4Itm20rwpsAmsXPVb6y20DNzOKE7GKm78HgT0zI1Y8ptM3rxzldCZIpgQnDIB1OFC0+1D1NDjEZYTnHDPCGSUZrmlSKYKIjSRXLWuY41zI5ofChwX3HuwiWDKyOCl6CJgwN2Yl09INwAlofbihXeM/XmjkgWxe7XrpwUM5XjriHJ6RjKJgx0HghTECQVRpaOMCIwYv/ADjhd7CIhqi/AOGOFNzD8becAwB04KYE3UrzbDWYB5xJS/aNQahwfMZ+BUceORMDw90cBpcYPHLhUgHLd2idq7A4ozws7zz2asKvtDfSY17wGQhia58M/YWfr5ribjii34e7hXUIObLHzgJMG2f0mY7oz4CXIsTSFVgfTvxMmxnbAeXBvcPzBUsWAKCjgFzCuQDI4KzsMVpzi1L+0ZLMxTt4pIhTGfLh+fh7g4YTfp4quIsefEom3EdSS5k5GrwaqUuKHKl+zb4exfnzcPSfng6TyjOtXgRFl6ENDdiQqJtiAO0UW84pPXqiOLdjjaB/RwT3j8z3XGtebwY0bOC4oVff7QWTFXeKsVZyjEwIQ2JfgwaGqcd7glW7tgYcOdAzMGLeIRBp4Pyma4DPw5er7vNQ35vgbDlHB4qWTMoja25xENZHgZ9+EeLiYzcgknuH5nvuGoOnhrsZrcMLRvtx9p3uE4a1uh28On7zN68PcEo13XF6Ww9/ACxk5x1TC8PAEBm5Sv1MXgiZtdDzd2yHWo6uarheA1PC1B4AV3DE9fBUOak9+4WhgKK8CLGRjNksuiFGpAIJQIYN9ftNcyfaR+i6GzEkgh7EvwDAlRbPBt7FwAAyOLhLVw5ksIwO3grObRmLKNyI7MRxo1b+ng8hdAQRc/Wcef8AWqMIC0/ZAPrAmFsdZNb1Uv4Qic3ciyJCTkmn08DsDhjw8GJqelEMxIpTssGbpBHiYKh8B8ksJ7twOC+Hj1u1pwbE+Oc/td80WE4FImPJ2mDj4CG78OQb4b8r5Nfi5D0gbcSBoGYe/FkgzzDFzq4JwO3jJKDUmXyOYW3FEKMXnbR5qaR4u0gDIrw4hpcWzeGzg57vg+a2nvUy27KA8F/YvJEy2sXJXAQJsBf2sChXwYi5a9AcMYMICJhlxsfZOBb+r4QimpGbiBfM6R8G5gqV4S7bkCYZWv8AZAAAMiJkOCM9q/6eTnG6qlaKshufC0IGjn1lFLpofFVtRMJ6X4hA1s/PwmiHzJ76HwK60dMN7j+IgAqtAStDRhftoRW057jkvQHhjb+uVzjwX2L8+Pqp1YxVeQuIRh79hwJr0tuPnJhRDY9vWLKmacoBkcAFCp20WRTDo+Qg0pczk4GMM4iYMWsOguIH9MiGBclTHzgnAXK8wy/SiVD1VsoMDLxIFcj8MzGexeN5RvbRCpMCAWuAELEeb3Bh9uJUE5nMRW23CZdeFv65SmvdkJmK04NxWGPznTIFcWOXNcFnGta+Jbxm0DKiprq7+Cwpn53xu0Mie4QF6IS57Rwy73hcwXDcAK+4YBQELISoHN/RMxjQVwDRVszhUG/7ed3HwXKCksYSRuS6IlfaBSeDSoIYdoCId53fFcHmgxf8ppHbZco8+FtOv+uCxdYPuiD0MHeUgdKTvHRt0PXhkHmoTBTxrbwMMId5fCUAxpMYM07WweIfCpgg2AoOD4TiPmo2en54GlDQLj3bB9phROjg7QeYMg+70wVjE0mZ1nI4e3mmcMvERaT5/afG7I6jM8byPNBLqD34K6bKyukCsvvPNZPaacVPeWXh+X5wNfFR1muM+H2nzuyGsVfSSd3iJXvw+Sg+9rgZUc7maMAitWGPTzgJ505kTF8MVFilEPO8edym1BO9NwzqVsHAanPKR3pTaJ51pswXPSEV1hX6/e6tZj1OGL3D9LLzrhj9SYNF7DJ0g+0NTPtLwdsyFifIINs5c9o0Cc+DtxL5Wkpg4N8rlFZbgk92Garpy8CVTZ1/LLARNx5I+dXdn6UxUEvVC/yE+90LyDpCZb9BzPOPZUDqQd9l5Ai1F5a3T7zJjxXJjgRUv4POaOrK66TOXSlXF+xQ+94wq4NRLoyJDsGDYJk+fgN5nZK5KBJ0fBrUQyJ18N9EwpjK8/MYfYMuGtqvkffcFzGecSAzMSY6WidRh9AueKeTgEAWsV9XEOb1gXqTZg1FczEO3HLFVPZyHAn6YEFAAsHnqArkRsedmELezghEUEPX77j+WHR4Xe44JyfoCqxFvaLh7pI6jjdEMlZeA6E7FxvbhtMYdXf6Cs386xtVW1mdYTrpD76VRiU9uFkPM7/QsKZORyM3S/THAHOIKjG9E1BSZPdsWXOHVXBzBsRj/wAQJJaDT6C8WL7Jlwu/HVex9+z2EMJakVd5YLVPQfoqIHTQ7w4LQzfWVDqHc9yMgLqqth4pa5HaAAAUGn0OAG/bf+wl0IBCAqk+/iE1nrnLDjkKez7O1tJtM1hfVLwFtu0MCj7+FJjSvThi9bidsPs+GXGnr4XGYUur/ADwuIr9uFsnM+zqFM3hZTE9Rp/ABr8t4X7I9X2fZkerGGdTeoL/AIAaentQldrIfT7PjxdP0y5y/cGci8/gHxDwmktRo9Vh9mBZoFL3zd7wlyz8R/AeasjQ7KKfZfZicaaHWLad251M+7+Agtqph+FjEANbH7Nihgo8+AUuIW/gPus+I3n5/wBlBfQwirM73rwQcYID/AfcZ8RvPzYfZGw3myo2yOFdTOn8Bs7RTGnyuPky39kQFciJurhAD3/WESzR/gN8PQnMlcvsy4uYF/Y8NNYJw+By/gbeUi9+F+3U3g+xqQ6eHzuX8DLh4qluHCytkCYY/YgFMguM83bgFfb9OF2w/gNdJfb3WYuBnLgZpesx+99iQg48ZFdr8OhfvxkgdWE2XyYiWw13HaxtjagbgAwMJhvI+xbJm+/HDDJ4FwARNZzJh6P3gqwOhFUrNS2XNlGGgb3MacS0y5aY/uo5g9VxtUwqOrwvV6/YVrFnMBw417o8PYUalFgGyihg2r47W6KHgwKUEslphdgdT7fXkDVZfh3WtFXmXr2iXRJN768dmefkYMZrw5GBisO/2DdOqi3xpW1vI977JRBnQgjcD37StFPOQIBNRv7S5bc2Mxeg/wBcaWzWoJjv5eMKIIGRiOBOdA+wVn1bfBzTk4KeWAQG4IRC188IMXu/H7KFKbucY06vnjJQzW3zqGuaeDpEr7Bg/I14OZ7mDreaXDskpimndMsAJuzifYnLt4aij93dYH0CPr2B4LOUvr1ouc1V4PYS79H54wHMgFfJNmvsCAVyIX3tdFn5ucLtBMfQjhnhwBt3uTASndjj3F9f0ewjnxQiqDO4y1Rl/XEolrnwznekw79iZyHmBhUNE3CINiX9ekQzPwxz7S18tO+7Keiu7DgRR9YAtwFOo9YZYDhtPDsK/r6jwSguMB9nAFemM91AFADlwohQssp2ikKTymiGY4TPjfg+v+V2jm+Vg3g03gAUFHizaW5wsloDlK0QsYqDf6/d1xxwBZHRFttxgnuwsfV8WQQ3xnzjycvrPkNvr/ldo5vkoZy1hGGB46VxgiXSZmZtBBueUZAnf65ORa4YB42xLrF9ECgMVhhefF8eWYRfs8nJ6z5Db6/5XaObGHTFDpFwc2vFiPd8jJNwIiKOkyg2wujPatUWxswYDBuYSdypDpfNaWFWPAIG1i0YcWndFZnIY4jfLFKr6wRr34eTXgPZHz/np/np/np/np/npUhOHd+NtAtSEszpEUtTmwJg0XHJ8s/FZJSwmGhAibXissOwkDpTSFOFyGH5+Q5StJZaHE8S4FvpftQGLMnrPkNvr/ldo5s+c2iCUlkLcTm4ryODLTI2ceZbAooy8oudnH6C5buzmPWcx6zmPWcx6zmPWcx6+dz5ifIeFgc1xoSnIlA15mcrsFhQFBhMzomT1nyG31/yu0c2fObcWdfCEOguAOEJ0U8nLww+z9k5yMFA28hy4U7lwuuI4QodLPB7RMnrPkNvr/ldo5s+c28KoN38uAx+Xk564ZT9kC/JCqCY+hHNiSnfw+0TJ6z5Db6/5XaObPnNvDYtk/PDI9PJVt8FhODmwwIhmXaV9ZToRKhu09gqEQUmCRV5IenB10JmQLXv4faJk9Z8ht9f8rtHNnzm3hQjPGQ5zA3IVwqULWUDdeEI8DGKNZZ+7yeH5zgT43WmbDtPeMjM+xSW2B0Ym/UMXl3kRdPsSv7sn/ejRDrIzBe+f5cTc/xSqqpZlz/IjTB90t+zn/mx+iyVM32h23qGFS4OQ36qK4d0mXnpPt/EoaESkrP6zkIwDGTDZ0JfXSPbJ+/grMxrLCqakAjky/8ALgmDwu8PtEyes+Q2+v8Aldo5s+c28IOsmawjKR0YGWkmnwODrxVDPecGytZ7MRjK1aJv4N/YXDMKHqcMUOPHwx9PBj7eHt5ZQefAy2qnh9omT1nyG31/yu0c2fObeKo+DwQeEGF6PgIQrmb14MWerPlwqXeO6/Yq8R0RpzIR06xgbEw4ZzlwWs5a4ZT8EYiWmEdNaZwyqaLTw+0TJ6z5Db6/5XaObPnNvEX1nUUdhm3OAZd0o4FC8LPeRDOZGZLWEbaoIFgti+f2PGebJwDg8jhgTlG2UceH4OAoXAUHBjmGVPfxe0TJ6z5Db6/5XaObPnNvHaNQbtgfXiUeBqRWv0if/MHnQrHfg7fLBKRgvsmqbNQ8C3J24lcQh2qdp8hCF2W00W4mKjmQAFBR4vaJk9Z8ht9f8rtHNnzm3kUxO2oiYU9QxIiqRHbwkx5auVLGbMwx+yA5k3Itj0iaMYt755eG8zxH0ryh4npiACjx+0TJ6z5Db6/5XaObPnNvKKbLuFMTvrOMt400uFZnDHtZKt6oYFFGX2NaLZn+vFVtb8FS6+THL/KXMGuZOmdJj5hyhYQm6UQjl5PtEyes+Q2+v+V2jmz5zb7kXix2jW2z6X2iZPWfIbfX/K7RzZ85t9wslUXJw3YqrW36b2iZPWfIbfX/ACu0c2fObfbtIIrJXWN2l+o9omT1nyG31/yu0c2ONRX4RDASx1PX7QoZ4TPTBNXrNsHKXv8AVe0TJ6z5Db6989GekXNBXrDZyMGFLg5JAMlmRKZk3NGw1FD/AARWiC5CcpD6lPMxDMxG8WDyTEZBNm9Jmzd/rVJgzZyDxMQ8YjZuE+n2Bklt14GP+u0lqLmZ+RbuwD+6B64byAwf5JySGrA9fdK7vWc56zm/ACJyPRxROfjpL1i9PdHSMW0hfZF6p/vTv9ituJsznoQb8MSYWXA+wDHKkYo0t4YvXwuSrlKsepnKAeQgC0Jy+/IFoDdmFyFwJuay2JbvDXx9Z9MJCVAfYnQkzGJNdtn7RfjXA7XG0d2mAFejMsLzn5XoN5fdnDOA33yay+RMjjnjGL5JfEXR1DQlt6ca0wKQMgPsqRY0SZ6blxdv0whNX9cnrxFMmplgrS5os5lTVfdMx60mDKesHyL3+2IZg7z82kw0RyJibXqn4vESxfeKubxKvnKsEObQGMWhQ5/tCZVkB9qcbWC5bqnOS02OV+8tUUgSa0VVETMTwe38z8u8ZmXWE136RGUhpggpMvUmYWZJIJk3eWfUp5+tBLZMrHefrIg/0oHORoV1nsykJ9nhPdafBS5EPNKIqlYstYBrcBV7zqgJM5asFfcRKB2FwOHdIe3MW8kQG9qPzDVoIC2KbhEcy7eK4DkXeBZF3TIvWgZhERWPtD/gQDk4NRO0NXgxqH38SCAABbI+/AGzCOjDtHYMLuV0Ijb0Itn6czD1onORTNu/jHybtC7B5kENlAAeTWfiYN5ogCGunBe/wHQfJX3v3Yie/wATnvZ0UVp2UdvkFDKDTekPxHpMgHslnZpzI0KLW0mQWABvOef6eI5l3TMEdfMuXMgL0g+T90/18ssK55TY1lUHAN60kp6NuRFMO52n4y2U2K1g/fIKIgLRuplPR7hIEG0+11/C1mj0i8WaLBdKOmC11IwzHsmUT2vDlVkdsJ/vz/fn+/P9+f78/NHhyuHpZlXcM9tIwmgHTMkMB5ejAMh6f/BWaXJKCfIP3PmH7ikyLQV7fca1/kC9pz8lwT2SjEamv7QgF2Se5Ycu3+ix83nFoR7z5+rLCOQZoofWC/ESbDL8ye5lIrlntCCQEyTJ8q0+NWI958w/c+YfuNALBR/D+CvCBVJt9BBOclL0/hmqXJDv4BbgyRxJlpdbK5OveCqXAfh2fJovGfriN7v+P3yIyftX4hwA3mPVYS3YcKr+Daar7wPsLTRj4jZ9uf0jLgI36r1+z8R8ZFlM7AbmwhryzaniUC1og6Fuf2XnlF0DdsvlXoF3XUISQvHe+4+wFNGPiNn26kejA5vyY9ji3AKLaxGLGmp1X6lcX7sljTw/+vvAxObug/rjbyrodDfPbwkiAGaxq+Kf0nxcvileoPyTn2jgZa2vh0lSD71/jhMdspgJ6kPANf7cPeKBDYcbHVnpUz24awE0c9z68pox8Rs+3LYpdmh/yeJV06TF8QfvwUvnhq0hzJQwuLtockmM+zMF8NCCAKqgPCpw+xmR8Y+keFbax2qambG+tu9oPwwAFB4nwbZj0OkFojEZ9Tc5x4BSJnQkNvLrpscn64pox8Rs+3X3H7PAMc09lwAa4fZXhLePls6tr8WJZnmpl/faPCWfmrwNSAS1XSbsFDX5W+SAIljmQHjxZM2z4riJkajqZ9zOGLKA4I5P1pTRj4jZ9uaxD3R/2eJlRGmJ5Dfn5b6f8arF9qOJ3qiTv8Q7+W7YmSB0g3rFGu3tlwImGjrztj+x2+tKaMfEbPA13U5afJZ8lil9TItZ+BnpsqG8/wBlnyWbH/Am/Fm1AtZ/os+Swi6KWW1LlyAf5zLvCwTQXtxntTf8ymk5B+pap6lo9Vj4Hq4Dkiz/AGWfJYESA24r434IC+Fs/wBlnyWY+iRWocGLoYJ8g/mPBmkXVJ1iua4V/wDR2lU1qeoZjyPY1gC4hl9yG+B531YWoWtGPPn5lh97Qxch/fbjhsrOuT8fWlNGPiNng+H2OPyO/wAHym3H2v8AHj81txe5OugI5T+jp7PeLnI2q2vgScd0x3lUyORy+dYBEQsTXhdvAoGTmGzTuOAo2M9UFKmXcfvwsxPMk1Zl2Pzx1Z23f4HrDgrAmXB0m93l/FrHjjQith3mDt9B2fuDWJ/wHJ8RNoQo3QcQtbuvI/PmiWTJ1EqOraxOauF1vadkGyzL6wpox8Rs8Hy+xx+R3+D5zbj7X+PH5rbxWILYiVnxIi5w1Z93LaHDKW6jsvZ9mPDALr2Dbsf3MngqHXFNXAesRy27Vc+FWYOVz7QhqBzuffPwVwLPYJu6XqR16MdStUieBUy9YcKeH8MGbC9M1smj4HEMx7D+nGz/AKEX9eceiw0c8eBnMWbs+z6wpox8Rs8Hy+xx+R3+D5zbj7X+PH5rbwXmLF+8Jqx1gPTL63CQwUAFRKwaFJZEC1L6pyeUcaKBSO3AS5FiaMxdPRevcx4BjUdkHMlsiG7rZf124GcK8at74x24sxQMn1enY/PHPPtZt8D18eSf7PSGMqXzsl7ZPWbG8yuhyZXG9k4I9E8+cSglk5vVczxC8savbznzuTjzti+j6wpox8Rs8Hy+xx+R3+D5zbj7X+PH5rbi8o4GqwGCh8jgZeCpQU1AHw6enHDTpnf/ABfpxubwNBj8h7cVkuVtV/WfaHgFaMk4UperOT1inWXaq8MtYW2avYlZJD5Hk5LSUD2hqszEdBz/AAiIwoNJxH6UBy1XfL04sPM314jmcQ+Bz8Vy5cvw5LVVp0Gj8cEMWrRLrw/GfWFNGPiNng+X2OPyO/wfObcfa/x4/NbcTrIYDDDL3TxBUWF8yFPSuocGOz87j2eIEpLlOrt5H9D7JwJYXsCzjo+mXpw5eGuayOx+ePNzMyP5HDt5lrAnL7+TEwvUGI7cHVo7cxuPcIzuXwCoWrbmP6jnwrIXDl4rW0OMcx8VxrXMRK4eQkw8ExHF7m/EoGnHM8PdFbjwYa6VTZi+x9WU1QeA7D8B8vscfkd/g+c24+1/jx+a24nE+cPjIDI/P4Ok+dPBqAB5D8oyQhpHThdQ1hqZkrMBjZsjvGRIu1V4W7XX6g+kCyWeweG4yahqjv0miPdQ8LKlRaAqkW+/ECP+DD9cABHJh0Nq27x9nBI2NJLtgA61175+ECCWMzV5G+RtpHgv1eDomo7kwdjzMVubxcvXWEc9HYfni+dEPnp+fqimnNP72/1Hg7Qwo9T4PltjiYjiF9b4PjduPsf48fmtuOkMLepX6eJWqC1mS4rop4KnQj0eGsqIqstN3z9eNzjfN2HkY114E5tSGQze7+PDmcHc0587m4jPwBhFsLXVh5LUW39E8QoFmrR4ulH1Y/vjcA0Zp8D042dVyexzJaes1g8KXOivvdy9yVwb6OCZJs7kNsvWlrWrU2ji2MwV14J1eAzXaMcLlm6z9Mu31RTQpvRkKPd4oVcAvS1/Pgv3F6v+OOPG+ugV+XgDEAK7W39Xxwdw2eb/AMcfmtuOJcOu5qelwPg5tR8JtA0NafwH5OKpriDpTD3HhrALx0s0cQm7RPBYcds8V6Q4wItAw8JMYA1qYP36cQ5alqCh6U9vCSpbkidFkQND04DxZA3WHlT0grjdUflmWjKcw5PGkN4BxfjhM1mD9uT4rcxy/Pc/yRK8BAOO0b5A/PSGX0xTTHNHJfMcoPUNx/nDPTwnsbsOdz1pZf334s6xuH8MB4PQNFmD7MeBxqI/t7PwwMrWixN+LCRVsNvtxYw+sD/a8fmtvACVid0/b2gadu2E68RGDkuJsNZhRZjsNn++LGsWvU7v48WndUGWnuMO3EmTAYhk/wBv4PFccGDzzj1y7xEBQ0jwD5Z6lEozGhiW6/UOGx3if7MdbOOC6LsbHF7ZpesHT9ce3hdvEqWbZ5Pg0yGtTG5dYm/iLF76d4aWcij28G5hD7RM+Wy9ahgXt4MpVHca2c2EtZlQPIKUwmLnunxH9z4j+58R/c+I/uIhakavr5IME2aBLZwo2/JOetFGHXsf0mwE8UOhkcTUJ02/3lCwCoGh4BKsI1RTA21N34gwpZHX01O0LI4jC1fS5lbdGL8uLiB5sUsC9Q+vH5rbw4gS24j2YUVhi0b94gQtcvdjpR3FdNuJv4A/jekHMCbQPFUzcbU/TPtHhdTZW0M367wIpDZAZHiYkDFUYPn2fzfEzncoOOg5Rc/V/Sc9IL8uNecD1iODYU+ZoeFgdQHAP9PwizRydHdakrjzUKn7QhSMrHuSKfM9o0R0psPQYRbz8Oo0Jo6hqS6OGEcT9nPzSn8PT5N4V0o2+L6eJnWadHdaEFNojj/QaeI+nEKcubmmiepyG46niSq+KlZVOiOptOe74PmtuJGA4rpDCI2rQxLcfEJwjZHuoKdvui6cvEzM3ZhcNR+uOBNi2zHL1z9PI0PGCEQBFji8v95Xi0xkZBuuhLaUarD9D8+RrFs1d1ozAa8cg89Xb0igETMdPIEvG4rq6d42wuvacmpyiVwdb6IbjUmA4Za48xvzeYV8Xt8mvslfGHWLNO/yuT7TqkZpFB3b/wAIVCvWn6s1QhW7vke83Q8zXda+RQu8cpebSNVPXp7MH2jnoFPUhINaf8oSJXWr6s1WOH/COsC0j1GhyPD81t4EtLGzlzHRjjDiLQ6au8Z0DZPUl3nZ/wA4ZCOhQ9ZvOm51f6mWYcfd3fGZ+Ybza9jGMiKuKvCxKjZsc/XKFgFQaHkvTApEsSO6W6X8O0UVbQX6NM/KoS5q+Wkrr90HvK2DM63V/wBQWJ56luub5ZauX+0Z95ZETTE/DlEWgW7O2ctMM55RDvz0gwxGtL1YI3y3vS0dGmf+gwwKbP13lTpXD6bfc1nz39T5/wDqIfnBMfk4YkIYqlYt7ZnFQTZBbLGnXyDDDDDDDGjIhc03D7D81t9Aksz5DRkv2P44vkoqzHQfvv8Axf5rb6BLNWVDiP6PzHha2x3l075QgAAKA/i/zW3npEyABaukuBYXy698+BMlwXmPxHv/ABj5rbz0jwcLgz13fL1jweycR3GXc4esAFGX8Y+a285IaajsgNZbmJa0Mn778DOYa1dxiH6D8v8AGcQmf6J8C/U+JfqZLH7HlsbgAGjTDd/EfjX4nxL9TWFqhXLFu+0P/wAcnL/uawXdpHK+uXiqqXzT9gAjiVqwv0wLAXp5rQqEw7zLakQPc8hhFS1V58CRM1CsXiqqXbizFQluPEtU4UlcoAAYpjXTyXx3FVSDuQwc6S/qrYGpg1FqcKQTgVmAX9Ttx6AK5nf5oAN7RMK15RODehalZ35pBQwHPfjEGGaFnyEIwte7VZjpgTJ5oIxvbpPm9uM2WGUlShp1wl0HMAmI06eV6QJVMOJyzhld3FFfVKLwHYZpcMimMHM0nwm36JyleLeBuOGDCNXFbQ63czSVSGYivRcWYA5nr2xxUwOXT9Qo5yjY2KN+qpm90GCUW+Bo52Lwx4HEtctGIZzCcYGGJoizbSCanoesxthZiT+JSPDCwHuNPy8SRFmp0fmMuJ2D0lC+7ExZi8RtgIKheGglVLjoqQ2sNQwymuAGtXVMojci2asXcwyeGBVlC22XMrWaukKLsstMYg4E5GCE+24IxWW9IXKjClvRzmvsA9MMFwv0ey3Pg3RYahilQz1zvOWEDpkK005RddGFjDtgmBucqo51PZ0uoO4w4fD6z5vbzO3rT3KtijlrnWXDdCWZmCOGSAo9TDGRyV5i651dSo4wV7HcsU6mnMZmw957YjJlE3dXssWUR2aAcWJimVkhJw1TTKFXu2rL8I9sie6mDLqunfEZkO5x+fVY1uBRmXrMbK6xXPJnxFx7Sx9msI0vFCPRWpyJTth2S78oOdMdJ6FdZrXFRHVJjXCzQ1ll3zhCGLqF3/LzgKJu7eiXCYX6pFafDKB1rSRXkXF+8EJTpjnil78Pgds+M2/R53zzhxpQrLVWbFMqASY0MXFfkikoBNBA+OXhpUMyHnXNWBDTzayp55bBGJVlcB9wmANYf0Hxe9T4vNx+F2S4ECYlIqNs4PR5GSMwkwwfuGUoUwC6Sq2QCOLoAKq0SsQJQ5FYUkx0wPnNRRVXw9vj7f8AjxpEOAVa7DVnPCcfnhQQa2DUv0zAKrXDrDh8PrPm9vM7enw4c+68Ov4Dfwm+c2lzVPYZn2uVH9F8x5wZYPYA2Yf7tMkWhd1P8BiZEbi9D9naKlXzuGG79IDU7OgPTF7wHChas2vcwyivjM0iHPGK+OSdh1IGjXMuHo3LSmbgHkM96vtNYCHYqjt3UcTiTvBvfT0CYYwHwJ+GfP5ocPgds+M2/R53zzlelpmv6mYIktevthHRSDo7IrQjyAQJiLb0LXpHS9jBqBehCVVJhdtjLlRZA0K4vDB8LFBkWNAdxozBCeG/dX+pXFcBnMPQIeFE6B4cd7VVF7YxI6jRLQ+W0CmH/AwtX2dg3GUhNeWEzqJRXEC0Dsx3p84vaBtqrQY4wewXUDcYx3aVpRi1eWUvi5jgDqFJAhIcQ3cQ5zZhAFop9314BW0DE1fxuQYXnlGBAai3oGLETKF1aaOftGfGiC02+3tMKzihfhixOIaH6N4DuxixE4XTEqdVRe0w+Zdcp0mXmRlRcRhbWhavWYahyb6JcfEdCuDMLBMQb4R3pAkxMdK2Sa8shycbSHBhCQbNPZls8s4kLcnaHKJNIXBjDHIIjYlRfg4NEgmtg1bmVidJYgIdFhmsEAHIrMQ6rNJoGVR8iYdiZTa7fn93tNYYsPgrDu8LlBZfDVBGsEAFm7ZnK5comxe11M1q4VMmoPagBpgP5hkOfH/QEdMNxC7kn9Qjq4jA1p+58/miMwLV0iyPo4GSosDWKA9DwIhsiA4pBR5/RZ3zzm9O1ZiwyciHXPIvYzHiAepzNgAADACFcWY1KvJpn+8j/WQS1ECfSp14sjRVwtrZHKBtblSPy/Mx3lWM92dwuXUfEAg5bgjbXCf6yP8AWQ0gmrdqKLTcBmXDpc1eLRe1R1rpRabwwwh3C1+OcsnCLAIvFvAHdSQW6OUqklyi26a/MqRXw7EHF3xA+1oLiJQq+QaHAXmrmMyExp9jJjmf2isGPh2gOC6kRkq4sDsGlsD8H4j0Zz96oy179h9v7Sy1R1RqmZ+a31xloVhuBDZsn+oj/WQ4Havht4YGM0cusyyprsI2e1T/AFkf7yMlgB217uHkEWtXQ4luRA4XTqPJjTn8L1R9oJYLOaMMsCETUVioZNuu5TFfnESzuZEO2uF+jrm9IVduOKd39TLXb+RdXgddUu0v0Si03e1/cCGiH8nu48LFVEUi3mRjFS3vpAp1uzHoxY6mUty1hGIOeOxf1D4lzInpMxkOeOuf4hCZD/DHdEw50AhThYX2j/WR/vIO6BuRTdq/RWYk56xg1InjrnLnFfeGhvJHs+MS/hVFZq944AxQ2F2q45x7dWaukh9t1vQ4KW17R/7f+oqqcSvOVzjL3AMSyvm3fp4tWg+AB1hIWzamRM+8s9QUOwXHDlDgurbdr0ygCTV3B0b1Ez1iiy2abtRCrC9aJZ5CpLpFxk0KvOgjglaMvPXvCqpqjEsR+mWGlQFvK58z/ctEEbUua+MDSLbI5JPmf7i5sCQHpf27H6dBUVuJlPmf7mpnxVzGiB4sMfxNW2Gc+J/uVFyjTba+NYUxGpzrOfE/3MUhXTz8wkYCgNPJXMwAreV4T5n+4MfMkq5r/wCyf//aAAwDAQACAAMAAAAQ888888888888888888888888880944888888888888888888888888888888888888888888888881os6wmxd08888888888888888888888888888888888888888884nkKsx+t8F/jb888888888888888888888888888888888888888845mG/He/wDvqqspnW/PPPPPPPPPPPPPPPPPPPPPPPPPPPPPPPPPPPONxTProHHfvvpBn/DXV9PPPPPPPPPPPPPPPPPPPPPPPPPPPPPPPPPPPxSnvuwgtfvvlM7fvitndPPPPPPPPPPPPPPPPPPPPPPPPPPPPPPPPM6qXvvusWtfvvmLsfvrnKj/ADzzzzzzzzzzzzzzzzzzzzzzzzzzzzzzji5T7mL+LJ7/AH/1qyXx+/8AYdPPPPPPPPPPPPPPPPPPPPPPPPPPPPPPI40sUAriKgVOKm8pv4W0cP13/PPPPPPPPPPPPPPPPPPPPPPPPPPPPPCLUiAEUnAhLG7/AJ9o4B859QurTzzzzzzzzzzzzzzzzzzzzzzzzzzzzwuREAC/f+/77777647+hc6nj7zzzzzzzzzzzzzzzzzzzzzzzzzzz/tp/wA3/N88+++++/8AvvvvpHQE9PpM+uPPPPPPPPPPPPPPPPPPPPPPATM0AMQAJBZnDK5vz13MR7JdkcgMeI6OGPPPPPPPPPPPPPPPPPPPPMXxQTAww3KzuaqE0dPDA9UZpbCAwwx39QIvPPPPPPPPPPPPPPPPPPPNQml3/A0Kmx7wZAQQQQQQlibU6JvNG73hyfPPPPPPPPPPPPPPPPPPPHZ7UYaTr0gScbeCQQQQQZk6NBF4YcudLja/PPPPPPPPPPPPPPPPPPPOs/bbKcE0CAeF/wCAEEEEG4OzBM4pPzO7yHXzzzzzzzzzzzzzzzzzzzygb30T2tdH47OOwFItc+1Mtr/OlIGUpfyKTzzzzzzzzzzzzzzzzzzzzzq1WbmgEDjaq57zYBDIIkY8wpQMFUl98vzzzzzzzzzzzzzzzzzzzzzzy+h/0IEEEEG82UiAQgUAwEMEEEGDTe9zzzzzzzzzzzzzzzzzzzzzzzzyzuEIEEEEFWgBS3WGAAMMEEEEFxPzzzzzzzzzzzzzzzzzzzzzzzzzzzywIkEEEEGrwBoYYIgRIAEEEEF9bzzzzzzzzzzzzzzzzzzzzzzzzzzzzzSkEEEEEF+cWxzHWooEEEEFYtzzzzzzzzzzzzzzzzzzzzzzzzzzzzzw8wEEEEEEHQg0sz8IEEEEEFqjzzzzzzzzzzzzzzzzzzzzzzzzzzzzzyx8EEEEEEFYqwiSAEEEEEEHK7zzzzzzzzzzzzzzzzzzzzzzzzzzzzzzjOMEEEEEEGIMymEEEEEEEI7TzzzzzzzzzzzzzzzzzzzzzzzzzzzzzzxiMEEEEEEEEEEEEEEEEEFP7zzzzzzzzzzzzzzzzzzzzzzzzzzzzzzzwmkEEEEEEEEEEEEEEEEEHdHzzzzzzzzzzzzzzzzzzzzzzzzzzzzzzzwAUEEEEEEEEEEEEEEEEEH9fzzzzzzzzzzzzzzzzzzzzzzzzzzzzzzzzdoEEEEEEEEEEEEEEEEEe5TzzzzzzzzzzzzzzzzzzzzzzzzzzzzzzzxtcEEEEEEEEEEEEEEEEEKfzzzzzzzzzzzzzzzzzzzzzzzzzzzzzzzzzAEEEEEEEEEEEEEEEEEUM5zzzzzzzzzzzzzzzzzzzzzzzzzzzzzzzzw1+EEEEEEEEEEEEEEEEKKBTzzzzzzzzzzzzzzzzzzzzzzzzzzzzjP8T0aEEEEEEEEEEEEEEEFultn/AI08888888888888888888888xlOryyz3XCBBBBBBBBBBBBBBB7Ds6yycsT8888888888888888888U4xAAENfWxCBBBBBBBBBBBBBBHgDRvMIBB3Pb8888888888888888n6gAAczOdpZSBBBBBBBBBBBBBBUjAqjKuBACQbc888888888888888DvIACArCDmxsDBEABBBBBBBBBBFAFTDCBkBAX/8888888888888888BpRm8iDCCvcS69jxSjD99N88vjBxnCCCX/wD58N/PPPPPPPPPPPPPPPAeu2zogggnFjDSQQQQQwwwwwQQQy4wggk9M+XPfPPPPPPPPPPPPPPPAaqQ8wRAhdHS22aCiCPPuuOvMsUJyiywlzHifv8AzzzzzzzzzzzzzzzwGokX4DcdxSpMEGEEHGEEHHHEFEGx+xQjtqEH3/zzzzzzzzzzzzzzzwGuMHGlRNXYDEEEEEEEEEEEEEEEFH50e4iIIH7/AM888888888888888BqBBREIOUFgBBBBBBBBBBBBBBBFLh+tAC6BB+/8888888888888888BqJBBBBBBBBBBBBBBBBBBBBBBNzBBBDDBBBB+/wDPPPPPPPPPPPPPPPAYoQQQQQQQQQQQQQQQQQQTTVbwAQQQQQQQQQft/PPPPPPPPPPPPPPPC6ptQw3+bxxwyyTSQQW8ywQYQQQQQQQQQQQRTuVPPPPPPPPPPPPPPPPJc9WSiQQQQQQwwUQQQQQQQQQQQQQQQQTSQ37HvPPPPPPPPPPPPPPPPPDH9Bs/ITBSRiQTSQwgigSRQSDjgx6cj/KL3PPPPPPPPPPPPPPPPPPPPPPPHPj38NAUI/w/FXOHPqyB3uLM9vLPPPPPPPPPPPPPPPPPPPPPPPPPPPPPPPPPPLLLPHDDDHHHLPPPPPPPPPPPPPPPPPPPPPPPPPPOMPPPPPPPPPPPPPPPPPPPPPPPPNOOPPPPPPMONPPPPPMNPPPPPPPPPGHPPPPPPPPPPPPPPPPPPPPPPOIGIDEPPPPHENHCPPPPDNPPPPPPPPPKPPPPPPPPPPPPPPPPPPPPPPPOHBLJNPPPOGHDDGLNPPPFPPPPPPPPPKPPPPPPPPPPPPPPPPPPPPPPPOPNPLPPPGHPPPPGHAPPPFPPPPPPPPPKPPKAFPCAPAAINGHOAKPPNAALGKLOPPEPHPPPPPJLPPPFPPPPPPPPPKPPKPFPPPPAKDDEHFIONOCMNPDIPKMPFOPPPPPPOONPPFPPPPPPPPPKPPKPFPPPPALNPCNPOFKJHPPPPPOOOFOLPPLCFPIPHPPFPPPPPPPPPCKPLPFPNOPAOPPPNDPJIJJHPDLPPCKHHJOPPOOCPCPPPFPPPPPPPPPNOPPPOONMPAKOPLGHPLGOKPPFOMPHPHPFDGPLHLIDPPPFPPPPPPLDDIFPPAPPHFPAPBPHNHPPIKHPPDHHHJPPPDBPPDGIMMPPPDDDFPPPLDHLPPPHDDPPPAKPDLHPPMOHPPPPLLPPPPPPLDDPPLLPHLPPPPPPPPPPPPPPPPPPPPPAKPPPPPPHIPPPPPPPPPPPPPPPPPPPPPPPPPPPPPPPPPPPPPPPPPPPPAKPPPPPODHPPPPPPPPPPPPPPPPPPPPPPPPPPPPPPPPPPPPPPPPPPPPJPHPPPPBKHPPPPPPPPPPPPPPPPPPPPPPPPPPPPPPPPPPPPPPPPPPPPPPPPPPPPPPPPPPPPPPPPPPPPPPPPPPPPPPPPPPPPPPPPPPPPPPPPPPPPPPPPPPPPPPPPPPPPPPPPPPPPPPPPPPPPPPPPPPPPPPPPPPPPPPPPPPPPPPPPPPPPPPPPPPPPPPPPPPPPPPPPPPPPPPPPPPPPPPPPPPPPPPPPPPPPPPPPPPPPPPPPPPPPPPPPPPPPPPPPPPPPPPPPPPPPPPPPPPPPPPPPPPPPPPPPPPPPPPPPPPPPPPPPPPPPPPPPPPPPPPPPPPPCPPPPPPDPPPPPPHPPPLHPPPPPPKNPPPPPPPPPPPPMHPPPPPPPPLPLAOKAONPPFPPNEMDKCBHFKPKPPPKFCGFGKDLCPHIBFPPPPPPPPPPPEHCPAEHPPLNJGGNPNBLBEFLNBKPPPPPPNMBDJJOGGDMDLPPPPPPPPPMPPPLFNPPPPPPPPPPPPPPPPPPPPPPIFPPKDKJFPPPPJPPPPPPPPPPPPPPPPPPPPPPPPPPPPPPPPPPPPPPPPPPPPPPPPPPPPPPPPPPPPPP/8QAKREAAwACAQMEAgMAAwEAAAAAAAERITEQQEFRIDBQYXGBkaGxoMHw0f/aAAgBAwEBPxDq58klRui4Qn9h+MSVjYInxs4SPQ6jQRjgjsONshmbtG3dE+JlEs4MjgjOSsVCwWrenALbMxojajINUMeIT4ZKNoEye2JcLaDvtY9Nl8BtKy2N1kIo/wDpmVlDXwiQ+iYIpcoSqGV9P/sapP0YMQn16Gk1GaBga+CQgrsJWL0JMWEftZRfXLcQ1fyQRCT0QwxkT4FjcWxS0hcSjHsUcJMPWfRCMtMJJ9iUQ0Z4CNb5c9THNf4BGe6QoKCJkSIWV4aq2N6RHesJooPsH2iYepOwttJj8XAk1cDobIhWW0P4A9eN5E+DSiNBX4HIXI/LYyTwW3kSOwS8QfWj6UNm0Nso8sKD8hkig6Rfwb5w0CNXRebuiiPr4CFG1neIvCG2E2Luy/LFL/H3FCWBfYmQZP8A0bZBxP5BxFn32EHNhj6uEJxGLYiYqLWP4jwz8nkBfa2gee/oKuU/ot5gwryNNb4aITqKYR2gQk7YgwXL0S2EfUawP9gZjbwtayEFl07tJjO/9j/1fAf/AKYzpBnubsNbhnLBpV5HZ6JGkNu0NrgKrZjGr/I4zHka6ZCaFWUHtoS5C5SDcmaRFe4hsarDQwnybBDGU3hngFxJpEexoGPooSrnbRRxKNuwRlI+mIQtnsaO4qVzBn7G974m7gkgkLThRhzKFpQvT1LBemayMZsxaMosDmo0Gha1EpLbEoFljGsxd1s3RjUXSoSkgkEToaP2flhttWbjZQDGMUYvCzZ61zYlL3ILGhqR+eGfVnwlS+JQIeeBvpUJYz3w0oLA/wBRbEqIk0WUhjVtcMfiQwXqbQY/B4yMQnxRRWtE7/QtKU4lJtjx01iTsSDffhP4iSyCdXwKWrjOaYlb4AFwQjJjHofAJbFJT9kNJcjKtBhXliUGmTKT4d4Qv9uHpgxj9S5SYcZkr6Y+ScOcDgRO6D0FEWzaeliM4xNqG+/ET1kaZ1zuf7suAbx4Q31CHwbKq7UWo9beBk9XZfsU85Kp6N9XRsBePV2+iEJ7eXrmkYnfVpClvlv0xz6tj19eh76zm6h1bLzeGWk9TcQ3XobGfYVKfgS1FJT9D37iKOmvXBRfAF7MaqEKdUUbIUWHTAkIp7D34E8d9loxkgR7BuIeu/Apj1OjbIfwKNHRvEP5UbIe/gUYKdElWkKWl2+C2O50X4CPX+CXkwX9j6GYbf1/nwSXBS27dDAQsKGL9fCEIYSvQ0dkF4R9TCChgpSl2R0mPD6DKmRcXxS8QnSJcN8wgha/vhY699EBcLkGiD4ombROhQ36EjNPC4GRWUTj0IWoWP78FcVfcoWPariZlk0wa5pvoUMnCoW3aFw0VQIa2GMnV4jL7lrG0mSyE0exLhcGYDsNThLokVCGVMY0dxCEFytqHu0UfYT7i41cBaK8FeC/A+0heLgbysDxmM20vQ0ZFdhjRbMMQ1S9CjdcNghKnp3FjjRCEIQhCEIQhCEFsWO/Q9CpsuL2U1dCjbh4GgIVsPpwQViFgoDhwnwfQeY+w+w+w+w+w+w+w+w+wkgfCUZGLCIOMMiE7MEPfGroUbokLBsqFeYPmNwav9hDRStj30EGj9uNi14EijhmTfkgqna51dCjbmoTSLQ4tlu5FqlxC7i6LDGNt7ERmPZRTWjutjbb4Rq6FGy9DEJHvjaIaydEnBOticeIfYhu7lGroUbL4NGroUN8GRq6FD8kNNE+Ba2a6KkTHY2RXgjXVRid2EzEiLB9JRMwywyYbD4qie5GUWEVdxL5EgiQ2UvV0pSpmBR9iIjwfQR4MWheAa+CPBHgjwTwKvBUiopS/wDFX//EACsRAQACAQIFBAICAwEBAAAAAAEAESEQMSBAQVFhMFBxkYGxocHR4fCg8f/aAAgBAgEBPxDmrl+5NIZbo8s3MfjQo87GIDZPwwb9tuNCKqftEGIZa2Q7RPJAdy4cIR6VCbl0haX7TcEWy0MksS3YJe+6yf3Gs/h/qHAA7AX89Ijr0z46zGtXZyRLOdzafiWIPsyy0vPbr/3mL5UdiIrdGO2un4cSkNws/EeAWuqvqUZ2H7hGW2B26T6se8H2RY/yP+PmOkteAQjpGZv+CIq6cBB7l/c+Tf1DVCwPeFRvB7/PmD7EsBupsR+yXd4Li5mbM1/c8TL961eIHYh+p5of7g44BRxP5rup/mDfsJFVwSinHTwarGLjMA6X+4RvOosPJM72X6nVmYMvXeAGdWvf5hz7M+Z/SIlYsWX3l8a8QSx/kz+JSiUJoM/cclV1SH+qmTP1EUTH6gl5FfibgflDbD5EXzHnpMwZcuJsDI+ev3B6c+5xCusGPqML0/wJ2n8tQJB4EwOi/H/2Joq7u3+YhVR8f5m6OLWr7Ypu/tnl/bANvsZTWTaD5EriryRkEOpLuFtx2mxHwYjSH4g9I2/BhjtOefcvoLL51W875ztKdyd3/qlY8Zj+piL/AAII/axSvwdD0xr0kpA+lmwH5ZhVNvow+zHuY/1LCg7O8YKmBHxzlmhZUshNtoDbV7kS7+2Z0q8Tdk+T006Z/E6GHmiI2D4zN0FDeElnSXouCPMYFdp10Y1wCGeqUxp7xW0nnYDUBtXQK0JsWbppsTPhi2wQL/oj2P0w7D6i/wCiB3mbAfymyMA0A+IR1fxCWUwDo+JuC+4DssO2EQ4gQfb6j9CoBbZy7C4T/qQJdk2nwO+IXQgMIsbMA6wLTDm6F9RtgCXR6iKbsRYCTaUJysxWhWqFG4NYEr1/jGncMOWPUISt3lK2Z0EaeOQBghG2ROIjwN9K0CBBy4HbKlTJt4tiW17E2gVBNoyM8kMcqJvaEOp3fxF8coUQgtqEaNBfQRtBculXLYIkZcjefzY5aRbhsEN+VZaA1WELc+JVHeG+ipGKzQsfQEK3QsJU0Yl4Z84Ry6W25dQqNQ6Kc0gdoMHTCxfQju2LHVEoZYB0i3SJ2xHVMMQayQhkjGjV0O7FBFdIFRy6QDTNzm1N7gIuXLNG5Y4cyIdLFpiDLlxg02MFQ7ogjzArmEiXeDdwc514LZbN16QAPQDDLgvDuQLkI4lc3U34cVKeG+Ct4caHPCxOPddmCO0uXN2VwCq8dRhzySzOMCoBs4VAuEoOYX14rlQ0Bz7KUT0AEOhjRA9YIlkrASu/Hne0HsF3oRRshd5BbQhe4+iCn5w9gNiR9AUbICLRFb6AW1ABXsLBT5Oh9iMFLkzagexBXJq0w9hZ+rkqCy+7lh7Cx3TkqwdYaL5YexLfAOS+AexpVmIUbPImyxVuKxz9kuXoKwb5Gh0O6+YRZzSxWZZUrSm7vHixWXyGH7aZB5lSpnS5fKLpUrS5cI3jYgyweutFy4dHj+JcuXpUqEvkXhZiJaHgy/YCMIZjsevZosrJtNok7ETrA2weVZcHRlZTgRylevJA2pcv1ax3QWBDfV1iuumqKyVLly4vJMLNBRE3ixHbfANNxiGVFNyL9Ip013yyveU7yneU7w6zDr6FfSdXPmL2P1KOFRWZg3SBuwUjkWbmgFXHTrhuOxpcuXDXExMTExL1uXNjhVJN82xpucizclQ2MzYiogNuiPER0wVWWF3O6+Evq6TwTxaz44TOrLdWFN2GcQYTbYrp0tERJNibxm8cizc1ypFy66sSIRKqIFcjGwQU48ouktlM16LUdrkWbmpmzeJWUEVPHGFZWbm8eR3lGYCMaEt6Q1lLmoAaM3uRZucMITwwbkwXQXaAh2IPrA2as3uRZuczfpM3uRZucrcuX6jN7kWV6YCWQZcuXpcuXLl8Vy5fICMS1b5JILslO8GgHrDmrqC6xBolXvArlKJUyQLrCB3mkP1nmgGXwVx2SyU7xKMEdovoRbrLN2IuiuaqVKlSpnQ7k8k8k808080808k8k8kXumXeAyoEqV/5V//EAC4QAQACAQMDAwMFAQEBAQEBAAEAESExQVEQYXGBkaEgsfAwQFDB0fFg4XCAoP/aAAgBAQABPxD/APG1hljdo+8QBzVxpcYrgggUthn1IMUeKv6ggGdXS+JVgOV/6g66hd77nZyQXCQp539yyr2/88x04Mmx42l4K5S073g9JuDLcewg1B8K/eUcH0esc6xm2fKqdjtAzOQijVxbmBSohrTzt6y5kxbDkf8AzbpGqr5bq74gTit+hwSu8QLlow9ziFAnZ/q40eOYHvMRoYvLfO80qjQCPDYCiEFua2X+ycUbVmUCBmgwvuS5cQJfaNyLV6PeOXMLeatzbceO0IlNiwOn/l7h4MtpBAt0av76RJMxbecnDGNbm/BwSoGrc0W4zPY+KRhu94JPjA09iIapEjIie6+kdkZSDfUvMqek0wytnwMYiulQnJquMUVXROE/voiwqa7IZi+orV3eIrFl0FPJqSz/AMksBjthg95muAs0n9xYeMN7Amtrvq8zxBgDQoly8YfDKLgCudl9KqI0QmQVjrMcfVRosFmId4C4iAsg0JwH3hmjeY9zsqF9ohebEZd+YAYUUAHPDDQBYSOKdfSDZf8A48GxWigPMFGwWVd3f0iK+lofAQOCKAyh6ixw5zp4NILn+Xv1oxF/EYzTXwYRNJRwkI5MBq8T/USkAIm9kf0dJwbNNS/MVqm8NhOVLPzGGweCETyQNzZF6A7esUF7QPuCOvxG13aAepBwFKGihRJLEHbdRD/xbE6wlFpwEbyMC0XK/qWuW7W2NKOk18TA7mqXZdpRClOTzOsW9YeKySlOnaXdxjoF6k0LNskM6X7eA9aqen6G8wo0bxr8wM4ggA5qNuh6EuPqdJzdoJHzAyusItu/+IXhdHZ54neKaC7xdibyt9Us5vOyw4LWBsT/AMStQoiUA9yVVYS2HgIW4C3gh30jRDwIAQrWcvmYpOt9Ul9ZzcYku4uke88s4I+R4XwR0P0CyKq0MNfMu8OOVbhDZpThl+IBlAHAYJR2Uq2GnUP+0YE8TLO3sAtpopwfzEoREyJHNcPWOnqS0Fi0P/Dqi3SEIwW75Qh9KLAHVuUXXPapi75JbbdzKweAoHBHIVzf6KHlCsEBN8hK0cRt9TnQS/6gUfoB9bT+Fn7R1l7dSNaLH2uay3iUV/QrMcxoGtBHgYrTLVXjg9BlmJbA+Bh7LUOTlww/8ItFwu7LuBuHmP8ADLWq7sCqoAwLSmwQphqkseOBK1pWBVuWH0n0lS6QtUe5UNsF1dkRVDUjYQL7SpMhOz+hasNt6gFPvfR1lGl5wt+8Fjukw2gUR1+naIeAFsSNA6TL/wBCEHxIVwcneCMc1eXuMP8AwaWy6kt/MUKha1O7GoJdHdJ2IN9i5n/AlA5+WF76w+neeCl9BKDn+i4xrSIxOAVbvhf1st7aF2Sv2hpHbS2obW1/UVF7kePj6yCXegWJxMBOmy3VO0NOP6g6VtKs6eKgQIvWI/8Agk90v5564I2ajVudvBFOigFh3e0rKO4zwHASvLbowGofVWZxA66Vta9drH9RRNJbRuzuL62L3pgurozlFjGmS/7mEBg3RT9ZGoW1UCxHFMvbGEu7bxO00qERqcuGACrEsT/wCN0JUARvsRZwD7mJhdQGV4mhI+axgd6yxxvtXiBm8+frZqC2YJa7i79AJGi+j/8AeiXqgnbR/v69zzEbvD+BqZSbAru1NR+i4oHQrWtbtENhsd/0V2KEvWH1bJKvh5ImFwhkeYZARXslp/qH88wsAFxnZ7LnYmY3FVn+J/krasKCJu1zf1gKAGrDlfc2l0ibvUMDIV+hN5atZDXcP8+vtSX4ipWXHlRzy7+2mLo0MTaOZX+DZagHl+iGkFJk9vDpFeH1wRplHhSuu4feAzCTs/zxE3C90MHvF5kN+ge0Y6CezdYWh6T1n3jpWrNEetk0tIQpc5d5fF8GkrMZUqZk1MeSpriNhKf7ixTmWcyzmU5lyyLT/JRFbRfdlyalyxn+pum0qVCxsxKTDc6wLc4YN5G/qS4VJICNNnq0hL5bW9PUQ/nHSKOGpWa6Ls/1KO0HmdzFGhK40Iw6EWqj6FfaY3D8xerLHq+IGqaPeYgZdB/UHItLg+ssw9MqjUqbVMiUq3k094ur7QGr3jXHy7P57T8h/qfmP9Ryxa0o/qCVnEVWJW0vrVGWpgwC4rWcWG/twsrrQl4MqrYJWONSvMdOq1qnDEIs5SXwx5nt9Bi08tnZj71WO5s+0XIJUGrcD2gNSG0RL/nBmJs7AZjrjDdiqK7Yv1jQSAGtv/YKBNQq2svqztKg2PxGF6hFMzqQgqWq0BGSffAPC6EzobCr9dPiPozuwL0MTeHlAp6+kw7/ADMaXGjVqWcyzhMZ94VzK6VAYaCWxIkrBZFWXrrMVbpax8bQC7eQ8nXeClouzK7Ab8zCr2GHkh6XiU7YGNDovkmpUZIdycu542/nNXxJvs+1w0mnSa9HAeprGRJlReBKQnYrWNyK5Y8yrhno2tHWW3+d41s8UFndvEzdQySxxble0SQ1XFPJrD5VqCj0ahF3eG/7m/AgNPxBb3BhfmVOjyYXPvGmsEaBFVf/AClQ3BafclydaoS/aVxQaVX7RRTvb/qUgfFNe9xsc0M+1EE6NmkrySwXOhm+aie8FaPRiNGHDGAyBu3XzzGBwyx/WYgEFFiaP0FRkXK22jqoPJArJO0r7Xc4VlezFDkUjtGJrOLqc/2h/N1p1XK7RdZ94OtMMZRj4T4gnMsyVZa6C2aaGVDyiSCywG/ayG0QXIIekd+YW944hjjBFQyKGtriHDjzHwvqwfjdm7xkVW8EAdtUCvXWLesYErokqH6BF7RsWezKKc0c/kgViv4SOjE+DVkIl2SuF6bQICMxStF6zagtafAxZwvJftKqG0Fh4giWNnS4MRkYsS9mIY1X5yEpCLcCy/iPUK8cIP8AN47pFHYLT3i3BSHdqLD9iETgpbSPeOZPTIeuiNv7VofLoxOuYVWFlU146BiatGY9bHhP9RxFDXeJxCFrQ6B2I5hxGB+sS5faIJVQCMXmHh5I4NAqG8I8Qb2BUwmEZUqydwCMviVhIUYo7EOgOLKeU1ncgxQeSb1vxK71COdE57wdNItrIfFfzQJ6O+gsGiBkbwqCQg7VMsxLO4spu27Hv9xB6Q1FqYyfAiXxekYXdaaekAPEKXzKHKzeLvtBgqMKF95ewRgKgKVVaTf9sx6YFmzHrF7ZbsmOVDr/APGWOnRAe8W8dJZ5YiILWRepCq4NQpIY0joKtRHtBQqh0186MIWM+jStOgZLgr0BR9n+WsjJptafujQaFtnENUQaadYw3pDFsTS+8dnJgpopLaq8dDWMU2Ilt3N4bSM6hO7lB8pAXalF7MAg2U6d5XaJiEI5Ckh+2dIhfCeOhO/bh+6XYRtXghUjjWegRRCKnuR3hHXpbz0uw+xGrmdt4Jj3BoAwx4ymmq+YBat1Z/H3B+TYIPeMfyhPVveJC9iPPq5HxCCEaYBimq+8FNMeJpj+BZOPo10trtAb1e08H26HvB7A0RqpSUzgE4zGgJ4zHmUTtweqw2CtTZX3gVQLEB8Q0v8AZ/ESAAtVqp22aFfSItWx/ri3yZ69ISGFIcI8r7vMlys3K6b1rEb0fab1KZUHQhWBThiuvvQs0aj4CtIU8weMP/jIvNkRom6N/SAjDl6u1Msq/wCLXMtLfD3OBGo0aY9gCedIPWlBksLBaYV+ZZu5m/EvDdaUemY6UP8A4JEKYpCkZvCQfgqEmnkwOh6rA0hZ+V7QRAudJ9o4AbcZRB3Jdx6ktvf3l6axdrWFKic9EvUvzG0TiT2lI3QqfMEGXN76kohXu2/DBbe6pp8Q2zOyUgpbXYjABsNLH9wsQnShMdiHkh/96f8Aen/emavdEEULXAQ1TDVJ/cFcJ+GpcDZwD3ZYDBogH2ijhOFzUA7jYRE3/Ifad+5FswY4LXHMrBU7BcVKN0sD3ZZkehoe0AC70u1bwctjduvvGgpzrR1SflxBKwvE+0pU2zrPFbXH3vSCAkZ1ofWXB5yF/wBoQTshgemdUvsxKZNZg946RRFWwHqRHLDPH5EOb9mwO5/FOnZOaU0I0baF0bDsR/0Ue1ZuCvU8zsQ+B9bB3tgYrbjpXTeSVS4XKsAFB9Vw1l5pcoe6B5runwIGo9Bo9TMP9Byeu8o2f7hE1awDFR17ypvGEEQB5hXAOzINXmMf6SrG8p/20/6af9tLLNa/9pYrrlv7meY7r+8axg9o6Q0lE9+jPtAQytFr+oMA1ibPSXQTukeriXtm1wL8SzezO3rCAITYx9F/Q+jq0CnrDZBwiAGnV4+ahRj1rujJPc29ICLymV/lDSX6HX/MbtBv+IYvRDIwtW95Wd7hFkRDs13ZSZTn/aX7Qa1/tMB4SftHDTh4/SxVgA1gS2tuMKAjesvSu0rMQSmk7xEpmVLjDb7rHxC0u94TQD1gCPaKNJVl/wB2PrzELvxKjl6dIRZV1aKYj4eSf9/P+/n/AHsOEh05y28mtGCWG7UUmm+L2mTqOUbO2WLbph/QuU4Fyz00lSPf/UQzDzQCJ3eiRCUgncuWKCt6LcOoHasCNgvUSn9KwAOWYtrhL+4fi33iUJCWJ3Mxx1eYPpF3DA0gbJZZCN6YH+IBcBLcWJD3j8JPa3Lcus8TBF1ojHne8o0R6xgaDnJjxW6QfXWJTMWkBxxLvMeTb6wlsOXQIAMfnUgUdADlbjfaMFKqHzzhQ6j/AIRVoZmm+0IKN7/4Rz1QTp7vMMiPJu8DZmNvoT18x4z7Qs4uarPSCcOcx31um37QoavwPadgOCoYKz79SwGVGgDdjYvdVO3MsMbQgEuV91EH2l+ZblN+0azbms9BghRrXr7Z3giXeOlZigOjAYf7NQ1oWPX6lAtQDVdpbniY0vu7RdK6gp9XEbW/Yx7E76MVZvW+872SUjbUNW6e/Rl1iNc4Q9rh/D1koEJtbf8AUMR+y9i5lEHcqHWrhaRHf7xbFrctAjYp4lYSeC/A9kjxk4srFtwwb0+igdiseCE2asGvfoUjbpibFAoy8IyGLVXo1eXqkexSVorHsgFyBaI6fRcvrv0v6DIyLVWz/UbZiSniKGs11h7QcGklao3LB2goM2TX+54hHMLDjIy/Cqomf/mVKlQPe6MvBMpKluG9V/UW1XK5zO39xRxsNkOuWoZjT1l8tBxmNuD1aIxn3OC9V0h/DtMFP82bx2QCCmmJmm+MMso9tYlNVUWliyNBV71SRwsHJ9oqWWoxGyLEdGUOJucsYXqYGX4exDmloDoJBWi1OD/YudGxj8cwwzfg5YRHpt3fpG1S7EFbzxhJROpruOmCXWir2P8AEr9RfkexsBcIMm3VbB7QbzCLVBqxFbDStLloC7AlgF7cqH2Y/N4hEkXb0jAaMrAf/bqcJCkYrBc1c5cJLRF9CJoADBKFHMvGYmK38RMIt5moi9lRt3hwduFdB6SkE25QAGAYEsMLI1ufxDj2w2LjByiiU+IQhGSnklTGNnmUymaJ0CziE/E8RjJCi02OYYytTuvQBFoWztDzLhQ6/YBLlgKxQ6agHXv0NIMx6DqeCBRvlTQ+Fy9QBDS8jLcSmHfo/AEd6jv+oxVOd5K/uGQbuMW1jqPh4grFNmvulH3hLHAEFGhzUBKaGUoOhyQxaWUOgTiLUqGcgmfQd+Y6dAgjpGBk0Z5o1/d9ofy90K3kBhAQaBNomAKwsDOtQ2iCXKV3XxOIlPzK/wCp0bEP4fKc2O6cl9h6fjFWZSHS4nGz7SpuVoy4snthPwPE1aNZfCpHTRsQK6aIUE0rz7SiM1acSa69ENOfdiMFqd/PC7gIgU0WpO0RdwQ9eiw7R8/qOwbfYSqCdhk/EQ21GBG2AwLci/iBlGQxZvwxc2phHFHxAI4dfJBxLiaTl8mR7JKXiY6Due99aEkLMZdxDi7vtMPy8pnE6QFoNXaGRC9q0jL6U7RsPXEDG7Mng8NHAfch/DrpTt2CMFgMWoHHxU2jS+5ARABN+owleL0iM9TE1fCE/A8RQW8ujwSihx0BJCjvmsRAVWzra9HWX0nqMNkM29K/oJWbtuLnMYL79H2f9sj+palaH2D/AFBUzLG0X9obBKpqEZqKBUPpGprWqtrDLYRXjoMDMuRoAv4Z6gQAjhGMbhC2qp53+6WwQQGs43RzHqJmVAOxN4rUJSx/9EP4djU/c2Aa35Pt0pDfXOz6Lh0BmB7GGs1H51Ke1nDvpLehZfJ3gpG7Zbz0UaKkURLL7J0egA2lDmA8br3ZvKpWB1mik94fqIIXZXJV8wC8l4rI1NcOm8VAHo1ozb6FVbZraPU22I22T6CYSqxtTNNsfchu3n+ohG7nxCMaGD6FC0KnsRLW7+AQILUWqtEekBtLyvf+JFReyZA09dIqgLTINJKuXagbkIYME7/QSPRnNYQ1hJWkjbExJBQdXCMG1cgfEAEiorZPozuCYNogEtxAbWbxDVk5cEB1jQrEHxCYB15VlWtGwavK9UJXtj8wyTNqT0WGJww0TfZg+X3cf1LQDLz/AMI/3gfvHQTogeKm+q1/1Zgjoj46tP1EMZ1ISwNucd4+AGxGajNOdyWAfYi6GN7B5irFAbRdN4g0I6a02pDqDXMeRVB5snuz5L9oAzVwR+gdA2ayISyXJUxse0Ctv4lLiJmhOOfwz3hOm9uriFAERyPMQroQQ4sXCC5hqNbsOqXh07zNIUbnngeY1TjqRB1ycQ/+agGAB2JUt2MsIEm/WyadBake6ujXEZYZRr4NAS3ds+jaI8sboFiUnrArguL26dx0hVYbOg7urDTd4MUcoakqZ6IbU9IzYrsVEYx6KLRYMbilJCu+4foys0/sT8dywWLWiCbtr5j1uEYXK8xXb1VgBsbYXlexAj09whl/i0JfEur3O8ePKvdnS+ToljU0m3mAFCsibkolEqgyj0uMcM3LtdfSgfw9iS49Gze83iFBpRDKSiUSiUR8QAqrcGYAgKfH/wAwwaUGAI8ml3l5lnclVRqvFof0Y4wS/puXLJWs6ruN4qAsmVCkRMNjK5brRdvKP7MQy69xJv8ARRCgC10CJCbNazs3lPRFIWOXiV9DAIjCbZRrfz+8MSCAvx0eiJuXZWPURsNhwQ/7gLVdA7wjBZFan2WV/GWUkx9qjDSktRgaI89ugoq7dz4/5DDUW05PJ0+AfeOs1X50+tTbyrUHhMxI0thn96DBho2vO/8An4g0PXK1ZWxNbV5thNYUm3qayl6S6YRAaAjFBrumTMe5iJz8FSDSP6GEiqYnMV4uaJREyA5EVQpIcrKSB94o75B3fuRHxi2WxSmyv/IQOTp/SWk2bbr3ZQKjlvTSAKABQHR+hHgQVcGcYk0W5bB0lDKgd4ctRSMkb20naLkcAWq7QEtCisOwcwAAAB/GukRt6kz8m0aWKwabHF7w5PeDxJ3YfJOMMrwvjaVxqRXcm83bRTvT9U0jHZhrAFBRG4Zgsj4jtceA55jYkIGkcMfpIdm2YOtvPEDULZM7y5Wb9bPS/P6yrIF/dz4R9p+D4IdCGmeHps0Fl8xc2+rFKNV0YkZQstNfVgAAAOP5A5P0hDxBDPbWHz28RN+0mv8A7NGG56I4ZcW/oqTnF/VJ8ghGDXQEmBSJhJebgWG1Xi9petYJHr9AhWmORuHVYPhBaeQRaxL6ripxQ5P1a7Vkeqho8ESIAlqmpZVSr8wONYN0HDSzs1Y6QhVtOzsdoH8lRLSeUV9AMxLXSPS7bvEYtG5/h0yrfcTb5/VygAGxCP0ALkmDghfZNSFk4zKg6musw19AAX8zI60DR9GvrA7tSAcAQmr6fJiv1dWwSnCLmk0u6OT6Ev7oLsOTdGdfGqO3+oKGKBQen8vT9GFRFnMwDGFpCVaNa1q0cfqaXkiEpmOv06ps3zPxXHpUsHhgln12P6tmaoDmzO0rtoYmrq2gABQbH8zgC8X5RBNAHhtSIL6gW8a/VNIADkMnR+gDjVEW2reaL8q9CmvyjqlxDJhI4+hwW6S6TQaP1fiaGD/EJiJ3vgP9/wA3ejddUUCvvcdmnbw3L1TzkR+oaTLDV6xzLkmIUF8w4EDpbEYMEXdYRZqeB6x4Su8DFIOO8enZBawKX6Rh2CiF7G54g5Rw8RFYwu4e0H3qA2LxGjCvvKCDVlfrVbPY9Vb2vpqxvazlU+1fzeHRFJhyX8w3l4uqTqaE+T9XWVb6jphhe0qqwkVS7w4iqiAgHyUxZfeN8WRUUPFA+WByE1SfZFd9wUFwDFdW1NaYepAXuFDI8IOFjkC90h94XS/7MR8DB67dxE0nNGPcZlaVYw15EVtrd/quC5fUGvb/AOoL6OBrkH9wVlXHkF/zb2yCotRqTlUxtGS661en6zDwaMhSRHuQT0Do+IYea2TI02c3tN4MqVKldLm0PsSgTL0l3ZKjUOQ1SEJMBWNw2Jf6udrWe8r5RNhQb3W2MipcFjsHz/UAAGA/mw3Ece5UROljwOPio7aLW8aTCdCFiafrGsFQuFJs9ZUaIgoMh9+pNaNdiE2LyK6PS6LjlofVGmr4gAoANaj+s5oUkcmAeHPQ6UvDmz83/OOkGrxq0dKe1RCgUs5MkCnKC7UrfJ+vcSDQMYNBfJXtGKCRQGVlFf1qLngQS8CqTd7bmA+VSv6mJQ8o8Jx4mufPvMQqKHFYtVajKhxousvq3L/WQIAVXYNYd0gF2DpjtceaQ26oQxdAt6ZfL/O3foObFq+tQmUu5ZkzX73+wPUcwkYYgNlxV9ztLPpBotAM8ayimzgHFdcRxcA1xs8wM63G9AkvLa+Jt3lcGP16Egs3fHXtFbZKvK5WHmFBMbflNH86rLLQ1HP+pdg8lxiMWttyyvf9g5Kmb1Suh/DMYAdY1fcd/MMDJRhvHEJDxlPwl0qOgsIEd6s1eFj9aahehtBJGRHjPuhFsk0A2/YU/iyvP/0XNo1jNRTdWOzrDv8AzpG2FciTxg5RavipqEAXWx/kLq3f9g5KlF2KYrw7Ir6ZFXhTHvLRyqBl9oBALvQe8ZmzLh3g0lXWUIW7aYJYFAMBxD9ftLc6gtimfuhvQAtValN493a37/zzpmWLAQcfgmX0yRtSP9Qy0dH72/Z6aY6UfsgDsy0KGvmIu3+3ksDFYPQ159YQAoCg/nmC2qfI0SnSaaD1yf6fw+ahiDWnn7TaAnIrNku/j/wCq70AU1DGkbKA5wUP9v8ADvUyX5Ao+ZeYlOtINH/wBwBT3i2umf8AFd4f/P4bb5jHpFgcD/8ASDAGrXzMSaq5Uv8Av/wBQ2D7lxYHtMtqq/JP4Y1PM0XCHtgQG0rFagDAMKKHwB/4DEitgBeRQKA4ozcouSF7h0e/8MCpAroUR6RaXnKUkRrHc/qH/gGEaTX6TsevlhCBu72MN/EMl/wo2cg9mI7+57oRouv7YH9/+BsQoLXiYo0C+UfCg94V/DU2DX+EtfEAnEPlst18f+B/IcT85yny/t/hUDD5kfFuFfMVKJN/taG//A/m+J+c5T5/2zQeD+E2xrWfE0aIq5qDcMJW9ua/8CGXCX2iBNFvlB2Z3hVT0/g8JQWvaORsQ8IzNXA8WnCASYE+P/A0vVjX2U7wPubiDtCLsFTt1/D+DoloxfMJm+dZ84T8Z2/8CJaUivW1PwwwVxFYBPe2VAuHAPp/Bgk2ny9PlfuhPyHb/wAC7+amwqn1qGkZdapXN/5GtrUNdtv4LUaSl7QjfQR1T3BCAu1vx/4BlBIYB1dH2gJRawHLK21YBnUpBFucC3+CqFYmfeV26CnQl4qGj5htBtF+a/ni7H7BEpZqgqOd4Qz2saRubBPJePio4o2T4DP9QcEAADaiZu6gh/Aqe6gd0o6EIly+BeglfpeQuG348ft/LXLOYnINUPuipJW/H4MDjRivzH1RNQPtiAZoYgjzrAATcShDKB4R92Y4OlOznxAgo0GvvibfwABSgLYttYtu3XBy04uzAjysOt/2QkjaSp95jiNSJ9WGuTknviG0xpZi98RffnT9INaCxD7JZz/G3HWr4QHrKvSWgtcViBUqaq79F/Meiy7H93MfW/wCX7xVWleV61KlSo4LhMoYjxoekIouvtDLJKoP8BQlaK+WIr566oNmPaDZcdfpFGxROIwYdugFj9GFf2zMPIVou/RfzKjHuynzeJoVcEH2l/w6wkiMVr9NYgETImvx6xlLQWbijU8xU2pVu1uXL6BKldWDCYp1zmFSB2itCuips1IyTar4/gFfVjPH0MMXWrnEHYGo6ypUqVKj1FGxR5J2pET4p0I9hWnV9f7QfrZRC8U5g/wgkxvFa4DeKle6WHk4iCxtVPV+ipUr6nSEdm6k2FwQR2lTFQWl6q/4AHSx/wB/oFoEJnTSFDw/vH66lR6ox20w9SMgGtk8uzDkFkC3hNv4IpJkT2Z4lteNCOEH9/pX9JMpiupYYD+4dcqb/f6wtVC3O/MPF/RmG6z3IuuD/P0n1sroZ5EuweEhzKyX/B/AK1QWrtLfFhMG55vpUr6rj0M6ZiZktyHDgwFUFbiUkIzQktYt/D3hlQZXL/k2uXLGOhQ/f1E0tV3YrT1OIRUqAlXRupleOzvH6KtLavQCw+yYAUYWp/hP0qmkzWcXAgH0uVHiDyP79FkSHhHGKMo1Veh9T1EMd97+IUjJkIAKAPEc65lyR4YYsY3JuTR8S0GxBoO4yn8FvP8Ak89DMW6/v1LuSx2Oq1l0lg92GUbO0W8xwSdXYOYAFfq6DwTs/oVDSJD2mSOl7b0Y8ZFI/osdGgqNm4ANWPs/f/luc+c/fofoGCLvV/yEjBgDQ+lLEQR1uCOGZHfxC9EzwyzO3Nwp18kO8ObRHNy1jUPZv9+BzuDz1x5C2vO4xGVS2ruw+O64IXTB3F+q0ABgasPylp/R+Cn4vh+//Lc585+/0X1voFzvfBDiBUSvqGBLslL4jh6IX6HV67iaTlNPG8WM5pQZTx+83isolWu3R6RV1rAXEGJhdjoQU7FBywx0NvfiEfpFuC2HW1s6XLl9a6fFT8Hw/f8A5bnPnP3i3+twSxNamQro7kUKIiaidCX0IABvHttDT6zrg43CzzDYykfMFVljyMFKDRUqAgRVFavmWLtqA94uXN6vqwoo9XK9pUy9hfvDi7jIBn1I5WWH4UQE2poe0vsJ3sxaW6cfI2mOhyEIZpjuv/JhAUF8/E/5SNjo1pPq4444YQDGrVn/AAkQlOqlHHjL/IYPJuk70sS3iWTLbP8A2Y5RuyRsBkbf8ke7CxlZ9CPKEVhFhguNG2veNcVH2PJ0C9s5fsjl+sWhiG6WbxgjN6MeppKZrg0nXsMzNoai1lnxU/B8P3/5bnPnP36dMhIZGU49oL5NGW4A0L4WKFlSKZhSWPRhy6b8QCCgUQ/QnTMtRVNK6GnS+ly4lwAjmbV0olQw3L/iyvQPDP8Aqvp952rClTylvL7y3oPiWy2bx+hLlQQehZz+hoZdr5gEtA+HqYatrpave6vZMPe+K9IUAAYDQmX52J8VPwfD9/8Aluc+c/f6KhuRC3al3zLeOMsVlt52+vz0f0EmCGlproafwVWF0FeWGTsr9DUhqzFN65VY4m6V43NIOYCsE2q5tDTor4r7z8Hw/f8A5bnPnP36VP0UkpSxD2njo+8f0E07L6B4gPruXLly5cuXLly5cuXLly5cuXLly5cuXL6EIDpT7/o+QZugRcr7Q0XCzmAh8dGM26K+K+8/B8P3/wCW5z5z9+lTN+ooCryoHBHmbkP1uBYjqXDEVaPt0dlTStB4jtPDVLIo1E8kKd5U9SVKlSpUqVKj+vjk94JqPggRQ6A5QIzoqxC71BkTaEh4Q06ePqJThCXJxSmw5ZumLwejNuivivvPwfD9/wDluc+c/fpU6+n0AZdpdzMwwKTDKh6X6tuh2r6LpNQM2iFeIY9XqcMeniXYXWGVIWAnpVniGdIGDuv6hrANCkpqE0Ru5hiW3Cy/r34ntFaNuc+zGexCyokd5D/cUXBCgSgSvZgYaOSLkrN7Fj1UNqJ/2MeAW8NJFdPdZ/0Wf9Fn/RZ/0WJAi3ctT/u4sX7wXf3BKyViw+8yY07k8a4pgAJ3URTn8ARErNRRftKFsDYol+bXdj1+NJksBWEhkBeCK+i57mX9zcRJ9pkEAR5xMCBcsVhNwBtBmFVjw+hshTfYQRdXIRxbGyZrrR79AeRSfOku46xm3RXxX3n4Ph+//Lc585+/Sp+gTxFGB9pBrUvETVBM0ok+IrdhFiXKM++PS1cE1Xf958JBBgBliOql12EaQMBqrMHfLHL9VfXRx+yOhls6D8MdNU2I8R15kMkJfiU6LUeXaXRhxmxm04wc8E8wG62zUOrNuivivvPwfD9/+W5z5z9+lTrN/o7T77Jos2uE7SydB4mKu6fQ1i1V6apntHtnZnz33nwksR8Mi5ViehI3YR17fwFyn5J8gRmSJSJuawDuujyTNadQ0h8LpErsiNo4R4eE0QJA6XLH2VSwybMJjQBHu89WbdFfFfefg+H7/wDLc585+/Sp1+kZdwxo7MMEsqGLsJC7u64qWclxvXQrpvMdwYJ31mh8T5D7zXdbIkBFrFL0yLV/yVMHj5XrH+Bfy43Zgo1N/DN4nl9o9HYG2JgKmTLKpml4dNLJBoSo5eDWkH0GbdFfFfefg+H7/wDLc585+/Sp+rF1nzcPaU5HCmBydS1BnJNlHu5uz0i+FqwrRNgbXUNYhSKFawOByb04O/8ACFuuyPmKHTZ/BjydGCoLpyVNSy94xXaEyE0BrKijGqvpWYilVgyufEJiAoDY+hm3RXxX3n4Ph+//AC3OfOfv0qfrXANoy8jMmFNFdz/I9MNUUkemOXoFwZeIHcKp1TsbwCUmIbduJX8HakbbYihCczX7gFkcqzm7Twx6UNJVmUwJiVmKGrFjBqYe8E8shLSCwANAx9LNuivivvPwfD9/+W5z5z9+lT+glxoT/wD2BrGS5zQoQK7mJ/c16t6tBCfxrPW4oK86n50hVADQCv4MnSgysM5WGUCE7v0VRnm/5FVe42fMuW88sz35UiB5AqZucaxfEAA5VGofUzbor4r7z8Hw/f8A5bnPnP36VP8AIr0UGA5YkG9oMdb+m5cv9Nm3RXxX3n4Ph+//AC3OfOfv0qYfx1QgilpcDMWuRtWbfs2bdFfFfefg+H7/APLc585+/Sp1m/8AGDta4MsNqtzlLx3u/tmbdFfFfefg+H7/APLc585+8pJNzAYvuKYaZvA/h77Q22eTDmwmxmJImGql0PZYxTdleZcvFfuVfFfefg+H7/5cAFEae17TIiA7bei4WCsNaIpheGbDe7casO1IQy/DHhQ9YkyiAcE8OJqB9YLovrEJYj6/uGjVDyz+0MfobKoKnBiAZju1FsF3mtMcQ8+sQayo/ugkDabEN7Gu+G8EOkvKoH3ltgcdwX/AKlYTxv8AgYRgsbc0doMwzOEekuzWPW3nqBoHhmiBCVl/mA3vIQ7f6QfKDfX0mzWE3fZ/UI0gBtQ9Yb/UqvPw3a3Sm3Dnnogp4B3uNgfWacHpNoeBNVgvq190VdU+szy/wK4xTCWvSCKZNOvcytjTaLiyYYPQPEAAG38ArBo967xFWLGnx2HMTbfiHgnRVQAQMXoHneZJPZr5hJKyKv8Ann5XuUQB9xX30gq5xTL9do4Xdy2BC3BENFwP7hrWg1fd7/wRdAoFiSgMVo5e+z0lLjol7TSIjSVWvaVWP+QxUdiw+krOQwgDXY2xfSBl3uGRAFofDf8ALKl4eYjpuyYclBoUD6xJFWLspQy8sIEpWHTlr5aRwnHIy+N4Sn6GAP4SoXZKbQkewPr/AG6fEHCFrDHFb+cRUaG00V2Yjd5g1pNUPDEfK7ITSVIAYMr4lICu7oe8XpribXZ7B+YSITogzPf+LJUI5BGEW4ZVfQr94ZFFo0DBU7bJXvEjZagwj9ovK9AvQmtiEovVxGsylzXJW0XW7ZX20QUYUEASv4lGA1GH0Y2StaJ4rBLx0vBnzBe49t+sEOf6Rqp8ohU2lZ3mbwvpPPtlJSCw0t/aLFXEPz5J8YNo4XuMoQml1sKjwW2mamrU8Z8IxYJoj4YZlPEp4/Z09FC7QrvBrAdxKYh4ROqzXVBMH1U0W3pj1ZnVpGUq96/aEtg/nmOCu62/pLMtNbWZmTECGoHwXL6y/sCqn4x48RPDeDF9oTEChbv6h8e2Y+P5BLjN02I9mIBV3oJ7Roz2oHpM/q3SgcFkarRoNaOLlkJ9ol1gNZA784yYvUnv0voLt7Tb44RHxomyv9p90DYSCe3+QUm+UWweq+YTKHhgq1G1IlvIOMw/+ywC0W1Mj/8Af/5P+z/yf9v/AJP+3/yO17//ACHZru2f9xltSNtYv5xv9xxhHb/6hbC0iWg+FOJqk9H+R2/TUmou9bU+d5xBbS117xugzRPXptcUN58bDYHaNF1zaDoy/MfAOqqQqqUlCibls1AmGT5IYGBtpVecyoJbCPiB/MVKhteIWCIE6hwJz2tEu1BW0HpMUSUVHzG1Kuoq+9QHd9vvopoi1DTtTAFQLqIkgLfmEScOW2oaNVF/1RPCaa3/AJQKxOUP6gF+LJ95Zye8s5JcxySzklnJLOSWcks5JedSX4lNbPeU5PeWCKaoX7TOBcif1BdFvSv8IWt3V/cTknLDcIJ6JDsBEQi/liPwlTneWr2meDmA9LlVpWah7kQEglIfaBGOj0C8B4mxJxEqV/4ajjog6x1y+Y1RvIiCsOtnMyXq6ZFA5oMr4g4EHC/qKHS7hT/lICB7K/0n/XT/AK6f9dP+un/XRVV3wuf8pBTActLG3fI/qBIO61L+JlGV0Sr8JpRxNEXgzRj4EANCulHWjj/+BCR1ZZuVcEKbQ6IlSXoSHNJa/kblroXBxqfQh9faIFHdX9LhFSchoeNccoS07/E0jhWWwXzR8IN/psKoeB68KLmF0K0hWyov1i6soE7hQ+5Gs243fEN1pWDTtkfEsJOwcOaEgjhtVg6In6QyrwwPFoz1JEnSBRAeFT+zSOR1b29pb29pRVCzNX8eIIjVR/bwGXaZhkJeQuB7+EZF9qo7q3rbzE07agnImSHY6N70l7M4y4ZZ3xrR3DUNEcn6ObzVPw9p3aI1Y2AAObHog+Y817WHpbj0i3L6i6XLO3jejxYWnFwLNC0B5XId0+IHBrBbtZo9tf0MGxolb29pb29ol/Ly/aU3X+Q0rnKShrVijlDtY4q3fwxzFavPSmUynqb2Z2SzYBo76OIlPB9TnhNE1ET6nQgLVwBE1woBe4NC54bXrF2qfPd1etSpTx9ItnGinH95SczIq8Va1f1+TfmCOn1fEdf8Ly/aU3X+P0ukfuVc1NG8hR9yLfS+Usaf85dCHysp9hEl+D5hE8Kbx74olANtRd3GoNVI3EB2CnlAkSoGMawhzrbz7sUdmiXWX6QwEqKA5XiNuZoC932PJ8de7oFwJdFYR+TFowkVpTkgR+DB9CRQqvuf6xoWaV94sT1loLkG87CUxruJe3uXhO5ceg1MPRNEYIWno3EOw/sMaDZp9PxHX/C8v2lN1/j9LpE4TvxA7Wnr0Jp17kdbaYp5L2IAdSSI0BzjsmfjSW4/NbZMaIG3TfSV1YvawtfwZSQgA/YPocFyj0DXmyBNFKeytzGrnoCn10XQCWIwA7Cf8zvrDdtTgGwGCV9FE0gAmY51l3GKRZPKfaafDTc3gproif46Ww9/G+SWKKM4qwHGKcUm0NPo+I6/4Xl+0puv8hp9dHz007ol8UX8RCERZvRXxX0MCAA0Fw2blZ0lH03MobVg2Nwyu0LW6G1rV8vR/pFE1ADVVqXUbKAfc2+RxoEo4/QMuRELEdmVX92TdDZLk3PDhE1E6BOElhmVb6Dud2We9PDWDwiP0fEdf8Ly/aU3X+P0uk50ahqB2sPToSmKQQWuWCgalXowb/SVCiFYGL5PkdKlNgW4Tijer8nYfphEuqwqUbiQHgX92Ot3Xl4HfoqjBhLFq9fA+gPo+I6/4Xl+0puv1aV5aLS1Lqjaz3n/AFP8T/qf4jfqAbFQzwn0O7mKg6rtPxT+p/1P8S3UTW7a1Glp1NU0jQAtYm02nH+E/wCp/iKyMWgLas2I+ECK6y1eNRtWtDvBb/St9FvmchG7cnEqso3vSq9HxMdAv2Xg+0G+qsasbCgxyz8U/qf9T/EryfWvUGSsrBz9VYTCwSg8s/EP6n/U/wAQ+ymkjQMRWXHSD7QFzZVPIi8DiCnoRDrIjcGSCI6VJTnCeVPEN1/dN2kpvJL+t+kYQulL4IuxFLeWp810YIMwvCH3mgEH7DPktvr+onhCwJrwaqKVvfRK8rrhJ7t19fo+I6/4Xl+0puv1acaIdvMt5mo+n1LeZbzMrusaj8bxW3Mt5ldKfLPKwqbUGBzv72o40jqfJkcq6svqcVi5PIMksIswSrwExXaFbm8HlJSwJYjuPQWnGMJhO40ncg6jBWjXLsg+st5h5AjYjkhmlAtizek3ycPpVGtRd7nsYheavK4isFuMl2iGrKPwNXvxmjoKVxLCpXkl8CVCm7uybLU7wUp0tj1RESxuwZJVCuFVbGhZ02LnWGOGW47xd7LfaDf0t8CHT8NzHVroEh0ssoffv6Q0/UMMP2FkPosGlovFVV7dPECVhZ6VcIEFFibnX4jr/heX7Sm6/s9INeJo/E846vQU0auZlPEOKOgW/ERIKTCOpKeOip1jcm99o7vY40StGY6RL0GJlH5b3OJq6GoVndCufza8MIbFI6Jv9GAfDv8AcUX2GaotXnKvd6dvGys5XALXsQZ6S3rq+6td36H04OqaiMvMdfSkuB3L7sv6QI/uOZTx1QEUrIkaR/Ve6NQ8HCTWX24b52Q4foLCiC9Cy9ydRcCyHyJNP1HSHaI9CwL5Xo0KajcxWyXm+p8R1/wvL9pTdf2ekGvE0fiecdXoFxMFIdLWdgfK4LY+Mg3CbmYHqQtNBUAoCjBM2q27ucmveFJY60ru9fcKPJF2jOGaUOiO3QjlH6QbEebhhePXlE+09T0EjMdhInZFndjhDV90yu66KgzAl2XQfZLd+8hnponLErguF5/dxhrOE9bY4/KAe0BX01Lv8Qp59Ae9dolm4Fr7CW9B5l4LabHicHhYo16GIt9ZXrueAbah7WNpcuOrgOyY9nR6m246te0AVrtGfNw0/UdGO+nTWECWudrfW+I6/wCF5ftKbr+z0g14mj8Tzjq9CwmZaigO6pD/AMUuWNPUoeXdhgrqhd4Ytg6g48o0ne+D1W3xW4bhXdfSS4TAV7tR3sFe6N4lPS0O+UpbW6qPo3hlVtWgsR3EejFKy7tPVR6XNT2njivu9ChdIbNd+wL6TFNjNire62vdf0EuGcKhy7rEDNxStXh7Ts34T1G3ljhHZMO3WuMttgmDhBfnwgq9BZvyupfC6vPCLmi/iTT6ackpySnJKcn0Oko7U+wUsPcD69FCDAaqsQxZY8E/rr8R1/wvL9pTdf2ekGvE0fiecdXo+OzAQmr3/wDYENPpBxuC6UB8jSdyVrmHCU/J0O0BLpZT6oQ06MABKRMMtFukMXflMdBrmChi5Hr9fti7Ihs16MfJ5/dcdcGdmuIweD0LmUfpUcTfG+Zdbd+9otm9s8yECaUOiNnRlp/NIIPuRlB+aUf9uhDX8XY1qt9k1OmrasNBZPYUfSGn0lnHFXDnHnka9xo//F/5P+b/AMg1pmJbOBkdGAnFF58gNn0c9R9kVTZ2dchrgYiKtu3pl4CC0W/3IdfiOv8AheX7Q3qeljcv4v2IMeJo/E846vQnGshPpdJtMj0GAURyB/fUDDZuFl24OPNO0UEYClGonPR/roXE9rJ3CFmkVgAq8k9Lms4PxRX3ehLAoDTy/gL7QDLfNFR6/RZKVd4mcNgMPGV36Qpr0snRPp0Q402EBhjyb79DWAxVN83fQZQgickBqRQdzZ1yM8j0NIRYmo9ofy9LAQt2Fep+kwgKRLEiq5LuTuSNdz5DF0FcGOl/2gZ2T3NxloiA9vlZs7aOZTmAMzixysHMr35HSogFuww6yeC+z6PiOv8AheX7Jlri+zpefrCvUTxg/b6A3Vjr5HkX4f6CfQqR6oZesfiecdXodhaVSl9SxQyfSCJBzgAtYIaCzsI+E6DYTztcjTqkNSKYwc9g0D+kSDUtlWra0863/wCA6C2DXQOoOw+KvHf9J8SbqMiqoQDBsStUAC1Dx/CJUOtS18sLRwJlS1ePpC0XMsuyugqPfPQ1IjGr7+9a0+IOQbbeFV5hK6bvVIW2A7inJZvAgLvymEfpIU1W4l3FFxllu8BruHTUxYNN4YZadRnbo9wwjD7qqNTBctjW8OixVWDWtandW1egCqhtTQDdVILFV3BfLQO30PiOv+F5fsxAhJo3B9WvD1W45HWDfD6G21f13rNSit0Ma9foGNMJuCId6L06vK715gPZdfxPOOr0NgVn4/WQ9YmQPLBWev02BNDoKI4tL5guK6JPJArIH5hNPoxWgDke7h7LCrWfS6k9z6GmG4T/ABENd0hkC2wYB7H02syOMNld7Gvl1AYINVhHyp9T9LfjVsFtcroG6kLdTDefUoBfbohc1NUAHuw9AH1pjXydRYLtuG3c1HkIQ9oBhWPvsmyJ0GHMgCFa2Y86Xs5h52uwL3RqG40n0oMv0+XlwDfcfJxNAjfS3oLagWaYdLDXy0w0Po+I6/4Xl+u1XJrY4Tu8sUWtNGIQhRDgvZNV2QZZyQdeXXW7BqmwZZjWhTKGj3bV3XWrm8aIIA+p9foMKKciX+6+kFdD2Lv3X4057nEDW8gkWBMInRQ3xL6LTmFUdENl8rx0BdIO8jbVUFnoPTr+J5x1ehL8vW7sZs5stardFgdiGOeBhOo0pah2usT7GrLYKwJE4HK6rdeK6EGBSpVtker9J0mMVBYDM3gs8jmOvQW1CrbdArXtVfiAUfS1MFhaxhjgwTiYCkTUTk6WahnKsRhARawTFrAut83dWRCCOHSWczXf0AeA1XYtgvWG6XR7OvqOaDpliALWPdp9C6Sgtk9jneaqTbCaRKlAMjsjoiZEwmerZmDgY2fD5KTZjOgA2rrUJenZ6s1Twk/VSyWckUC1xK/6cNE2zI5NalJY0NbW3I2LCli3nqakQ0qcF6gPIJegC8EAbkFBUB9PxHXemMIIrQRZ9Pbt27HHExBoAWWH6GkcLgVrNSVFsxh8GXlVgUF3Q9mnJ2YHRR6vvNWUbtJ/AoOgXGewDMKyXyqHdvZhCV4oAoDwB9GlKdBoPZY7JsdpnB5NeETaIjTCKWQfDnOnyIJpqoIm95F72eJi4cizWRSseLI69BFHA3d3gC1dgYjQWBW566Xr+J5x1euktazFHc5ge5UXMgEl1rip7RaIaSnBcetTAIdZRwNB2AOhliEwCsC5fLQcvAzTLM8ag9j6WZAZRTqR5Gewpq6Foe1LvkTDuIKcY6GoOwAfVoYlFuoDVWmqPIcRK6Og3VRbgIC6ncmrapSH0xl88rlJbeLYOx0C4IrYOU7rsGq6AXHXfji4W+FUcHK/SLjIMl61rRuPrqNxtIW61nGkT/tRR1Ml4mFHa0MX9GrNXkL6sEp9MZzIBTjuxu4ipUq6269QXozxFPlfkDj1KYJEKx07nLt6Gn6fiOuNS3t7S3t7S3t7S3t7RBNKgmr+gp4Jj8m8ufj6YW1FVUOlZzpA59C2B4cOpRrHGYG3lfpclQiBu6HWnL8Dk7sCHR7DTJyR+krDUT2wH/I7oVilNU3Wx4MXZg6/iecdXoCqWqTbDqXrFnK076Gnuam8dfp0ZY3FfQdgy7Eci8C0NK4GgNDvan06IOX8XI8d+qD4eYt9HpTBDhva1+H1nSLvCXaNR/3UckoZgakuCNK0NL2cTy+kLaupkI+hW4dguWKdpZne/Tk67sY+tiUTapVbue4a72TNwHvSoNpvl2RkboClGybR+oLZr2koDzoDughhZutDluw6oM5pd1tdibVBqIWHXXe7p3P7lwCC5V94dNmjnXr8R+j4TX9BDpgK+w1O1jtLt5sdBwG/N7J2146eqZdinF9iyScet7Qgam3VDhZ656IJwQ+uhyvODaoY+pB1l88e4Ycrxh3JkSYeNQHyJ/aIBTQS+FfmITih5Y0N40nzSHvMOytrHAFF721wx/SChM2aegBAAo+j8Tzjq9ANv4uH43cr9UHJTHhBuaaCV2UO66w/ptKnZUhlwa5EappBd0rPgmJERMr2Ax6PUm3D5Ld01TdbYAafUWondVZ8bvKuY2V1C1XVfPRMpS+i7F84DzCErCoAoDsH6Li8DkNRHCS+Ma+Y2DfurtE23Ksgeudi4LZN1f8AUGdmVg/eCidqJe8fYjQMoNXsBj09RKaMNVm3eXusMfo0TQ7Jhfm8LQ2UdphwUU+ycXqM8EnwhqE1N56UZ9JmiFUQcQ9T8AEfLtgwO2R7kd2oh9NpS9S+JUiTEK80yu7bKVVRVu7zOi9YdxmxaujFFg/VYG5YJojrK+eAYrqAt23NHl6VsiLsCAa3+gHHHHHHHPUYuBoFNcS1t/wP4nnHV6fk+cP1ABVCu8XVQlYHH4KOw6BDDAAwP27Ffhx++o/mfxPOOr0/J84fqYisihBj4pUPIiHToxtJshTVyq9TxA+uAoA0D/y/4nnHV6fk+cP03gMQoBqvaMus38WPvd+o46C5wSJlD0sNjnsh/wCX/E846vT8nzh+ky5x1vgY7GVfPCaoZYkp47RB8F4W2hMAGACg/wDMfiecdXp+T5w/STLMdDKrsBHK71qnYUy7roVGIWcKaFHzlpz/AOZAjFRAF3nF2yvpr1ABWQl1lKg2foukGn9T1YuGktOFzEN9HXsHCZEBpi8FnBgr/wAyl9a/ScwO71rv/wD4etZ79k2LRVXvDFbx6xYtV3W36qE8BBAUAVbzBNoQhctR00x+qAobDHplYJYAzElhpE/QMIgZgFAoAWWqanMyy+UbiEC8i3dbdR6Hf6gA1ojRepdQdoly3+KAxCTVaL+isUDBlFFLVnEN31NAQGt6f3LpGWYGGxlZHDRV74g+kuPUNAKkaUukvP7mt3/A79dpVfdAANOj2qlu/s/VQUVEqNLJrUoc3mahRafqqqcQBGAblg07g7QTILVbS0bW5hp9aIKu3VARWQ7EejOPBmbys+gwJPxS8CAxQGHOJakiAME4av0lTVuQBM5aquKRA6KSdq2urr9y6Mfa0wMtBZaqmc3F+pTNCEwxf7NPa1VdbwGMUnCkpjK0S1JhNrFbYUttWF0cRMBAEYLHAM4S5oYEHBqG/jY5GJ8zhwa8sv1KTWC9VeOTABbwtF0s8OQN7KoEUoWk4qDA01fS/wCSkbVQpsbjfWPNLdBnkBkZg7ESXOLxC9/dL0obfEFG7jRvxEHrwwrZYoyJiiYas0PpvG7wW6VXjsvF1LiMJoLfFA9MSjvgU6NA+sNCBa85lcZWuNhcXGRbzmMj2a4wzOwFrLhuc8Uovm1X5NQoR+lxUuwupim7IaR0ZmRT2FwWCoasDeOnx3JrdinR0hUEVcYu0g5DwzHb367qSWGlxtGr4EvAOGl1e9QGvrMTV2ApehpcebilhXGzdVrmp+Rf3LcaXQzG4LZcnvicWVBbylFc4NXBABeHYrSwB6krBFh1mbTsDW3EYsGj0KrNpQuRrKacuemt+WPpsPhf0JUDM000rEg8tFh6sbvwveV/TzRNFqgTGstNqoNTUI2ytBrTucbmokfLfLnKIYvgqLuzqFMtFcAZ2CNz3ZUSiqKjarrebjtbBhGjYLGYNF8j3GMYWqrvElMtvCMlqXk1pgNw0sAaBS1sVrMpmK4OMp+B9Ic7DAwBJyUtZKsRRwDafCg6a7VLpVEeBYlWULVkIWKzFUe1EsbBfh8RphWHMpYUBY6FYjWzZgQM45FWVV2QnjpqAUtrQFfFbzGQJIW4NBlV+piACwdNopo1NUl2GVbWXvZvDRrMCmIdFcbVBxTdXTg0uELqSEbbsd2DSP8AnUajjrhp5liNJYbBZ8ETFwyLW6NIptvmP7UIHwzyl8PsutTCCU6tcQwxjiN7iAFSE71eTIibsVQ3QmXsoSEuX1oHyHQEZ0yAxagv3gbFAmBlb5UDYoIvGgtQyIwB2gxIsfQvtcygyoVWB+fpS5YzvY8M+WiaEZhAaBBat5sS7TLghd6lsRER1EZTDQBXGFQ1WWIHTBLo3UIuG01I3UFAAMgoNUWWMfFJd0MQCUt5E5DF9NobQ+xKzd5xHSWBX1+gpJVZuFhfXsem6Pgy0Qc2UVAvCFYNTPlmXgLHE4w4jthtGAXpO2Zo6a/5Y+mw+F/QlQveB3lzLt0mSWkx1P8A6plAAmaf+d5wZ9OLzmKkX1IVO9Kd6hmXUoA3eVqrKtse7DBoMvYffI2LDa6rYkoHIiymcWq1WQ7gPpBPE94i5x5EUOMs/UvxqmZ1ymfsAMjyd2AkVlTdbuivmHCDo/Jd6BDekMpDaLbQQRejF7JpA16rPzWjK9rrxCl+AvbaWJmjC9hir51MFtb1CLp7aTqx1yoXWl3gABgRDABgInBSUoEp1wUmiPYmBPLERgb2j+2CB9XuAw66ynYcjTubygjGwWrQbrOLsiXXPC5aDBtNWrRpo0cJ9IOXgDnLSoCa0cA0oLad4QWWLHoDXAvpHVdPWZRd6F9INVJzUaAt1XEGyNQKJmJV2vFVgDkDVLutCXvDJBc5z8cCuLautrZhuisBeaA1lO5VwAHwfSuoRetaWWXtCAy0AzpxEPTxNO12MkVQXxNrMS5oDCPJCePMLTQWMiekXFQY1Kjbexw8S0Scu1dBXK8QFlEdxF0MkCnkghoDCQwKoDQlN4btlpW8NNgU9vcjySlV4vtpOpagL30j03dkH7lHRWZyaGkHyB/KqcGCrDJiIoU02oulKVsCwRXicUaWoqFu7NT/AHTykm0IvQWcRuuNhyXtRHk2TFKyQ8pesoWQsJe14CODlsKGqRw9mEUYm7mjZunmJGrcUlo2LIpLMjRZW1qnvEjjYrcC8vYzDC7I+tjXQaRp1HaVPZXsWyb0jF7HhRWkdMIwFMCMDooNg8/ofF6zJh42Ie4v9jBu+zJkUwjTprxD1yyo7C96FfEDOPFAArBbAnc+QaImEeZr5MycI98mm8CBlmcNTUZyGuYDGUECUK1WggedEToz2mbbqY8FsTQ+spDE2YDN4FPPJEoapcDjfW9PgEbM2vWRi8ILzwMqmUhhqYEMwXm1vaqi7msZ9wSrAk07xq6HJNxJPFj4gDEWwkNw1vGhfBdRgpIUhqE0S3tE1yOrl5XqPs8k1rd8Y3VPIjSi0OuBetpZaqvBel8/KLsILUALVXQqWlxhp/kYWYnThAJwkBjWQZQ2RElOINHWqjhrOf2euGEArXUsQXULxhIZbK9kkPmIfEGA9laXlDkYX8wCgDABwS/f5tDEFNmE1vqatMx2ijwDfuQjQA7DWd2rmRAVJaQlmdGNGC7EXoBAVyLvFkIIr0ty2jzT4ivQFm6aO/rgKDYIfQ6RjcJAwZQoK01ovW1aZT2sKc1qj2jzoFjPIYC+IRhuDLvfT6sEjtDjpjFirXeU8ZMCRShoRTThY1DAR6OaIG9WyBdFzTHltmQRoCekKxdUfSPbRqyPNI+IlK1Uw5FT8QATF2BptltrKuroG0qG5VF1dzcffTePp+q1N1AJvShQSsCHwJfEYwhd8OgFLqgutTEUde+PmozlkTNnDcGj9G/B8wEUs8IicFwsHJgWlFSHlhZ0WrYLS9tAgu+vsKggYMaV1lWkiYtgKrUYYVgLgUwi1juXcDo0sQd06fV6WrNZrJNa2TMsCgLqta4/QLSTIurofDC3U1XfQT9htTGEOai9xBNKbeyAd72I9REebE7ZRRStC20K1GG9yVXgyjchuEouQdC1A4CIR2cAFWQRB9IsbVUcVx8EsRQwt5VPSNHRL1XVGU3VXps3qy0B3QJ3JSdH7CsrsFp4GEZWNUrd72LuxlDsrBwIDSN4dblxynvu5hPn2g7kUn95tfYZfh+ZFkSCxyABYXekyLSAzJM4ey2dwnaBrtt2ito48TOrQvdHW6zx6toTtAhd0Bw/L5LsMKbllJxcQJwxdzax46WrNZp9dkgogC3QKMF8/sXRguQG1VCgUXbqtRXxhRLsq7v7Qo9QzFQA7gmMc/WGDwxiNA8KAi+fTU7GtNrl4x4wDALC9LGb/wCNGGYAMogaAWgrZ5gLDdq5RwtuHKGyLwVrnLK2WziXFsio5DY39WOGcmoMCrFukPn1QbNKDWLekrxJGNFCEEWS815NMdIQRJFDYAS4rONY58dNheFKEJ8VFDZZ0RWRECZrViZ3copkrbCfoEyoFrKd7k6KCRV61cT0i9G4KwagDZRUwACxzhMV+2Kbht2tQULdijpYLKilMIKFato0Lfra1cSEU2BzuaNGMHSwIplVzI2o05yMCv41a+EIHRAVlyOimkWkCZ0FGjSwizqAyj6jNWX5dRLKCtXdX0MYwEDiRQkFFLC6U3gUR0hEQqUuhYFNrydDAUWAe0byajs4YJgQ1AMABofoJZUsZABJagplsUdLG0R7H1aFcFBobf8A7J//2Q==;" parent="5uubR5LTRDBumDfYtwaW-1" vertex="1">
          <mxGeometry x="411" y="30" width="417.92" height="590" as="geometry" />
        </mxCell>
        <mxCell id="eSph2J_hhcmliUvjJDdz-2" value="" style="rounded=0;whiteSpace=wrap;html=1;strokeColor=none;" parent="5uubR5LTRDBumDfYtwaW-1" vertex="1">
          <mxGeometry x="411" y="560" width="409" height="60" as="geometry" />
        </mxCell>
        <mxCell id="eSph2J_hhcmliUvjJDdz-3" value="&lt;h1&gt;&lt;font style=&quot;font-size: 29px;&quot;&gt;Better SQL in Jupyter&lt;/font&gt;&lt;/h1&gt;" style="text;html=1;strokeColor=none;fillColor=none;spacing=5;spacingTop=-20;whiteSpace=wrap;overflow=hidden;rounded=0;align=center;" parent="5uubR5LTRDBumDfYtwaW-1" vertex="1">
          <mxGeometry x="430" y="540" width="380" height="50" as="geometry" />
        </mxCell>
      </root>
    </mxGraphModel>
  </diagram>
</mxfile>
